<svg width="24" height="24" viewBox="0 0 24 24" fill="none" xmlns="http://www.w3.org/2000/svg">
<path d="M22.5408 7.18694C22.2879 6.32643 21.5415 5.64873 20.5962 5.41911C18.8799 5 12 5 12 5C12 5 5.12009 5 3.40379 5.41688C2.45603 5.6465 1.71205 6.3242 1.45915 7.18471C1 8.74522 1 12 1 12C1 12 1 15.2548 1.45915 16.8131C1.71205 17.6736 2.45848 18.3513 3.40379 18.5809C5.12009 19 12 19 12 19C12 19 18.8799 19 20.5962 18.5809C21.544 18.3513 22.2879 17.6736 22.5408 16.8131C23 15.2548 23 12 23 12C23 12 23 8.74522 22.5408 7.18694ZM9.81473 14.9873V9.01274L15.5112 11.9777L9.81473 14.9873Z" fill="white"/>
</svg>
