<svg width="24" height="24" viewBox="0 0 24 24" fill="none" xmlns="http://www.w3.org/2000/svg">
<path d="M20.0072 8.07819C19.913 15.1834 15.3694 20.0501 8.58688 20.3557C5.78984 20.4838 3.76348 19.5802 2 18.4599C4.06727 18.7899 6.63066 17.9636 8.00163 16.79C5.97527 16.5928 4.77554 15.5614 4.21417 13.9015C4.79971 14.0028 5.41658 13.9759 5.97286 13.8581C4.14432 13.246 2.83857 12.1159 2.7711 9.74776C3.28422 9.98137 3.81914 10.201 4.52979 10.2443C3.16134 9.46589 2.14944 6.62048 3.3084 4.73893C5.33939 6.96507 7.78244 8.78167 11.794 9.02741C10.7868 4.72206 16.4921 2.38739 18.8799 5.28102C19.8893 5.08574 20.7109 4.70279 21.5012 4.28596C21.1759 5.28579 20.5495 5.9845 19.7858 6.54345C20.6241 6.43028 21.3661 6.22545 22 5.91224C21.6068 6.72901 20.747 7.46146 20.0072 8.07819Z" fill="white"/>
</svg>
