<svg width="30" height="30" viewBox="0 0 30 30" fill="none" xmlns="http://www.w3.org/2000/svg">
<path d="M23.6961 6.68914C23.6892 6.675 23.6776 6.66392 23.6636 6.65789C22.0427 5.87702 20.3322 5.3202 18.5749 5.00137C18.559 4.99825 18.5425 5.0005 18.5278 5.00779C18.5131 5.01508 18.501 5.02705 18.4932 5.04199C18.2602 5.48587 18.0488 5.94181 17.8597 6.40807C15.9654 6.10614 14.0385 6.10614 12.1442 6.40807C11.9538 5.94063 11.739 5.48457 11.5007 5.04199C11.4926 5.02738 11.4804 5.01568 11.4658 5.00844C11.4512 5.00119 11.4349 4.99873 11.4189 5.00137C9.66145 5.31953 7.95083 5.87639 6.33015 6.65793C6.31628 6.66411 6.30457 6.67465 6.29665 6.68811C3.05561 11.7702 2.16777 16.7273 2.60331 21.623C2.60454 21.635 2.60805 21.6466 2.61363 21.6572C2.61922 21.6677 2.62677 21.677 2.63584 21.6844C4.52306 23.1516 6.63395 24.2716 8.87842 24.9964C8.89422 25.0014 8.9111 25.0012 8.92678 24.9958C8.94246 24.9904 8.9562 24.9801 8.96613 24.9662C9.44819 24.2775 9.87534 23.5482 10.2432 22.7858C10.2483 22.7753 10.2512 22.7639 10.2517 22.7521C10.2522 22.7404 10.2504 22.7287 10.2463 22.7178C10.2422 22.7069 10.2359 22.697 10.2279 22.6888C10.2199 22.6806 10.2104 22.6743 10.1999 22.6703C9.52632 22.3996 8.87422 22.0734 8.24972 21.6947C8.23837 21.6877 8.22884 21.6778 8.22197 21.6661C8.21511 21.6543 8.21111 21.6409 8.21033 21.6271C8.20955 21.6133 8.21202 21.5995 8.21752 21.587C8.22301 21.5744 8.23137 21.5635 8.24185 21.5551C8.37326 21.4521 8.50239 21.3458 8.62914 21.2365C8.64026 21.2269 8.65371 21.2207 8.66798 21.2187C8.68225 21.2167 8.69678 21.2189 8.70992 21.2251C12.8013 23.1857 17.2308 23.1857 21.2737 21.2251C21.2869 21.2185 21.3016 21.216 21.3161 21.2178C21.3306 21.2197 21.3442 21.2258 21.3555 21.2355C21.4824 21.3454 21.6119 21.452 21.7438 21.5551C21.7543 21.5634 21.7628 21.5743 21.7684 21.5868C21.7739 21.5993 21.7765 21.613 21.7758 21.6268C21.7751 21.6406 21.7712 21.654 21.7645 21.6659C21.7577 21.6777 21.7482 21.6876 21.7369 21.6947C21.1138 22.0766 20.4611 22.4026 19.7858 22.6692C19.7753 22.6734 19.7658 22.6799 19.7579 22.6882C19.7499 22.6965 19.7437 22.7065 19.7397 22.7175C19.7357 22.7285 19.7339 22.7403 19.7346 22.7521C19.7352 22.7638 19.7382 22.7753 19.7433 22.7858C20.1173 23.544 20.5438 24.2724 21.0194 24.965C21.0291 24.9792 21.0427 24.9899 21.0585 24.9955C21.0742 25.0011 21.0912 25.0014 21.1071 24.9963C23.3556 24.2739 25.4702 23.1538 27.3598 21.6844C27.369 21.6774 27.3766 21.6683 27.3822 21.6579C27.3879 21.6475 27.3913 21.636 27.3923 21.624C27.9137 15.9641 26.5193 11.0476 23.6961 6.68914ZM10.8542 18.642C9.62243 18.642 8.60746 17.4551 8.60746 15.9974C8.60746 14.5397 9.60274 13.3527 10.8542 13.3527C12.1155 13.3527 13.1207 14.5501 13.101 15.9973C13.101 17.4551 12.1056 18.642 10.8542 18.642ZM19.1612 18.642C17.9295 18.642 16.9145 17.4551 16.9145 15.9974C16.9145 14.5397 17.9098 13.3527 19.1612 13.3527C20.4226 13.3527 21.4277 14.5501 21.408 15.9973C21.408 17.4551 20.4226 18.642 19.1612 18.642Z" fill="#454545"/>
</svg>
