<svg width="24" height="24" viewBox="0 0 24 24" fill="none" xmlns="http://www.w3.org/2000/svg">
<path d="M18.9569 5.35131C18.9513 5.34 18.9421 5.33114 18.9309 5.32631C17.6342 4.70162 16.2658 4.25616 14.8599 4.00109C14.8472 3.9986 14.834 4.0004 14.8222 4.00623C14.8105 4.01207 14.8008 4.02164 14.7945 4.03359C14.6082 4.3887 14.439 4.75345 14.2877 5.12645C12.7723 4.88491 11.2308 4.88491 9.7154 5.12645C9.56307 4.7525 9.39121 4.38766 9.2006 4.03359C9.19406 4.0219 9.18432 4.01255 9.17265 4.00675C9.16098 4.00095 9.14791 3.99898 9.13516 4.00109C7.72916 4.25563 6.36067 4.70112 5.06412 5.32635C5.05302 5.33129 5.04366 5.33972 5.03732 5.35049C2.44449 9.41614 1.73421 13.3818 2.08265 17.2984C2.08363 17.308 2.08644 17.3173 2.09091 17.3257C2.09538 17.3342 2.10142 17.3416 2.10867 17.3475C3.61845 18.5213 5.30716 19.4172 7.10273 19.9971C7.11538 20.0011 7.12888 20.0009 7.14143 19.9966C7.15397 19.9923 7.16496 19.9841 7.1729 19.973C7.55855 19.422 7.90027 18.8386 8.19457 18.2286C8.19862 18.2203 8.20093 18.2111 8.20135 18.2017C8.20177 18.1923 8.2003 18.183 8.19702 18.1742C8.19375 18.1655 8.18875 18.1576 8.18235 18.151C8.17595 18.1445 8.16831 18.1394 8.15991 18.1362C7.62106 17.9197 7.09938 17.6587 6.59977 17.3557C6.5907 17.3501 6.58308 17.3423 6.57758 17.3328C6.57208 17.3234 6.56888 17.3127 6.56826 17.3017C6.56764 17.2906 6.56962 17.2796 6.57401 17.2696C6.57841 17.2595 6.5851 17.2508 6.59348 17.2441C6.69861 17.1616 6.80191 17.0767 6.90331 16.9892C6.91221 16.9815 6.92297 16.9766 6.93438 16.975C6.9458 16.9733 6.95742 16.9751 6.96794 16.9801C10.241 18.5485 13.7846 18.5485 17.019 16.9801C17.0295 16.9748 17.0413 16.9728 17.0529 16.9743C17.0644 16.9757 17.0754 16.9806 17.0844 16.9884C17.1859 17.0763 17.2895 17.1616 17.395 17.2441C17.4035 17.2507 17.4102 17.2594 17.4147 17.2694C17.4192 17.2794 17.4212 17.2904 17.4207 17.3015C17.4201 17.3125 17.417 17.3232 17.4116 17.3327C17.4061 17.3422 17.3986 17.3501 17.3895 17.3557C16.8911 17.6613 16.3689 17.9221 15.8286 18.1354C15.8203 18.1387 15.8126 18.1439 15.8063 18.1506C15.7999 18.1572 15.795 18.1652 15.7918 18.174C15.7886 18.1828 15.7872 18.1922 15.7877 18.2016C15.7881 18.2111 15.7905 18.2203 15.7946 18.2286C16.0939 18.8352 16.4351 19.4179 16.8155 19.972C16.8232 19.9834 16.8342 19.9919 16.8468 19.9964C16.8594 20.0009 16.873 20.0011 16.8857 19.997C18.6845 19.4191 20.3761 18.5231 21.8878 17.3475C21.8952 17.3419 21.9013 17.3347 21.9058 17.3263C21.9103 17.318 21.913 17.3088 21.9138 17.2992C22.331 12.7713 21.2155 8.83807 18.9569 5.35131ZM8.68339 14.9136C7.69794 14.9136 6.88597 13.9641 6.88597 12.7979C6.88597 11.6318 7.68219 10.6822 8.68339 10.6822C9.6924 10.6822 10.4965 11.64 10.4808 12.7979C10.4808 13.9641 9.68451 14.9136 8.68339 14.9136ZM15.329 14.9136C14.3436 14.9136 13.5316 13.9641 13.5316 12.7979C13.5316 11.6318 14.3278 10.6822 15.329 10.6822C16.3381 10.6822 17.1422 11.64 17.1264 12.7979C17.1264 13.9641 16.3381 14.9136 15.329 14.9136Z" fill="white"/>
</svg>
