<svg width="24" height="24" viewBox="0 0 24 24" fill="none" xmlns="http://www.w3.org/2000/svg">
<path d="M15.2193 15.3334C14.4658 15.3334 13.8333 14.6981 13.8333 13.9153C13.8333 13.1324 14.4658 12.4762 15.2193 12.4762C15.9728 12.4762 16.5833 13.1324 16.5833 13.9153C16.5833 14.6981 15.9728 15.3334 15.2193 15.3334ZM15.497 18.1419C14.7573 18.8153 13.6179 19.1429 12.011 19.1429H11.9881C10.3821 19.1429 9.24265 18.8153 8.50381 18.1419C8.45048 18.0966 8.40752 18.0394 8.37802 17.9747C8.34852 17.91 8.33321 17.8393 8.33321 17.7677C8.33321 17.696 8.34852 17.6253 8.37802 17.5606C8.40752 17.4959 8.45048 17.4387 8.50381 17.3934C8.61881 17.2933 8.76402 17.2385 8.91402 17.2385C9.06402 17.2385 9.20923 17.2933 9.32423 17.3934C9.8339 17.8581 10.7057 18.0848 11.9881 18.0848H12.011C13.2943 18.0848 14.1661 17.8581 14.6766 17.3934C14.7916 17.2931 14.9368 17.2382 15.0868 17.2382C15.2369 17.2382 15.3821 17.2931 15.497 17.3934C15.5501 17.4389 15.5928 17.4961 15.6221 17.5608C15.6514 17.6255 15.6666 17.6961 15.6666 17.7677C15.6666 17.8392 15.6514 17.9098 15.6221 17.9745C15.5928 18.0392 15.5501 18.0964 15.497 18.1419ZM7.41666 13.9143C7.41666 13.1334 8.04916 12.4762 8.80173 12.4762C9.55523 12.4762 10.1666 13.1334 10.1666 13.9153C10.1664 14.2913 10.0225 14.6518 9.76659 14.9177C9.51068 15.1836 9.16365 15.3331 8.80173 15.3333C8.04914 15.3333 7.41666 14.6972 7.41666 13.9143ZM22.9999 11.7848C22.9999 10.2086 21.8138 8.92762 20.3563 8.92762C19.7247 8.92762 19.1454 9.16762 18.6898 9.56856C17.0783 8.47333 15.0323 7.81333 12.8387 7.67333L13.9827 3.7638L17.1269 4.5638C17.2094 5.8019 18.1664 6.78094 19.3315 6.78094C20.5506 6.78094 21.5425 5.70855 21.5425 4.39047C21.5425 3.07239 20.5506 2 19.3315 2C18.479 2 17.7374 2.52382 17.3689 3.29049L13.7141 2.36192C13.5646 2.32607 13.4075 2.35137 13.2754 2.43258C13.1433 2.51378 13.0464 2.64466 13.0046 2.7981L11.5838 7.65146C9.22065 7.71336 6.99956 8.37525 5.26891 9.53525C4.81075 9.14351 4.2361 8.9288 3.64274 8.92764C2.18617 8.92668 1 10.2095 1 11.7848C1 12.7591 1.45375 13.621 2.1449 14.1371C2.11575 14.3645 2.10106 14.5935 2.10092 14.8229C2.10092 16.7924 3.15967 18.6257 5.08374 19.9819C6.92716 21.2838 9.36823 22 11.9551 22C14.5419 22 16.983 21.2838 18.8273 19.9819C20.7505 18.6257 21.8101 16.7924 21.8101 14.8229C21.8101 14.6124 21.7964 14.4038 21.7735 14.1962C22.1534 13.9305 22.4642 13.5713 22.6782 13.1505C22.8922 12.7298 23.0027 12.2606 22.9999 11.7848Z" fill="white"/>
</svg>
