<svg width="30" height="30" viewBox="0 0 30 30" fill="none" xmlns="http://www.w3.org/2000/svg">
<path d="M25.0091 10.0977C24.8913 18.9792 19.2118 25.0626 10.7336 25.4446C7.2373 25.6047 4.70436 24.4753 2.5 23.0749C5.08408 23.4874 8.28833 22.4544 10.002 20.9874C7.46909 20.7411 5.96942 19.4518 5.26771 17.3769C5.99964 17.5035 6.77072 17.4699 7.46608 17.3226C5.1804 16.5575 3.54821 15.1448 3.46388 12.1847C4.10528 12.4767 4.77392 12.7512 5.66224 12.8053C3.95167 11.8324 2.6868 8.2756 4.1355 5.92366C6.67424 8.70634 9.72805 10.9771 14.7425 11.2843C13.4835 5.90258 20.6151 2.98424 23.5999 6.60127C24.8616 6.35718 25.8886 5.87848 26.8765 5.35746C26.4699 6.60723 25.6868 7.48062 24.7323 8.17932C25.7801 8.03786 26.7076 7.78181 27.5 7.3903C27.0085 8.41127 25.9337 9.32682 25.0091 10.0977Z" fill="#454545"/>
</svg>
