<svg width="44" height="44" viewBox="0 0 44 44" fill="none" xmlns="http://www.w3.org/2000/svg">
<rect width="44" height="44" rx="22" fill="#030303" fill-opacity="0.04"/>
<path d="M28.9569 15.3513C28.9513 15.34 28.9421 15.3311 28.9309 15.3263C27.6342 14.7016 26.2658 14.2562 24.8599 14.0011C24.8472 13.9986 24.834 14.0004 24.8222 14.0062C24.8105 14.0121 24.8008 14.0216 24.7945 14.0336C24.6082 14.3887 24.439 14.7534 24.2877 15.1265C22.7723 14.8849 21.2308 14.8849 19.7154 15.1265C19.5631 14.7525 19.3912 14.3877 19.2006 14.0336C19.1941 14.0219 19.1843 14.0125 19.1726 14.0068C19.161 14.001 19.1479 13.999 19.1352 14.0011C17.7292 14.2556 16.3607 14.7011 15.0641 15.3263C15.053 15.3313 15.0437 15.3397 15.0373 15.3505C12.4445 19.4161 11.7342 23.3818 12.0826 27.2984C12.0836 27.308 12.0864 27.3173 12.0909 27.3257C12.0954 27.3342 12.1014 27.3416 12.1087 27.3475C13.6185 28.5213 15.3072 29.4172 17.1027 29.9971C17.1154 30.0011 17.1289 30.0009 17.1414 29.9966C17.154 29.9923 17.165 29.9841 17.1729 29.973C17.5586 29.422 17.9003 28.8386 18.1946 28.2286C18.1986 28.2203 18.2009 28.2111 18.2013 28.2017C18.2018 28.1923 18.2003 28.183 18.197 28.1742C18.1937 28.1655 18.1887 28.1576 18.1824 28.151C18.176 28.1445 18.1683 28.1394 18.1599 28.1362C17.6211 27.9197 17.0994 27.6587 16.5998 27.3557C16.5907 27.3501 16.5831 27.3423 16.5776 27.3328C16.5721 27.3234 16.5689 27.3127 16.5683 27.3017C16.5676 27.2906 16.5696 27.2796 16.574 27.2696C16.5784 27.2595 16.5851 27.2508 16.5935 27.2441C16.6986 27.1616 16.8019 27.0767 16.9033 26.9892C16.9122 26.9815 16.923 26.9766 16.9344 26.975C16.9458 26.9733 16.9574 26.9751 16.9679 26.9801C20.241 28.5485 23.7846 28.5485 27.019 26.9801C27.0295 26.9748 27.0413 26.9728 27.0529 26.9743C27.0644 26.9757 27.0754 26.9806 27.0844 26.9884C27.1859 27.0763 27.2895 27.1616 27.395 27.2441C27.4035 27.2507 27.4102 27.2594 27.4147 27.2694C27.4192 27.2794 27.4212 27.2904 27.4207 27.3015C27.4201 27.3125 27.417 27.3232 27.4116 27.3327C27.4061 27.3422 27.3986 27.3501 27.3895 27.3557C26.8911 27.6613 26.3689 27.9221 25.8286 28.1354C25.8203 28.1387 25.8126 28.1439 25.8063 28.1506C25.7999 28.1572 25.795 28.1652 25.7918 28.174C25.7886 28.1828 25.7872 28.1922 25.7877 28.2016C25.7881 28.2111 25.7905 28.2203 25.7946 28.2286C26.0939 28.8352 26.4351 29.4179 26.8155 29.972C26.8232 29.9834 26.8342 29.9919 26.8468 29.9964C26.8594 30.0009 26.873 30.0011 26.8857 29.997C28.6845 29.4191 30.3761 28.5231 31.8878 27.3475C31.8952 27.3419 31.9013 27.3347 31.9058 27.3263C31.9103 27.318 31.913 27.3088 31.9138 27.2992C32.331 22.7713 31.2155 18.8381 28.9569 15.3513ZM18.6834 24.9136C17.6979 24.9136 16.886 23.9641 16.886 22.7979C16.886 21.6318 17.6822 20.6822 18.6834 20.6822C19.6924 20.6822 20.4965 21.64 20.4808 22.7979C20.4808 23.9641 19.6845 24.9136 18.6834 24.9136ZM25.329 24.9136C24.3436 24.9136 23.5316 23.9641 23.5316 22.7979C23.5316 21.6318 24.3278 20.6822 25.329 20.6822C26.3381 20.6822 27.1422 21.64 27.1264 22.7979C27.1264 23.9641 26.3381 24.9136 25.329 24.9136Z" fill="#626262"/>
</svg>
