<svg width="44" height="44" viewBox="0 0 44 44" fill="none" xmlns="http://www.w3.org/2000/svg">
<rect width="44" height="44" rx="22" fill="#7D47FF"/>
<path d="M30.0072 18.0782C29.913 25.1834 25.3694 30.0501 18.5869 30.3557C15.7898 30.4838 13.7635 29.5802 12 28.4599C14.0673 28.7899 16.6307 27.9636 18.0016 26.79C15.9753 26.5928 14.7755 25.5614 14.2142 23.9015C14.7997 24.0028 15.4166 23.9759 15.9729 23.8581C14.1443 23.246 12.8386 22.1159 12.7711 19.7478C13.2842 19.9814 13.8191 20.201 14.5298 20.2443C13.1613 19.4659 12.1494 16.6205 13.3084 14.7389C15.3394 16.9651 17.7824 18.7817 21.794 19.0274C20.7868 14.7221 26.4921 12.3874 28.8799 15.281C29.8893 15.0857 30.7109 14.7028 31.5012 14.286C31.1759 15.2858 30.5495 15.9845 29.7858 16.5435C30.6241 16.4303 31.3661 16.2254 32 15.9122C31.6068 16.729 30.747 17.4615 30.0072 18.0782Z" fill="white"/>
</svg>
