<svg width="24" height="24" viewBox="0 0 24 24" fill="none" xmlns="http://www.w3.org/2000/svg">
<mask id="path-1-inside-1_90_1015" fill="white">
<path fill-rule="evenodd" clip-rule="evenodd" d="M21.023 11.5453C21.0228 11.6967 21.0227 11.8482 21.0227 11.9999C21.0227 12.1696 21.0229 12.339 21.0232 12.5083C21.0248 13.5792 21.0263 14.6437 20.9641 15.7149C20.8943 17.1559 20.5679 18.4325 19.5119 19.4885C18.4582 20.5422 17.1793 20.8709 15.7384 20.9407C14.6492 21.002 13.567 21.0008 12.478 20.9996C12.3266 20.9994 12.1751 20.9992 12.0234 20.9992C11.872 20.9992 11.7208 20.9994 11.5696 20.9996C10.4821 21.0008 9.39957 21.002 8.3084 20.9407C6.86743 20.8709 5.59083 20.5444 4.53487 19.4885C3.48116 18.4348 3.15244 17.1559 3.08265 15.7149C3.02137 14.6257 3.02257 13.5417 3.02377 12.4538C3.02394 12.3026 3.02411 12.1513 3.02411 11.9999C3.02411 11.8486 3.02394 11.6973 3.02377 11.5461C3.02257 10.4586 3.02137 9.37613 3.08265 8.28496C3.15244 6.84399 3.47891 5.56739 4.53487 4.51143C5.58858 3.45773 6.86743 3.12901 8.3084 3.05921C9.39756 2.99793 10.4798 2.99913 11.5688 3.00033C11.7202 3.0005 11.8717 3.00067 12.0234 3.00067C12.1748 3.00067 12.326 3.0005 12.4772 3.00033C13.5647 2.99913 14.6472 2.99793 15.7384 3.05921C17.1793 3.12901 18.4559 3.45547 19.5119 4.51143C20.5656 5.56514 20.8943 6.84399 20.9641 8.28496C21.0254 9.3741 21.0242 10.4563 21.023 11.5453ZM18.3614 18.3402C18.6788 18.025 18.877 17.7188 19.0413 17.309C19.446 16.2905 19.4244 14.0679 19.4104 12.6307C19.4082 12.3968 19.4061 12.1837 19.4061 11.9999C19.4061 11.8157 19.4082 11.6018 19.4105 11.3669C19.4245 9.92919 19.4462 7.70666 19.0436 6.68864C18.8792 6.27887 18.6811 5.97491 18.3636 5.65745C18.0484 5.33999 17.7422 5.14185 17.3324 4.97749C16.3144 4.57493 14.0919 4.5966 12.6541 4.61063C12.4193 4.61292 12.2054 4.615 12.0211 4.615C11.8368 4.615 11.623 4.61292 11.3881 4.61063C9.95037 4.5966 7.72785 4.57493 6.70983 4.97749C6.30005 5.14185 5.9961 5.34224 5.67864 5.65745C5.36117 5.97266 5.16304 6.27887 4.99868 6.68864C4.59612 7.70666 4.61779 9.92919 4.63181 11.3669C4.6341 11.6018 4.63619 11.8157 4.63619 11.9999C4.63619 12.1843 4.6341 12.3981 4.63181 12.6329C4.61779 14.0702 4.59612 16.2913 4.99868 17.3113C5.16304 17.721 5.36117 18.025 5.67864 18.3424C5.99385 18.6599 6.30005 18.858 6.70983 19.0224C7.72785 19.425 9.95037 19.4033 11.3881 19.3893C11.623 19.387 11.8368 19.3849 12.0211 19.3849C12.2049 19.3849 12.418 19.387 12.6519 19.3892C14.0891 19.4032 16.3117 19.4248 17.3302 19.0201C17.74 18.8558 18.0439 18.6577 18.3614 18.3402ZM7.40625 11.9999C7.40625 9.44443 9.46863 7.38205 12.0241 7.38205C14.5796 7.38205 16.6419 9.44443 16.6419 11.9999C16.6419 14.5554 14.5796 16.6177 12.0241 16.6177C9.46863 16.6177 7.40625 14.5554 7.40625 11.9999ZM9.02283 11.9999C9.02283 13.6525 10.3715 15.0012 12.0241 15.0012C13.6767 15.0012 15.0254 13.6525 15.0254 11.9999C15.0254 10.3473 13.6767 8.99863 12.0241 8.99863C10.3715 8.99863 9.02283 10.3473 9.02283 11.9999ZM15.7526 7.19517C15.7526 6.59852 16.2344 6.1167 16.8311 6.1167C17.4277 6.1167 17.9073 6.59627 17.9095 7.19517C17.9095 7.79407 17.4277 8.27364 16.8311 8.27364C16.2344 8.27364 15.7526 7.79182 15.7526 7.19517Z"/>
</mask>
<path fill-rule="evenodd" clip-rule="evenodd" d="M21.023 11.5453C21.0228 11.6967 21.0227 11.8482 21.0227 11.9999C21.0227 12.1696 21.0229 12.339 21.0232 12.5083C21.0248 13.5792 21.0263 14.6437 20.9641 15.7149C20.8943 17.1559 20.5679 18.4325 19.5119 19.4885C18.4582 20.5422 17.1793 20.8709 15.7384 20.9407C14.6492 21.002 13.567 21.0008 12.478 20.9996C12.3266 20.9994 12.1751 20.9992 12.0234 20.9992C11.872 20.9992 11.7208 20.9994 11.5696 20.9996C10.4821 21.0008 9.39957 21.002 8.3084 20.9407C6.86743 20.8709 5.59083 20.5444 4.53487 19.4885C3.48116 18.4348 3.15244 17.1559 3.08265 15.7149C3.02137 14.6257 3.02257 13.5417 3.02377 12.4538C3.02394 12.3026 3.02411 12.1513 3.02411 11.9999C3.02411 11.8486 3.02394 11.6973 3.02377 11.5461C3.02257 10.4586 3.02137 9.37613 3.08265 8.28496C3.15244 6.84399 3.47891 5.56739 4.53487 4.51143C5.58858 3.45773 6.86743 3.12901 8.3084 3.05921C9.39756 2.99793 10.4798 2.99913 11.5688 3.00033C11.7202 3.0005 11.8717 3.00067 12.0234 3.00067C12.1748 3.00067 12.326 3.0005 12.4772 3.00033C13.5647 2.99913 14.6472 2.99793 15.7384 3.05921C17.1793 3.12901 18.4559 3.45547 19.5119 4.51143C20.5656 5.56514 20.8943 6.84399 20.9641 8.28496C21.0254 9.3741 21.0242 10.4563 21.023 11.5453ZM18.3614 18.3402C18.6788 18.025 18.877 17.7188 19.0413 17.309C19.446 16.2905 19.4244 14.0679 19.4104 12.6307C19.4082 12.3968 19.4061 12.1837 19.4061 11.9999C19.4061 11.8157 19.4082 11.6018 19.4105 11.3669C19.4245 9.92919 19.4462 7.70666 19.0436 6.68864C18.8792 6.27887 18.6811 5.97491 18.3636 5.65745C18.0484 5.33999 17.7422 5.14185 17.3324 4.97749C16.3144 4.57493 14.0919 4.5966 12.6541 4.61063C12.4193 4.61292 12.2054 4.615 12.0211 4.615C11.8368 4.615 11.623 4.61292 11.3881 4.61063C9.95037 4.5966 7.72785 4.57493 6.70983 4.97749C6.30005 5.14185 5.9961 5.34224 5.67864 5.65745C5.36117 5.97266 5.16304 6.27887 4.99868 6.68864C4.59612 7.70666 4.61779 9.92919 4.63181 11.3669C4.6341 11.6018 4.63619 11.8157 4.63619 11.9999C4.63619 12.1843 4.6341 12.3981 4.63181 12.6329C4.61779 14.0702 4.59612 16.2913 4.99868 17.3113C5.16304 17.721 5.36117 18.025 5.67864 18.3424C5.99385 18.6599 6.30005 18.858 6.70983 19.0224C7.72785 19.425 9.95037 19.4033 11.3881 19.3893C11.623 19.387 11.8368 19.3849 12.0211 19.3849C12.2049 19.3849 12.418 19.387 12.6519 19.3892C14.0891 19.4032 16.3117 19.4248 17.3302 19.0201C17.74 18.8558 18.0439 18.6577 18.3614 18.3402ZM7.40625 11.9999C7.40625 9.44443 9.46863 7.38205 12.0241 7.38205C14.5796 7.38205 16.6419 9.44443 16.6419 11.9999C16.6419 14.5554 14.5796 16.6177 12.0241 16.6177C9.46863 16.6177 7.40625 14.5554 7.40625 11.9999ZM9.02283 11.9999C9.02283 13.6525 10.3715 15.0012 12.0241 15.0012C13.6767 15.0012 15.0254 13.6525 15.0254 11.9999C15.0254 10.3473 13.6767 8.99863 12.0241 8.99863C10.3715 8.99863 9.02283 10.3473 9.02283 11.9999ZM15.7526 7.19517C15.7526 6.59852 16.2344 6.1167 16.8311 6.1167C17.4277 6.1167 17.9073 6.59627 17.9095 7.19517C17.9095 7.79407 17.4277 8.27364 16.8311 8.27364C16.2344 8.27364 15.7526 7.79182 15.7526 7.19517Z" fill="white"/>
<path d="M21.023 11.5453L23.023 11.5475V11.5475L21.023 11.5453ZM21.0232 12.5083L23.0232 12.5053V12.5053L21.0232 12.5083ZM20.9641 15.7149L18.9675 15.599L18.9669 15.6086L18.9665 15.6182L20.9641 15.7149ZM19.5119 19.4885L18.0977 18.0742V18.0742L19.5119 19.4885ZM15.7384 20.9407L15.6416 18.943L15.6338 18.9434L15.626 18.9438L15.7384 20.9407ZM12.478 20.9996L12.4758 22.9996H12.4758L12.478 20.9996ZM11.5696 20.9996L11.5718 22.9996H11.5718L11.5696 20.9996ZM8.3084 20.9407L8.42054 18.9438L8.41285 18.9434L8.40516 18.943L8.3084 20.9407ZM4.53487 19.4885L5.94908 18.0742L5.94908 18.0742L4.53487 19.4885ZM3.08265 15.7149L5.0803 15.6182L5.07993 15.6104L5.07949 15.6026L3.08265 15.7149ZM3.02377 12.4538L1.02377 12.4516L3.02377 12.4538ZM3.02377 11.5461L1.02377 11.5484L3.02377 11.5461ZM3.08265 8.28496L5.0795 8.3971L5.07993 8.38941L5.0803 8.38172L3.08265 8.28496ZM4.53487 4.51143L5.94908 5.92565L4.53487 4.51143ZM8.3084 3.05921L8.40516 5.05687L8.41295 5.05649L8.42074 5.05605L8.3084 3.05921ZM11.5688 3.00033L11.5666 5.00033L11.5688 3.00033ZM12.4772 3.00033L12.475 1.00034L12.4772 3.00033ZM15.7384 3.05921L15.6262 5.05606L15.6339 5.05649L15.6416 5.05687L15.7384 3.05921ZM19.5119 4.51143L18.0977 5.92564L18.0977 5.92565L19.5119 4.51143ZM20.9641 8.28496L18.9665 8.38172L18.9668 8.38951L18.9673 8.39731L20.9641 8.28496ZM19.0413 17.309L20.8976 18.0535L20.9 18.0475L19.0413 17.309ZM18.3614 18.3402L16.9522 16.9209L16.9472 16.926L18.3614 18.3402ZM19.4104 12.6307L17.4105 12.6502V12.6502L19.4104 12.6307ZM19.4105 11.3669L21.4104 11.3865V11.3864L19.4105 11.3669ZM19.0436 6.68864L20.9035 5.95317L20.8998 5.9441L19.0436 6.68864ZM18.3636 5.65745L16.9444 7.06663L16.9494 7.07166L18.3636 5.65745ZM17.3324 4.97749L18.077 3.12122L18.0679 3.11763L17.3324 4.97749ZM12.6541 4.61063L12.6346 2.61072L12.6541 4.61063ZM11.3881 4.61063L11.4076 2.61072L11.3881 4.61063ZM6.70983 4.97749L5.97436 3.11761L5.96529 3.12124L6.70983 4.97749ZM5.67864 5.65745L4.26946 4.23821L4.26946 4.23821L5.67864 5.65745ZM4.99868 6.68864L3.14241 5.94409L3.13882 5.95318L4.99868 6.68864ZM4.63181 11.3669L2.63191 11.3864L4.63181 11.3669ZM4.63181 12.6329L2.63191 12.6134L4.63181 12.6329ZM4.99868 17.3113L3.13831 18.0455L3.14243 18.0558L4.99868 17.3113ZM5.67864 18.3424L7.09788 16.9333L7.09285 16.9282L5.67864 18.3424ZM6.70983 19.0224L5.96528 20.8787L5.97437 20.8823L6.70983 19.0224ZM11.3881 19.3893L11.4076 21.3892H11.4076L11.3881 19.3893ZM12.6519 19.3892L12.6714 17.3893H12.6714L12.6519 19.3892ZM17.3302 19.0201L18.0687 20.8788L18.0747 20.8764L17.3302 19.0201ZM17.9095 7.19517H19.9096L19.9095 7.18765L17.9095 7.19517ZM23.0227 11.9999C23.0227 11.8495 23.0228 11.6991 23.023 11.5475L19.023 11.5431C19.0228 11.6943 19.0227 11.8469 19.0227 11.9999H23.0227ZM23.0232 12.5053C23.0229 12.3358 23.0227 12.1679 23.0227 11.9999H19.0227C19.0227 12.1713 19.0229 12.3422 19.0232 12.5113L23.0232 12.5053ZM22.9608 15.8309C23.027 14.6904 23.0247 13.5665 23.0232 12.5053L19.0232 12.5113C19.0248 13.5918 19.0257 14.597 18.9675 15.599L22.9608 15.8309ZM20.9261 20.9027C22.4755 19.3533 22.8799 17.5032 22.9618 15.8117L18.9665 15.6182C18.9088 16.8086 18.6602 17.5117 18.0977 18.0742L20.9261 20.9027ZM15.8351 22.9383C17.5275 22.8564 19.3794 22.4494 20.9261 20.9027L18.0977 18.0742C17.537 18.635 16.8312 18.8854 15.6416 18.943L15.8351 22.9383ZM12.4758 22.9996C13.5554 23.0008 14.6949 23.0026 15.8507 22.9375L15.626 18.9438C14.6036 19.0014 13.5785 19.0008 12.4802 18.9996L12.4758 22.9996ZM12.0234 22.9992C12.1738 22.9992 12.3242 22.9994 12.4758 22.9996L12.4802 18.9996C12.329 18.9994 12.1764 18.9992 12.0234 18.9992V22.9992ZM11.5718 22.9996C11.7232 22.9994 11.8733 22.9992 12.0234 22.9992V18.9992C11.8707 18.9992 11.7184 18.9994 11.5674 18.9996L11.5718 22.9996ZM8.19625 22.9375C9.35397 23.0026 10.4935 23.0008 11.5718 22.9996L11.5674 18.9996C10.4706 19.0008 9.44517 19.0014 8.42054 18.9438L8.19625 22.9375ZM3.12066 20.9027C4.67003 22.452 6.52014 22.8564 8.21164 22.9383L8.40516 18.943C7.21473 18.8854 6.51163 18.6368 5.94908 18.0742L3.12066 20.9027ZM1.08499 15.8117C1.16696 17.5041 1.57395 19.356 3.12066 20.9027L5.94908 18.0742C5.38838 17.5135 5.13792 16.8077 5.0803 15.6182L1.08499 15.8117ZM1.02377 12.4516C1.02258 13.5301 1.02077 14.6714 1.0858 15.8273L5.07949 15.6026C5.02196 14.5801 5.02256 13.5533 5.02377 12.456L1.02377 12.4516ZM1.02411 11.9999C1.02411 12.15 1.02394 12.3002 1.02377 12.4516L5.02377 12.456C5.02394 12.305 5.02411 12.1526 5.02411 11.9999H1.02411ZM1.02377 11.5484C1.02394 11.6997 1.02411 11.8499 1.02411 11.9999H5.02411C5.02411 11.8473 5.02394 11.6949 5.02377 11.5439L1.02377 11.5484ZM1.08579 8.17282C1.02078 9.33053 1.02258 10.4701 1.02377 11.5484L5.02377 11.5439C5.02256 10.4472 5.02196 9.42173 5.0795 8.3971L1.08579 8.17282ZM3.12066 3.09722C1.57129 4.64659 1.16692 6.4967 1.08499 8.1882L5.0803 8.38172C5.13797 7.19129 5.38654 6.48819 5.94908 5.92565L3.12066 3.09722ZM8.21164 1.06155C6.51926 1.14353 4.66736 1.55051 3.12066 3.09722L5.94908 5.92565C6.50979 5.36494 7.21561 5.11449 8.40516 5.05687L8.21164 1.06155ZM11.571 1.00034C10.4913 0.999141 9.3519 0.997337 8.19605 1.06237L8.42074 5.05605C9.44321 4.99853 10.4682 4.99912 11.5666 5.00033L11.571 1.00034ZM12.0234 1.00067C11.873 1.00067 11.7226 1.0005 11.571 1.00034L11.5666 5.00033C11.7178 5.0005 11.8704 5.00067 12.0234 5.00067V1.00067ZM12.475 1.00034C12.3236 1.0005 12.1735 1.00067 12.0234 1.00067V5.00067C12.1761 5.00067 12.3284 5.0005 12.4794 5.00033L12.475 1.00034ZM15.8505 1.06236C14.6928 0.997339 13.5533 0.999141 12.475 1.00034L12.4794 5.00033C13.5761 4.99912 14.6016 4.99852 15.6262 5.05606L15.8505 1.06236ZM20.9261 3.09722C19.3767 1.54785 17.5266 1.14348 15.8351 1.06155L15.6416 5.05687C16.832 5.11453 17.5351 5.3631 18.0977 5.92564L20.9261 3.09722ZM22.9618 8.1882C22.8798 6.49582 22.4728 4.64392 20.9261 3.09722L18.0977 5.92565C18.6584 6.48635 18.9089 7.19217 18.9665 8.38172L22.9618 8.1882ZM23.023 11.5475C23.0242 10.4678 23.026 9.32845 22.961 8.17261L18.9673 8.39731C19.0248 9.41976 19.0242 10.4448 19.023 11.5431L23.023 11.5475ZM17.1851 16.5645C17.1179 16.732 17.0681 16.8059 16.9522 16.921L19.7706 19.7594C20.2896 19.2441 20.6361 18.7055 20.8976 18.0535L17.1851 16.5645ZM17.4105 12.6502C17.4176 13.3781 17.4253 14.2334 17.3854 15.0263C17.3417 15.8956 17.2496 16.4021 17.1827 16.5705L20.9 18.0475C21.2378 17.1974 21.3373 16.0834 21.3804 15.2274C21.4273 14.2951 21.4172 13.3206 21.4103 12.6112L17.4105 12.6502ZM17.4061 11.9999C17.4061 12.1954 17.4083 12.4192 17.4105 12.6502L21.4103 12.6113C21.408 12.3744 21.4061 12.1719 21.4061 11.9999H17.4061ZM17.4106 11.3474C17.4083 11.5793 17.4061 11.8039 17.4061 11.9999H21.4061C21.4061 11.8274 21.408 11.6242 21.4104 11.3865L17.4106 11.3474ZM17.1837 7.4241C17.2506 7.59331 17.3422 8.10082 17.3857 8.97031C17.4254 9.76354 17.4177 10.6193 17.4106 11.3474L21.4104 11.3864C21.4173 10.6768 21.4274 9.70245 21.3807 8.77047C21.3379 7.91476 21.2391 6.80199 20.9035 5.95318L17.1837 7.4241ZM16.9494 7.07166C17.0726 7.19484 17.1219 7.26995 17.1873 7.43318L20.8998 5.9441C20.6366 5.28778 20.2896 4.75498 19.7778 4.24324L16.9494 7.07166ZM16.5879 6.83374C16.7555 6.90095 16.8293 6.9507 16.9444 7.06662L19.7829 4.24828C19.2676 3.72928 18.729 3.38276 18.077 3.12124L16.5879 6.83374ZM12.6736 6.61053C13.4018 6.60343 14.2575 6.59566 15.0508 6.63534C15.9203 6.67884 16.4278 6.77045 16.597 6.83736L18.0679 3.11763C17.2191 2.78198 16.1063 2.68314 15.2506 2.64034C14.3186 2.59372 13.3443 2.6038 12.6346 2.61072L12.6736 6.61053ZM12.0211 6.615C12.2172 6.615 12.4417 6.61279 12.6736 6.61053L12.6346 2.61072C12.3969 2.61304 12.1937 2.615 12.0211 2.615V6.615ZM11.3686 6.61053C11.6005 6.61279 11.8251 6.615 12.0211 6.615V2.615C11.8486 2.615 11.6454 2.61304 11.4076 2.61072L11.3686 6.61053ZM7.44529 6.83736C7.6145 6.77045 8.122 6.67884 8.9915 6.63534C9.78472 6.59566 10.6405 6.60343 11.3686 6.61053L11.4076 2.61072C10.698 2.6038 9.72364 2.59372 8.79166 2.64034C7.93595 2.68314 6.82318 2.78198 5.97437 3.11763L7.44529 6.83736ZM7.08781 7.07669C7.2177 6.94772 7.29638 6.89711 7.45437 6.83374L5.96529 3.12124C5.30372 3.3866 4.7745 3.73676 4.26946 4.23821L7.08781 7.07669ZM6.85493 7.43318C6.92213 7.26563 6.97188 7.19179 7.08781 7.07669L4.26946 4.23821C3.75046 4.75353 3.40395 5.2921 3.14243 5.9441L6.85493 7.43318ZM6.63172 11.3474C6.62462 10.6193 6.61685 9.76354 6.65653 8.97031C6.70002 8.10082 6.79163 7.59331 6.85855 7.4241L3.13882 5.95318C2.80316 6.80199 2.70433 7.91476 2.66152 8.77047C2.6149 9.70245 2.62499 10.6768 2.63191 11.3864L6.63172 11.3474ZM6.63619 11.9999C6.63619 11.8039 6.63398 11.5793 6.63172 11.3474L2.63191 11.3864C2.63422 11.6242 2.63619 11.8274 2.63619 11.9999H6.63619ZM6.63172 12.6524C6.63398 12.4206 6.63619 12.196 6.63619 11.9999H2.63619C2.63619 12.1725 2.63422 12.3757 2.63191 12.6134L6.63172 12.6524ZM6.85902 16.577C6.79154 16.406 6.7 15.8975 6.65653 15.0287C6.61685 14.2356 6.62461 13.3803 6.63172 12.6524L2.63191 12.6134C2.62499 13.3228 2.61491 14.2967 2.66153 15.2285C2.70436 16.0846 2.80326 17.1965 3.13834 18.0455L6.85902 16.577ZM7.09285 16.9282C6.96967 16.8051 6.9204 16.7299 6.85493 16.5667L3.14243 18.0558C3.40568 18.7121 3.75268 19.2449 4.26442 19.7567L7.09285 16.9282ZM7.45437 17.1662C7.28682 17.0989 7.21298 17.0492 7.09787 16.9333L4.2594 19.7516C4.77472 20.2706 5.31329 20.6171 5.96529 20.8787L7.45437 17.1662ZM11.3686 17.3894C10.6405 17.3965 9.78472 17.4042 8.9915 17.3646C8.122 17.3211 7.6145 17.2294 7.44529 17.1625L5.97437 20.8823C6.82318 21.2179 7.93594 21.3168 8.79166 21.3596C9.72364 21.4062 10.698 21.3961 11.4076 21.3892L11.3686 17.3894ZM12.0211 17.3849C11.8251 17.3849 11.6005 17.3871 11.3686 17.3894L11.4076 21.3892C11.6454 21.3869 11.8486 21.3849 12.0211 21.3849V17.3849ZM12.6714 17.3893C12.4403 17.3871 12.2166 17.3849 12.0211 17.3849V21.3849C12.1931 21.3849 12.3956 21.3868 12.6324 21.3891L12.6714 17.3893ZM16.5917 17.1615C16.4233 17.2284 15.9168 17.3205 15.0475 17.3642C14.2546 17.4042 13.3993 17.3964 12.6714 17.3893L12.6324 21.3891C13.3418 21.396 14.3163 21.4061 15.2486 21.3592C16.1046 21.3161 17.2186 21.2166 18.0687 20.8788L16.5917 17.1615ZM16.9472 16.926C16.824 17.0492 16.7489 17.0984 16.5857 17.1639L18.0747 20.8764C18.731 20.6131 19.2638 20.2662 19.7756 19.7544L16.9472 16.926ZM12.0241 5.38205C8.36406 5.38205 5.40625 8.33986 5.40625 11.9999H9.40625C9.40625 10.549 10.5732 9.38205 12.0241 9.38205V5.38205ZM18.6419 11.9999C18.6419 8.33986 15.6841 5.38205 12.0241 5.38205V9.38205C13.475 9.38205 14.6419 10.549 14.6419 11.9999H18.6419ZM12.0241 18.6177C15.6841 18.6177 18.6419 15.6599 18.6419 11.9999H14.6419C14.6419 13.4508 13.475 14.6177 12.0241 14.6177V18.6177ZM5.40625 11.9999C5.40625 15.6599 8.36406 18.6177 12.0241 18.6177V14.6177C10.5732 14.6177 9.40625 13.4508 9.40625 11.9999H5.40625ZM12.0241 13.0012C11.4761 13.0012 11.0228 12.5479 11.0228 11.9999H7.02283C7.02283 14.7571 9.26692 17.0012 12.0241 17.0012V13.0012ZM13.0254 11.9999C13.0254 12.5479 12.5721 13.0012 12.0241 13.0012V17.0012C14.7813 17.0012 17.0254 14.7571 17.0254 11.9999H13.0254ZM12.0241 10.9986C12.5721 10.9986 13.0254 11.4519 13.0254 11.9999H17.0254C17.0254 9.24271 14.7813 6.99863 12.0241 6.99863V10.9986ZM11.0228 11.9999C11.0228 11.4519 11.4761 10.9986 12.0241 10.9986V6.99863C9.26692 6.99863 7.02283 9.24271 7.02283 11.9999H11.0228ZM16.8311 4.1167C15.1298 4.1167 13.7526 5.49395 13.7526 7.19517H17.7526C17.7526 7.70309 17.339 8.1167 16.8311 8.1167V4.1167ZM19.9095 7.18765C19.9032 5.49421 18.5364 4.1167 16.8311 4.1167V8.1167C16.319 8.1167 15.9114 7.69833 15.9096 7.20269L19.9095 7.18765ZM16.8311 10.2736C18.5296 10.2736 19.9095 8.90137 19.9095 7.19517H15.9095C15.9095 6.68678 16.3259 6.27364 16.8311 6.27364V10.2736ZM13.7526 7.19517C13.7526 8.89639 15.1298 10.2736 16.8311 10.2736V6.27364C17.339 6.27364 17.7526 6.68725 17.7526 7.19517H13.7526Z" fill="white" mask="url(#path-1-inside-1_90_1015)"/>
</svg>
