<svg width="30" height="30" viewBox="0 0 30 30" fill="none" xmlns="http://www.w3.org/2000/svg">
<path d="M27 10.6617V22.4411C27 22.9793 26.7862 23.4955 26.4056 23.8761C26.025 24.2567 25.5088 24.4705 24.9706 24.4705H6.02942C5.49118 24.4705 4.97499 24.2567 4.59441 23.8761C4.21382 23.4955 4 22.9793 4 22.4411V10.6617L12.4376 17.8153C13.2931 18.5407 14.3784 18.9389 15.5 18.9389C16.6216 18.9389 17.7069 18.5407 18.5624 17.8153L27 10.6617ZM24.9706 5.5293C25.2179 5.52957 25.4631 5.57449 25.6944 5.66189C26.027 5.78855 26.3201 6.00093 26.5441 6.27747C26.6654 6.4262 26.7652 6.59131 26.8404 6.76791C26.9283 6.97627 26.9824 7.20221 26.9959 7.43965L27 7.55871V8.23518L16.8171 16.9211C16.4666 17.22 16.0249 17.3908 15.5645 17.4054C15.1041 17.4201 14.6524 17.2776 14.2837 17.0016L14.1829 16.9204L4 8.23518V7.55871C3.99918 7.18307 4.10297 6.81463 4.29976 6.49466C4.49654 6.17469 4.77854 5.91584 5.11415 5.74712C5.39791 5.60368 5.71146 5.52906 6.02942 5.5293H24.9706Z" fill="#454545"/>
</svg>
