<svg width="132" height="30" viewBox="0 0 132 30" fill="none" xmlns="http://www.w3.org/2000/svg">
<circle cx="15" cy="15" r="15" fill="#2872E1"/>
<mask id="mask0_0_39" style="mask-type:alpha" maskUnits="userSpaceOnUse" x="0" y="0" width="30" height="30">
<circle cx="15" cy="15" r="15" fill="#0038FF"/>
</mask>
<g mask="url(#mask0_0_39)">
<path d="M17.5941 5.27243C17.7795 4.58048 17.0139 4.0244 16.4131 4.41469L8.56964 9.51034C8.00213 9.87903 8.1395 10.7456 8.79321 10.9208L12.7608 11.9838C14.3246 12.4028 15.932 11.4748 16.351 9.91118L17.5941 5.27243Z" fill="white"/>
<path d="M10.6986 23.227C11.0164 22.9914 11.0345 22.5475 10.8821 22.1825C10.8781 22.173 10.8741 22.1635 10.8702 22.1539L7.37783 12.8327C7.15477 12.2373 7.69801 11.6389 8.31217 11.8035L12.5079 12.9276C14.0717 13.3466 14.9998 14.9538 14.5807 16.5175L13.0992 22.0461C13.0814 22.1126 13.0611 22.1798 13.0384 22.247C12.5438 23.9403 10.9796 25.1772 9.12636 25.1772C8.7309 25.1772 8.41031 24.8567 8.41031 24.4613C8.41031 24.0658 8.7309 23.7453 9.12636 23.7453C9.71529 23.7453 10.2592 23.5527 10.6986 23.227Z" fill="white"/>
<path d="M19.9896 5.37292C19.6645 4.73457 18.7234 4.83337 18.538 5.52531L17.2949 10.1641C16.8759 11.7277 17.8039 13.335 19.3677 13.7539L23.3353 14.817C23.989 14.9921 24.5413 14.3103 24.2342 13.7073L19.9896 5.37292Z" fill="white"/>
<path d="M23.605 17.1804L16.5774 22.9652C15.4722 23.875 14.628 25.0598 13.661 26.1153C12.1066 27.8121 9.88804 28.8214 7.51205 28.8214H6.39464C5.99917 28.8214 5.67859 28.5009 5.67859 28.1054C5.67859 27.71 5.99917 27.3895 6.39464 27.3895H7.51205C9.79102 27.3895 11.8951 26.2683 13.1725 24.4401C13.5821 23.8539 13.8105 23.1665 13.9956 22.4758L15.5245 16.7704C15.9435 15.2067 17.5509 14.2788 19.1147 14.6978L23.3105 15.8219C23.9246 15.9865 24.0959 16.7763 23.605 17.1804Z" fill="white"/>
</g>
<path d="M123.806 16.2802V22.4887H126.669V16.2802L131.25 7.74529V7.5H128.134L125.238 12.8971L122.341 7.5H119.094L123.806 16.2802Z" fill="#181818"/>
<path d="M46.3958 7.65534C47.8398 7.94451 49.1661 8.65828 50.2071 9.70638L48.1017 11.8261C47.4771 11.1972 46.6813 10.769 45.815 10.5955C44.9486 10.422 44.0506 10.511 43.2345 10.8514C42.4184 11.1917 41.7209 11.768 41.2302 12.5075C40.7394 13.247 40.4775 14.1163 40.4775 15.0057C40.4775 15.895 40.7394 16.7644 41.2302 17.5038C41.7209 18.2433 42.4184 18.8197 43.2345 19.16C44.0506 19.5003 44.9486 19.5894 45.815 19.4159C46.6813 19.2424 47.4771 18.8141 48.1017 18.1852L50.2071 20.305C49.1661 21.3531 47.8398 22.0668 46.3958 22.356C44.9519 22.6452 43.4552 22.4968 42.0951 21.9295C40.7349 21.3623 39.5724 20.4017 38.7545 19.1693C37.9366 17.9369 37.5 16.4879 37.5 15.0057C37.5 13.5234 37.9366 12.0745 38.7545 10.842C39.5724 9.6096 40.7349 8.64904 42.0951 8.08181C43.4552 7.51458 44.9519 7.36617 46.3958 7.65534Z" fill="#181818"/>
<path d="M110.177 15.4924L108.501 17.3167V22.5H105.638V16.2603L105.611 16.2357L105.638 16.2065V7.51134H108.501V13.0908L113.628 7.51134H117.511L112.205 13.2854L117.54 22.5H114.234L110.177 15.4924Z" fill="#181818"/>
<path fill-rule="evenodd" clip-rule="evenodd" d="M51.8147 13.2213C51.8147 10.0678 54.3783 7.51134 57.5406 7.51134H58.2564C61.4187 7.51134 63.9823 10.0678 63.9823 13.2213V16.79C63.9823 19.9436 61.4187 22.5 58.2564 22.5H57.5406C54.3783 22.5 51.8147 19.9436 51.8147 16.79V13.2213ZM57.5406 10.3663C55.9595 10.3663 54.6777 11.6445 54.6777 13.2213V16.79C54.6777 18.3668 55.9595 19.645 57.5406 19.645H58.2564C59.8375 19.645 61.1193 18.3668 61.1193 16.79V13.2213C61.1193 11.6445 59.8375 10.3663 58.2564 10.3663H57.5406Z" fill="#181818"/>
<path fill-rule="evenodd" clip-rule="evenodd" d="M66.2726 7.51134V22.5H69.1356V17.5038H71.0509L73.9435 22.5H77.2493L74.0927 17.0477C75.8139 16.2569 77.0087 14.5214 77.0087 12.5076C77.0087 9.74822 74.7655 7.51134 71.9985 7.51134H66.2726ZM71.9985 10.3663H69.1356V14.6488H71.9985C73.1844 14.6488 74.1457 13.6901 74.1457 12.5076C74.1457 11.325 73.1844 10.3663 71.9985 10.3663Z" fill="#181818"/>
<path d="M79.8716 7.51134H89.6056V10.3663H82.7346V13.5782H88.8422V16.4332H82.7346V19.645H89.6056V22.5H79.8716V7.51134Z" fill="#181818"/>
<path d="M96.4767 7.51134C94.0259 7.51134 92.0391 9.49258 92.0391 11.9366C92.0391 14.3805 94.0259 16.3618 96.4767 16.3618H98.6955C99.6047 16.3618 100.342 17.0968 100.342 18.0034C100.342 18.91 99.6047 19.645 98.6955 19.645H97.0099C95.8458 19.645 94.9021 18.7039 94.9021 17.543H92.0391C92.0391 20.2807 94.2646 22.5 97.0099 22.5H98.6955C101.186 22.5 103.205 20.4868 103.205 18.0034C103.205 15.52 101.186 13.5068 98.6955 13.5068H96.4767C95.6071 13.5068 94.9021 12.8038 94.9021 11.9366C94.9021 11.0693 95.6071 10.3663 96.4767 10.3663H98.3161C99.4348 10.3663 100.342 11.2707 100.342 12.3862H103.205C103.205 9.6939 101.016 7.51134 98.3161 7.51134H96.4767Z" fill="#181818"/>
</svg>
