<svg width="136" height="34" viewBox="0 0 136 34" fill="none" xmlns="http://www.w3.org/2000/svg">
<circle cx="15" cy="15" r="15" fill="#1063E0"/>
<mask id="mask0_403_16953" style="mask-type:alpha" maskUnits="userSpaceOnUse" x="0" y="0" width="30" height="30">
<circle cx="15" cy="15" r="15" fill="#1063E0"/>
</mask>
<g mask="url(#mask0_403_16953)">
<path d="M17.2263 5.84452C17.3855 5.25229 16.7284 4.77634 16.2128 5.11039L9.48121 9.47173C8.99415 9.78729 9.11204 10.529 9.67309 10.6789L13.0782 11.5888C14.4203 11.9474 15.7999 11.1531 16.1595 9.81481L17.2263 5.84452Z" fill="white"/>
<path d="M11.3084 21.2118C11.5811 21.0101 11.5967 20.6302 11.4658 20.3178C11.4624 20.3097 11.459 20.3015 11.4556 20.2933L8.45835 12.3153C8.26691 11.8057 8.73315 11.2936 9.26023 11.4344L12.8612 12.3966C14.2033 12.7552 14.9998 14.1308 14.6402 15.4691L13.3687 20.201C13.3534 20.2579 13.3359 20.3155 13.3165 20.373C12.892 21.8222 11.5495 22.881 9.95901 22.881C9.61961 22.881 9.34447 22.6066 9.34447 22.2681C9.34447 21.9297 9.61961 21.6553 9.95901 21.6553C10.4645 21.6553 10.9313 21.4905 11.3084 21.2118Z" fill="white"/>
<path d="M19.2822 5.93053C19.0032 5.38417 18.1955 5.46874 18.0364 6.06097L16.9695 10.0313C16.6099 11.3696 17.4064 12.7452 18.7485 13.1038L22.1537 14.0137C22.7147 14.1636 23.1887 13.58 22.9251 13.0639L19.2822 5.93053Z" fill="white"/>
<path d="M22.3851 16.0365L16.3538 20.9877C15.4052 21.7664 14.6807 22.7804 13.8508 23.6838C12.5168 25.1361 10.6127 26 8.57354 26H7.61454C7.27514 26 7 25.7256 7 25.3872C7 25.0487 7.27514 24.7744 7.61454 24.7744H8.57354C10.5294 24.7744 12.3353 23.8148 13.4316 22.25C13.7831 21.7483 13.9791 21.16 14.138 20.5688L15.4502 15.6856C15.8098 14.3472 17.1893 13.553 18.5314 13.9116L22.1324 14.8738C22.6594 15.0146 22.8064 15.6906 22.3851 16.0365Z" fill="white"/>
</g>
<path d="M128.306 18.2802V24.4887H131.169V18.2802L135.75 9.74529V9.5H132.634L129.738 14.8971L126.841 9.5H123.594L128.306 18.2802Z" fill="#111111"/>
<path d="M50.8958 9.65534C52.3398 9.94451 53.6661 10.6583 54.7071 11.7064L52.6017 13.8261C51.9771 13.1972 51.1813 12.769 50.315 12.5955C49.4486 12.422 48.5506 12.511 47.7345 12.8514C46.9184 13.1917 46.2209 13.768 45.7302 14.5075C45.2394 15.247 44.9775 16.1163 44.9775 17.0057C44.9775 17.895 45.2394 18.7644 45.7302 19.5038C46.2209 20.2433 46.9184 20.8197 47.7345 21.16C48.5506 21.5003 49.4486 21.5894 50.315 21.4159C51.1813 21.2424 51.9771 20.8141 52.6017 20.1853L54.7071 22.305C53.6661 23.3531 52.3398 24.0668 50.8958 24.356C49.4519 24.6452 47.9552 24.4968 46.5951 23.9295C45.2349 23.3623 44.0724 22.4017 43.2545 21.1693C42.4366 19.9369 42 18.4879 42 17.0057C42 15.5234 42.4366 14.0745 43.2545 12.842C44.0724 11.6096 45.2349 10.649 46.5951 10.0818C47.9552 9.51458 49.4519 9.36617 50.8958 9.65534Z" fill="#111111"/>
<path d="M114.677 17.4924L113.001 19.3167V24.5H110.138V18.2603L110.111 18.2357L110.138 18.2065V9.51134H113.001V15.0908L118.128 9.51134H122.011L116.705 15.2854L122.04 24.5H118.734L114.677 17.4924Z" fill="#111111"/>
<path fill-rule="evenodd" clip-rule="evenodd" d="M56.3147 15.2213C56.3147 12.0678 58.8783 9.51134 62.0406 9.51134H62.7564C65.9187 9.51134 68.4823 12.0678 68.4823 15.2213V18.79C68.4823 21.9436 65.9187 24.5 62.7564 24.5H62.0406C58.8783 24.5 56.3147 21.9436 56.3147 18.79V15.2213ZM62.0406 12.3663C60.4595 12.3663 59.1777 13.6445 59.1777 15.2213V18.79C59.1777 20.3668 60.4595 21.645 62.0406 21.645H62.7564C64.3375 21.645 65.6193 20.3668 65.6193 18.79V15.2213C65.6193 13.6445 64.3375 12.3663 62.7564 12.3663H62.0406Z" fill="#111111"/>
<path fill-rule="evenodd" clip-rule="evenodd" d="M70.7726 9.51134V24.5H73.6356V19.5038H75.5509L78.4435 24.5H81.7493L78.5927 19.0477C80.3139 18.2569 81.5087 16.5214 81.5087 14.5076C81.5087 11.7482 79.2655 9.51134 76.4985 9.51134H70.7726ZM76.4985 12.3663H73.6356V16.6488H76.4985C77.6844 16.6488 78.6457 15.6901 78.6457 14.5076C78.6457 13.325 77.6844 12.3663 76.4985 12.3663Z" fill="#111111"/>
<path d="M84.3716 9.51134H94.1056V12.3663H87.2346V15.5782H93.3422V18.4332H87.2346V21.645H94.1056V24.5H84.3716V9.51134Z" fill="#111111"/>
<path d="M100.977 9.51134C98.5259 9.51134 96.5391 11.4926 96.5391 13.9366C96.5391 16.3805 98.5259 18.3618 100.977 18.3618H103.195C104.105 18.3618 104.842 19.0968 104.842 20.0034C104.842 20.91 104.105 21.645 103.195 21.645H101.51C100.346 21.645 99.4021 20.7039 99.4021 19.543H96.5391C96.5391 22.2807 98.7646 24.5 101.51 24.5H103.195C105.686 24.5 107.705 22.4868 107.705 20.0034C107.705 17.52 105.686 15.5068 103.195 15.5068H100.977C100.107 15.5068 99.4021 14.8038 99.4021 13.9366C99.4021 13.0693 100.107 12.3663 100.977 12.3663H102.816C103.935 12.3663 104.842 13.2707 104.842 14.3862H107.705C107.705 11.6939 105.516 9.51134 102.816 9.51134H100.977Z" fill="#111111"/>
</svg>
