<svg width="136" height="34" viewBox="0 0 136 34" fill="none" xmlns="http://www.w3.org/2000/svg">
<circle cx="15" cy="15" r="15" fill="#1063E0"/>
<mask id="mask0_406_20172" style="mask-type:alpha" maskUnits="userSpaceOnUse" x="0" y="0" width="30" height="30">
<circle cx="15" cy="15" r="15" fill="#1063E0"/>
</mask>
<g mask="url(#mask0_406_20172)">
<path fill-rule="evenodd" clip-rule="evenodd" d="M10.3779 9.31361C10.1009 9.5208 10.1848 9.95611 10.5189 10.0456L14.2572 11.0473C15.1413 11.2842 16.0502 10.7595 16.2871 9.87536L17.6468 4.8006C17.7486 4.42067 17.3134 4.12597 16.9984 4.36157L10.3779 9.31361ZM22.4781 13.2501C22.8122 13.3396 23.1024 13.0045 22.9661 12.6866L19.6558 4.96462C19.5009 4.60312 18.9766 4.64071 18.8748 5.02065L17.4878 10.1971C17.2508 11.0813 17.7755 11.9901 18.6597 12.227L22.4781 13.2501ZM9.47878 11.7656C9.39908 11.4583 9.68044 11.1792 9.98711 11.2614L13.8629 12.2999C14.7471 12.5368 15.2718 13.4457 15.0349 14.3298L13.9946 18.212C13.9058 18.5436 14.1025 18.8844 14.4341 18.9732C14.7657 19.0621 15.1065 18.8653 15.1953 18.5338L16.2356 14.6515C16.4725 13.7674 17.3813 13.2427 18.2654 13.4796L22.2213 14.5395C22.528 14.6217 22.6321 15.0041 22.4094 15.2304L13.9127 23.865C13.8267 23.9524 13.807 24.0099 13.7742 24.1324C13.4235 25.4412 12.0782 26.2179 10.7694 25.8672C9.44438 25.5122 8.66628 24.1444 9.01948 22.8262C9.07923 22.6032 8.94573 22.3758 8.72957 22.3179L6.7237 21.4884C6.35898 21.3906 6.14254 21.0158 6.24026 20.651C6.33799 20.2863 6.71287 20.0699 7.07759 20.1676L9.08347 20.9971C10.0359 21.2523 10.5936 22.2345 10.3402 23.1801C10.1807 23.7757 10.5345 24.3887 11.1233 24.5465C11.6564 24.6893 12.6958 24.1701 12.5198 23.4918L9.47878 11.7656Z" fill="white"/>
</g>
<path d="M128.306 18.2802V24.4887H131.169V18.2802L135.75 9.74529V9.5H132.634L129.738 14.8971L126.841 9.5H123.594L128.306 18.2802Z" fill="white"/>
<path d="M50.8958 9.65534C52.3398 9.94451 53.6661 10.6583 54.7071 11.7064L52.6017 13.8261C51.9771 13.1972 51.1813 12.769 50.315 12.5955C49.4486 12.422 48.5506 12.511 47.7345 12.8514C46.9184 13.1917 46.2209 13.768 45.7302 14.5075C45.2394 15.247 44.9775 16.1163 44.9775 17.0057C44.9775 17.895 45.2394 18.7644 45.7302 19.5038C46.2209 20.2433 46.9184 20.8197 47.7345 21.16C48.5506 21.5003 49.4486 21.5894 50.315 21.4159C51.1813 21.2424 51.9771 20.8141 52.6017 20.1852L54.7071 22.305C53.6661 23.3531 52.3398 24.0668 50.8958 24.356C49.4519 24.6452 47.9552 24.4968 46.5951 23.9295C45.2349 23.3623 44.0724 22.4017 43.2545 21.1693C42.4366 19.9369 42 18.4879 42 17.0057C42 15.5234 42.4366 14.0745 43.2545 12.842C44.0724 11.6096 45.2349 10.649 46.5951 10.0818C47.9552 9.51458 49.4519 9.36617 50.8958 9.65534Z" fill="white"/>
<path d="M114.677 17.4924L113.001 19.3167V24.5H110.138V18.2603L110.111 18.2357L110.138 18.2065V9.51134H113.001V15.0908L118.128 9.51134H122.011L116.705 15.2854L122.04 24.5H118.734L114.677 17.4924Z" fill="white"/>
<path fill-rule="evenodd" clip-rule="evenodd" d="M56.3147 15.2213C56.3147 12.0678 58.8783 9.51134 62.0406 9.51134H62.7564C65.9187 9.51134 68.4823 12.0678 68.4823 15.2213V18.79C68.4823 21.9436 65.9187 24.5 62.7564 24.5H62.0406C58.8783 24.5 56.3147 21.9436 56.3147 18.79V15.2213ZM62.0406 12.3663C60.4595 12.3663 59.1777 13.6445 59.1777 15.2213V18.79C59.1777 20.3668 60.4595 21.645 62.0406 21.645H62.7564C64.3375 21.645 65.6193 20.3668 65.6193 18.79V15.2213C65.6193 13.6445 64.3375 12.3663 62.7564 12.3663H62.0406Z" fill="white"/>
<path fill-rule="evenodd" clip-rule="evenodd" d="M70.7726 9.51134V24.5H73.6356V19.5038H75.5509L78.4435 24.5H81.7493L78.5927 19.0477C80.3139 18.2569 81.5087 16.5214 81.5087 14.5076C81.5087 11.7482 79.2655 9.51134 76.4985 9.51134H70.7726ZM76.4985 12.3663H73.6356V16.6488H76.4985C77.6844 16.6488 78.6457 15.6901 78.6457 14.5076C78.6457 13.325 77.6844 12.3663 76.4985 12.3663Z" fill="white"/>
<path d="M84.3716 9.51134H94.1056V12.3663H87.2346V15.5782H93.3422V18.4332H87.2346V21.645H94.1056V24.5H84.3716V9.51134Z" fill="white"/>
<path d="M100.977 9.51134C98.5259 9.51134 96.5391 11.4926 96.5391 13.9366C96.5391 16.3805 98.5259 18.3618 100.977 18.3618H103.195C104.105 18.3618 104.842 19.0968 104.842 20.0034C104.842 20.91 104.105 21.645 103.195 21.645H101.51C100.346 21.645 99.4021 20.7039 99.4021 19.543H96.5391C96.5391 22.2807 98.7646 24.5 101.51 24.5H103.195C105.686 24.5 107.705 22.4868 107.705 20.0034C107.705 17.52 105.686 15.5068 103.195 15.5068H100.977C100.107 15.5068 99.4021 14.8038 99.4021 13.9366C99.4021 13.0693 100.107 12.3663 100.977 12.3663H102.816C103.935 12.3663 104.842 13.2707 104.842 14.3862H107.705C107.705 11.6939 105.516 9.51134 102.816 9.51134H100.977Z" fill="white"/>
</svg>
