<svg width="136" height="34" viewBox="0 0 136 34" fill="none" xmlns="http://www.w3.org/2000/svg">
<circle cx="15" cy="15" r="15" fill="#1063E0"/>
<path d="M13.5628 4.15135C13.7966 3.85696 14.2742 4.0208 14.2742 4.39542C14.2742 6.00593 14.2701 7.61608 14.2701 9.22561C14.2701 11.0605 12.7686 12.548 10.9164 12.548H8.07599C7.59605 12.548 7.32738 11.9998 7.62421 11.6262L13.5628 4.15135Z" fill="white"/>
<path d="M16.4372 4.15135C16.2033 3.85696 15.7258 4.0208 15.7258 4.39542C15.7258 6.00562 15.7298 7.61597 15.7298 9.22561C15.7298 11.0605 17.2313 12.548 19.0836 12.548H21.9239C22.4039 12.548 22.6726 11.9998 22.3757 11.6262L16.4372 4.15135Z" fill="white"/>
<path d="M22.4268 14.8734C22.6372 14.5048 22.369 14.048 21.9424 14.048L18.974 14.0479C17.1801 14.0479 15.7258 15.4917 15.7258 17.2728L15.7258 20.3873C15.7258 20.5311 15.6834 20.6449 15.6192 20.7348C15.3411 21.1236 14.6594 21.1237 14.38 20.7358C14.3152 20.6457 14.2724 20.5316 14.2724 20.3873L14.2723 17.3005C14.2723 15.5195 12.8237 14.0756 11.0367 14.0756L8.05854 14.0759C7.63354 14.0759 7.36642 14.5328 7.57596 14.9013L14.3212 26.7652C14.5755 27.2126 15.3723 27.2122 15.6274 26.7652L22.4268 14.8734Z" fill="white"/>
<path d="M128.306 18.2802V24.4887H131.169V18.2802L135.75 9.74529V9.5H132.634L129.738 14.8971L126.841 9.5H123.594L128.306 18.2802Z" fill="white"/>
<path d="M50.8958 9.65534C52.3398 9.94451 53.6661 10.6583 54.7071 11.7064L52.6017 13.8261C51.9771 13.1972 51.1813 12.769 50.315 12.5955C49.4486 12.422 48.5506 12.511 47.7345 12.8514C46.9184 13.1917 46.2209 13.768 45.7302 14.5075C45.2394 15.247 44.9775 16.1163 44.9775 17.0057C44.9775 17.895 45.2394 18.7644 45.7302 19.5038C46.2209 20.2433 46.9184 20.8197 47.7345 21.16C48.5506 21.5003 49.4486 21.5894 50.315 21.4159C51.1813 21.2424 51.9771 20.8141 52.6017 20.1852L54.7071 22.305C53.6661 23.3531 52.3398 24.0668 50.8958 24.356C49.4519 24.6452 47.9552 24.4968 46.5951 23.9295C45.2349 23.3623 44.0724 22.4017 43.2545 21.1693C42.4366 19.9369 42 18.4879 42 17.0057C42 15.5234 42.4366 14.0745 43.2545 12.842C44.0724 11.6096 45.2349 10.649 46.5951 10.0818C47.9552 9.51458 49.4519 9.36617 50.8958 9.65534Z" fill="white"/>
<path d="M114.677 17.4924L113.001 19.3167V24.5H110.138V18.2603L110.111 18.2357L110.138 18.2065V9.51134H113.001V15.0908L118.128 9.51134H122.011L116.705 15.2854L122.04 24.5H118.734L114.677 17.4924Z" fill="white"/>
<path fill-rule="evenodd" clip-rule="evenodd" d="M56.3147 15.2213C56.3147 12.0678 58.8783 9.51134 62.0406 9.51134H62.7564C65.9187 9.51134 68.4823 12.0678 68.4823 15.2213V18.79C68.4823 21.9436 65.9187 24.5 62.7564 24.5H62.0406C58.8783 24.5 56.3147 21.9436 56.3147 18.79V15.2213ZM62.0406 12.3663C60.4595 12.3663 59.1777 13.6445 59.1777 15.2213V18.79C59.1777 20.3668 60.4595 21.645 62.0406 21.645H62.7564C64.3375 21.645 65.6193 20.3668 65.6193 18.79V15.2213C65.6193 13.6445 64.3375 12.3663 62.7564 12.3663H62.0406Z" fill="white"/>
<path fill-rule="evenodd" clip-rule="evenodd" d="M70.7726 9.51134V24.5H73.6356V19.5038H75.5509L78.4435 24.5H81.7493L78.5927 19.0477C80.3139 18.2569 81.5087 16.5214 81.5087 14.5076C81.5087 11.7482 79.2655 9.51134 76.4985 9.51134H70.7726ZM76.4985 12.3663H73.6356V16.6488H76.4985C77.6844 16.6488 78.6457 15.6901 78.6457 14.5076C78.6457 13.325 77.6844 12.3663 76.4985 12.3663Z" fill="white"/>
<path d="M84.3716 9.51134H94.1056V12.3663H87.2346V15.5782H93.3422V18.4332H87.2346V21.645H94.1056V24.5H84.3716V9.51134Z" fill="white"/>
<path d="M100.977 9.51134C98.5259 9.51134 96.5391 11.4926 96.5391 13.9366C96.5391 16.3805 98.5259 18.3618 100.977 18.3618H103.195C104.105 18.3618 104.842 19.0968 104.842 20.0034C104.842 20.91 104.105 21.645 103.195 21.645H101.51C100.346 21.645 99.4021 20.7039 99.4021 19.543H96.5391C96.5391 22.2807 98.7646 24.5 101.51 24.5H103.195C105.686 24.5 107.705 22.4868 107.705 20.0034C107.705 17.52 105.686 15.5068 103.195 15.5068H100.977C100.107 15.5068 99.4021 14.8038 99.4021 13.9366C99.4021 13.0693 100.107 12.3663 100.977 12.3663H102.816C103.935 12.3663 104.842 13.2707 104.842 14.3862H107.705C107.705 11.6939 105.516 9.51134 102.816 9.51134H100.977Z" fill="white"/>
</svg>
