<svg width="127" height="34" viewBox="0 0 127 34" fill="none" xmlns="http://www.w3.org/2000/svg">
<path d="M53.1042 23.5105C54.0089 23.5105 54.847 23.3776 55.6186 23.1118C56.3902 22.846 57.0654 22.464 57.6441 21.9656C58.2228 21.4673 58.6818 20.856 59.0211 20.1318C59.3603 19.4075 59.5565 18.5936 59.6098 17.6899H55.898C55.8315 18.5138 55.5521 19.1583 55.0599 19.6235C54.5676 20.0886 53.8891 20.3211 53.0244 20.3211C52.4523 20.3211 51.9534 20.2048 51.5277 19.9723C51.102 19.7397 50.7561 19.4241 50.49 19.0254C50.2239 18.6268 50.0277 18.1749 49.9013 17.67C49.7749 17.165 49.7118 16.6401 49.7118 16.0952C49.7118 15.5504 49.7749 15.0254 49.9013 14.5205C50.0277 14.0155 50.2239 13.5637 50.49 13.165C50.7561 12.7663 51.102 12.4507 51.5277 12.2181C51.9534 11.9856 52.4523 11.8693 53.0244 11.8693C53.8226 11.8693 54.4778 12.0587 54.99 12.4374C55.5022 12.8161 55.8049 13.3577 55.898 14.062H59.6098C59.5831 13.2381 59.3803 12.4906 59.0011 11.8195C58.622 11.1484 58.1197 10.5769 57.4945 10.1052C56.8692 9.63342 56.1774 9.27794 55.4191 9.03874C54.6608 8.79953 53.8891 8.67993 53.1042 8.67993C52.0532 8.67993 51.0887 8.8693 50.2106 9.24804C49.3326 9.62678 48.5776 10.155 47.9457 10.8328C47.3137 11.5105 46.8315 12.3012 46.4989 13.2048C46.1663 14.1085 46 15.072 46 16.0952C46 17.1185 46.1663 18.0819 46.4989 18.9856C46.8315 19.8892 47.3137 20.6799 47.9457 21.3577C48.5776 22.0354 49.3326 22.5637 50.2106 22.9424C51.0887 23.3211 52.0532 23.5105 53.1042 23.5105ZM66.3947 23.5105C67.1796 23.5105 67.9113 23.3743 68.5898 23.1019C69.2683 22.8294 69.8503 22.4441 70.3359 21.9457C70.8215 21.4474 71.1973 20.866 71.4634 20.2015C71.7295 19.5371 71.8625 18.8195 71.8625 18.0487C71.8625 17.2779 71.7295 16.557 71.4634 15.8859C71.1973 15.2148 70.8182 14.6301 70.3259 14.1318C69.8337 13.6334 69.2517 13.248 68.5798 12.9756C67.908 12.7032 67.1796 12.567 66.3947 12.567C65.6098 12.567 64.8814 12.7032 64.2095 12.9756C63.5377 13.248 62.959 13.6334 62.4734 14.1318C61.9878 14.6301 61.612 15.2148 61.3459 15.8859C61.0798 16.557 60.9468 17.2779 60.9468 18.0487C60.9468 18.8195 61.0798 19.5371 61.3459 20.2015C61.612 20.866 61.9878 21.4474 62.4734 21.9457C62.959 22.4441 63.5377 22.8294 64.2095 23.1019C64.8814 23.3743 65.6098 23.5105 66.3947 23.5105ZM66.3947 20.9191C66.0222 20.9191 65.7029 20.8361 65.4368 20.67C65.1707 20.5039 64.9579 20.2813 64.7982 20.0022C64.6386 19.7231 64.5222 19.4175 64.449 19.0852C64.3758 18.753 64.3392 18.4075 64.3392 18.0487C64.3392 17.6899 64.3758 17.3411 64.449 17.0022C64.5222 16.6633 64.6386 16.3544 64.7982 16.0753C64.9579 15.7962 65.1707 15.5736 65.4368 15.4075C65.7029 15.2414 66.0222 15.1583 66.3947 15.1583C66.7672 15.1583 67.0898 15.2414 67.3625 15.4075C67.6353 15.5736 67.8514 15.7995 68.0111 16.0852C68.1707 16.371 68.2871 16.6833 68.3603 17.0221C68.4335 17.361 68.4701 17.7032 68.4701 18.0487C68.4701 18.3942 68.4335 18.7364 68.3603 19.0753C68.2871 19.4142 68.1707 19.7231 68.0111 20.0022C67.8514 20.2813 67.6353 20.5039 67.3625 20.67C67.0898 20.8361 66.7672 20.9191 66.3947 20.9191ZM77.1508 23.2115V18.0886C77.1508 17.3975 77.3769 16.8161 77.8293 16.3444C78.2816 15.8726 78.9069 15.6367 79.7051 15.6367C80.0776 15.6367 80.51 15.7032 81.0022 15.8361V12.7464C80.7761 12.6932 80.51 12.6666 80.204 12.6666C79.4723 12.6666 78.8337 12.8394 78.2882 13.1849C77.7428 13.5304 77.3437 14.0288 77.0909 14.6799H77.051V12.866H73.7583V23.2115H77.1508ZM87.3082 23.5105C88.5455 23.5105 89.6397 23.2215 90.5909 22.6434C91.5421 22.0653 92.1641 21.2115 92.4568 20.0819H89.2838C89.1242 20.4407 88.8681 20.7198 88.5155 20.9191C88.163 21.1185 87.7738 21.2181 87.3481 21.2181C86.643 21.2181 86.0876 21.0055 85.6818 20.5803C85.2761 20.155 85.0599 19.5836 85.0333 18.866H92.6364V18.6467C92.6497 18.567 92.6563 18.5005 92.6563 18.4474C92.6563 17.6102 92.5399 16.8361 92.3071 16.1251C92.0743 15.4142 91.7284 14.7896 91.2694 14.2514C90.8104 13.7132 90.2384 13.2979 89.5532 13.0055C88.8681 12.7132 88.0931 12.567 87.2284 12.567C86.4701 12.567 85.7517 12.6999 85.0732 12.9656C84.3947 13.2314 83.7993 13.6102 83.2871 14.1019C82.7749 14.5936 82.3725 15.1716 82.0798 15.8361C81.7871 16.5005 81.6408 17.2248 81.6408 18.0088C81.6408 19.7231 82.1596 21.0686 83.1973 22.0454C84.235 23.0221 85.6053 23.5105 87.3082 23.5105ZM89.2439 16.9723H85.0333C85.1397 16.3344 85.3858 15.8228 85.7716 15.4374C86.1574 15.052 86.643 14.8593 87.2284 14.8593C87.7871 14.8593 88.2561 15.062 88.6353 15.4673C89.0144 15.8726 89.2173 16.3743 89.2439 16.9723ZM98.8027 23.5105C99.4279 23.5105 100.033 23.4441 100.619 23.3112C101.204 23.1783 101.733 22.969 102.205 22.6833C102.677 22.3975 103.057 22.0155 103.343 21.5371C103.629 21.0587 103.772 20.4872 103.772 19.8228C103.772 19.5836 103.728 19.3244 103.642 19.0454C103.555 18.7663 103.412 18.4939 103.213 18.2281C103.013 17.9623 102.741 17.7198 102.395 17.5005C102.049 17.2813 101.63 17.1251 101.137 17.0321C100.925 16.9789 100.605 16.9191 100.18 16.8527C99.7672 16.773 99.3947 16.6965 99.0621 16.6235C98.7295 16.5504 98.4335 16.4673 98.1741 16.3743C97.9146 16.2813 97.7051 16.165 97.5455 16.0254C97.3858 15.8859 97.306 15.7231 97.306 15.5371C97.306 15.2181 97.449 15.0088 97.735 14.9092C98.0211 14.8095 98.3636 14.7597 98.7627 14.7597C99.2151 14.7597 99.5743 14.846 99.8404 15.0188C100.133 15.2048 100.279 15.5039 100.279 15.9158H103.412C103.386 15.2646 103.236 14.7198 102.963 14.2813C102.691 13.8427 102.328 13.5005 101.876 13.2547C101.424 13.0088 100.925 12.8328 100.379 12.7264C99.8337 12.6201 99.255 12.567 98.643 12.567C98.0976 12.567 97.5488 12.6201 96.9967 12.7264C96.4446 12.8328 95.9357 13.0055 95.4701 13.2447C95.0044 13.4839 94.6286 13.8128 94.3426 14.2314C94.0565 14.65 93.9135 15.1517 93.9135 15.7364C93.9135 16.2945 94.0166 16.7597 94.2228 17.1318C94.4291 17.5039 94.7051 17.7995 95.051 18.0188C95.3969 18.2381 95.7694 18.4075 96.1685 18.5271C96.5676 18.6467 97.0865 18.773 97.7251 18.9058C98.204 18.9989 98.5366 19.072 98.7228 19.1251L98.8825 19.165C99.3348 19.258 99.6973 19.3776 99.9701 19.5238C100.243 19.67 100.379 19.9025 100.379 20.2215C100.379 20.5936 100.213 20.8693 99.8803 21.0487C99.5477 21.2281 99.1818 21.3178 98.7827 21.3178C98.2639 21.3178 97.8448 21.1982 97.5255 20.959C97.153 20.6799 96.9667 20.2945 96.9667 19.8029H93.7339C93.7605 20.4939 93.9169 21.0819 94.2029 21.567C94.4889 22.052 94.8714 22.4374 95.3503 22.7231C95.8293 23.0088 96.3581 23.2115 96.9368 23.3311C97.5155 23.4507 98.1375 23.5105 98.8027 23.5105ZM108.82 23.2115V19.9025L109.698 19.0454L112.233 23.2115H116.324L112.053 16.773L115.845 12.866H111.914L108.82 16.3145V8.97894H105.428V23.2115H108.82ZM118.579 26.6799C119.217 26.6799 119.749 26.65 120.175 26.5902C120.601 26.5304 120.983 26.4142 121.323 26.2414C121.662 26.0686 121.961 25.8161 122.221 25.4839C122.48 25.1517 122.71 24.6999 122.909 24.1284L127 12.866H123.528L121.572 19.6035H121.532L119.576 12.866H115.984L118.659 20.062C118.712 20.2082 118.765 20.3544 118.818 20.5005C119.018 21.0321 119.184 21.4939 119.317 21.8859C119.45 22.2779 119.517 22.5736 119.517 22.773C119.517 23.1318 119.39 23.4142 119.137 23.6201C118.885 23.8261 118.559 23.9291 118.16 23.9291H116.982V26.6799H118.579Z" fill="white"/>
<path d="M17 34C26.3888 34 34 26.3888 34 17C34 7.61116 26.3888 0 17 0C7.61116 0 0 7.61116 0 17C0 26.3888 7.61116 34 17 34Z" fill="url(#paint0_linear_84_2166)"/>
<path fill-rule="evenodd" clip-rule="evenodd" d="M14.5846 23.9473C14.3074 24.15 13.9021 23.7257 14.1146 23.456C16.0885 20.9502 17.7393 18.4497 19.0641 16.1898C19.1691 16.0106 19.3879 15.9326 19.5829 16.0042C21.3115 16.6391 22.9033 17.1232 24.2086 17.4664C24.5981 17.5688 24.6568 18.112 24.2948 18.2887C22.5846 19.1238 20.1232 20.366 18.2588 21.4724C17.1096 22.1543 15.8126 23.0493 14.5846 23.9473ZM10.6788 25.8749C10.4866 26.0863 10.1422 25.9093 10.1975 25.629C10.5779 23.7023 11.0939 20.84 11.2316 18.8638C11.3727 16.8379 11.2152 14.3198 11.0779 12.7219C11.0476 12.3687 11.4366 12.1293 11.7406 12.3117C13.7274 13.5038 15.8075 14.4977 17.7842 15.3065C18.0247 15.4049 18.1246 15.6927 17.9921 15.9163C16.1637 19.0012 13.7227 22.5259 10.6788 25.8749ZM12.7845 11.6938C12.4351 11.4915 12.5513 10.9693 12.952 10.9204C14.1127 10.7787 15.5525 10.5784 16.657 10.3457C17.9007 10.0837 19.4834 9.62078 20.6179 9.26998C20.9609 9.16392 21.2734 9.50072 21.1316 9.83058C20.6185 11.0248 19.8921 12.534 18.9545 14.234C18.8517 14.4204 18.6261 14.5012 18.4287 14.4215C16.5898 13.6802 14.6515 12.7744 12.7845 11.6938ZM21.9553 10.5996C22.1115 10.2457 22.6287 10.2527 22.7723 10.6119C23.0874 11.4002 23.472 12.31 23.8404 13.0454C24.2755 13.9137 24.9478 15.0656 25.4826 15.9548C25.6755 16.2757 25.394 16.67 25.0305 16.58C23.7358 16.2593 22.0744 15.7743 20.2415 15.1133C19.9964 15.025 19.8906 14.7377 20.0154 14.509C20.8203 13.0343 21.4672 11.7048 21.9553 10.5996Z" fill="white"/>
<defs>
<linearGradient id="paint0_linear_84_2166" x1="12.4739" y1="3.0912e-07" x2="21.9403" y2="29.0048" gradientUnits="userSpaceOnUse">
<stop stop-color="#30E8B6"/>
<stop offset="1" stop-color="#7D47FF"/>
</linearGradient>
</defs>
</svg>
