<svg width="22" height="22" viewBox="0 0 22 22" fill="none" xmlns="http://www.w3.org/2000/svg">
<g clip-path="url(#clip0_1675_43241)">
<path d="M21.892 10.9993C21.892 17.0742 16.9914 21.9988 10.946 21.9988C4.90064 21.9988 0 17.0742 0 10.9993C0 4.92444 4.90064 -0.000122049 10.946 -0.00012207C16.9914 -0.000122092 21.892 4.92444 21.892 10.9993Z" fill="#F4BB0B"/>
<path d="M11.0004 12.8212L9.22363 11.0358L11.0004 9.25037L12.7772 11.0358L11.0004 12.8212ZM15.0381 11.0358L15.0306 11.0433L16.6785 12.6992L18.3338 11.0358L16.6671 9.3609L15.0192 11.0168L15.0381 11.0358Z" fill="white"/>
<path d="M8.14453 9.84811L11.0003 6.9784L13.8981 9.89032L15.5458 8.23453L11.0003 3.66663L6.49669 8.19222L8.14453 9.84811ZM13.9095 12.1699L11.0003 15.0933L8.11691 12.1957L6.46907 13.8516L11.0003 18.405L15.5573 13.8258L13.9095 12.1699ZM6.96267 11.0358L7.02351 10.9747L5.37558 9.31871L3.66699 11.0358L5.34806 12.7251L6.99581 11.0692L6.96267 11.0358Z" fill="white"/>
</g>
<defs>
<clipPath id="clip0_1675_43241">
<rect width="22" height="22" fill="white"/>
</clipPath>
</defs>
</svg>
