<svg width="25" height="24" viewBox="0 0 25 24" fill="none" xmlns="http://www.w3.org/2000/svg">
<path d="M13.7245 7.57843C14.0242 8.03491 15.167 9.06609 15.2029 10.053L16.3435 8.59562C16.3435 8.59562 17.0703 12 16.5703 14.5C16.0703 17 13.5703 19 11.0703 19C8.57031 19 6.52305 17.7501 5.78095 15.3751C4.57015 11.5 7.56965 6 13.4248 3.001C13.4476 2.99805 13.4708 3.00166 13.4917 3.01142C13.5126 3.02117 13.5303 3.03668 13.5429 3.05618C13.5556 3.07568 13.5625 3.09838 13.563 3.1217C13.5635 3.14501 13.5576 3.16801 13.5458 3.18806C12.3632 5.23607 13.4248 7.12195 13.7245 7.57843Z" fill="#ED7B3E"/>
<path d="M11.6703 9C11.6703 9 8.07031 11.8182 8.07031 15C8.07031 16.8399 9.37144 18 11.0703 18C12.8062 18 14.0703 16.6568 14.0703 15.5C14.0703 14.3432 13.6521 13.6254 12.8703 12.6364C12.0423 11.5888 11.6703 10.6777 11.6703 9Z" fill="#F5D77D"/>
</svg>
