<?xml version="1.0" standalone="no"?><!DOCTYPE svg PUBLIC "-//W3C//DTD SVG 1.1//EN" "http://www.w3.org/Graphics/SVG/1.1/DTD/svg11.dtd"><svg t="1675323222506" class="icon" viewBox="0 0 1075 1024" version="1.1" xmlns="http://www.w3.org/2000/svg" p-id="2371" xmlns:xlink="http://www.w3.org/1999/xlink" width="209.9609375" height="200"><path d="M1023.488 247.4496a119.3984 119.3984 0 0 0-93.7472-45.7216H398.1824a39.8848 39.8848 0 0 0-39.3728 40.0384c0 21.9648 17.7664 39.9872 39.3728 39.9872h531.6608c12.1344 0 23.808 5.6832 31.6416 15.8208 7.8336 10.0864 10.5472 23.0912 7.2192 37.7344l-34.7648 328.2944a39.936 39.936 0 0 1-39.3216 32.256H361.7792a40.6528 40.6528 0 0 1-39.424-31.0784L257.8432 122.0608C246.0672 66.304 196.7616 25.6 140.6464 25.6H65.024C43.3664 25.6 25.6 44.1856 25.6 66.2528c0 22.1184 17.7664 40.0384 39.3216 40.0384h75.776c18.8416 0 35.4816 13.5168 39.3216 31.0784L244.736 680.0384c11.7248 55.808 60.9792 96.512 117.0944 96.512H894.464c56.0128 0 104.2944-38.912 117.6064-97.6384l34.7136-328.2944a125.0816 125.0816 0 0 0-23.3472-103.168z m-178.688 679.936a68.2496 68.2496 0 1 0 136.4992 2.6624 68.2496 68.2496 0 0 0-136.4992-2.6624z m-546.0992 0a68.3008 68.3008 0 1 0 136.4992 2.6624 68.3008 68.3008 0 0 0-136.5504-2.6624z" p-id="2372"></path></svg>