<?xml version="1.0" standalone="no"?><!DOCTYPE svg PUBLIC "-//W3C//DTD SVG 1.1//EN" "http://www.w3.org/Graphics/SVG/1.1/DTD/svg11.dtd"><svg t="1675047741980" class="icon" viewBox="0 0 1024 1024" version="1.1" xmlns="http://www.w3.org/2000/svg" p-id="2307" xmlns:xlink="http://www.w3.org/1999/xlink" width="200" height="200"><path d="M895.573333 291.541333a99.498667 99.498667 0 0 0-78.122666-38.101333H374.485333a33.237333 33.237333 0 0 0-32.810666 33.365333c0 18.304 14.805333 33.322667 32.810666 33.322667h443.050667c10.112 0 19.84 4.736 26.368 13.184 6.528 8.405333 8.789333 19.285333 6.016 31.445333l-28.970667 273.578667a33.28 33.28 0 0 1-32.768 26.88H344.149333a33.877333 33.877333 0 0 1-32.853333-25.898667L257.536 187.050667C247.722667 140.586667 206.634667 106.666667 159.872 106.666667H96.853333c-18.005333 0-32.810667 15.445333-32.810666 33.92 0 18.389333 14.805333 33.322667 32.768 33.322666h63.146666c15.701333 0 29.568 11.264 32.768 25.898667L246.613333 652.032c9.770667 46.506667 50.816 80.426667 97.578667 80.426667H788.053333c46.677333 0 86.912-32.426667 98.005334-81.365334l28.928-273.578666a104.234667 104.234667 0 0 0-19.456-85.973334z m-148.906666 566.613334a56.874667 56.874667 0 1 0 113.749333 2.218666 56.874667 56.874667 0 0 0-113.749333-2.218666z m-455.082667 0a56.917333 56.917333 0 1 0 113.749333 2.218666 56.917333 56.917333 0 0 0-113.792-2.218666z" p-id="2308"></path></svg>