<svg width="18" height="17" viewBox="0 0 18 17" fill="none" xmlns="http://www.w3.org/2000/svg">
<path d="M10.2872 0.568937C9.57712 -0.141143 8.42585 -0.141143 7.71577 0.568937L6.74196 1.54275H4.27823C3.27403 1.54275 2.45996 2.35682 2.45996 3.36102V5.82475L1.2872 6.99751C0.577119 7.70759 0.577119 8.85886 1.2872 9.56894L2.45996 10.7417V12.4524C2.45996 13.4566 3.27403 14.2707 4.27823 14.2707H5.98893L7.71577 15.9975C8.42585 16.7076 9.57712 16.7076 10.2872 15.9975L12.014 14.2707H13.3696C14.3738 14.2707 15.1879 13.4566 15.1879 12.4524V11.0968L16.7158 9.56894C17.4258 8.85886 17.4258 7.70759 16.7158 6.99751L15.1879 5.46962V3.36102C15.1879 2.35682 14.3738 1.54275 13.3696 1.54275H11.261L10.2872 0.568937Z" fill="#1063E0"/>
<path fill-rule="evenodd" clip-rule="evenodd" d="M12.1897 6.15638C12.4105 6.36137 12.4232 6.70652 12.2183 6.92728L8.44173 10.9943L5.96398 8.32595C5.75899 8.10519 5.77177 7.76005 5.99253 7.55505C6.21329 7.35006 6.55844 7.36284 6.76343 7.5836L8.44173 9.39101L11.4188 6.18493C11.6238 5.96417 11.9689 5.95139 12.1897 6.15638Z" fill="white"/>
</svg>
