<svg width="30" height="30" viewBox="0 0 30 30" fill="none" xmlns="http://www.w3.org/2000/svg">
<circle cx="15" cy="15" r="15" fill="url(#paint0_linear_612_87772)"/>
<path d="M13.5628 4.15135C13.7966 3.85696 14.2742 4.0208 14.2742 4.39542C14.2742 6.00593 14.2701 7.61608 14.2701 9.22561C14.2701 11.0605 12.7686 12.548 10.9164 12.548H8.07599C7.59605 12.548 7.32738 11.9998 7.62421 11.6262L13.5628 4.15135Z" fill="white"/>
<path d="M16.4372 4.15135C16.2033 3.85696 15.7258 4.0208 15.7258 4.39542C15.7258 6.00562 15.7298 7.61597 15.7298 9.22561C15.7298 11.0605 17.2313 12.548 19.0836 12.548H21.9239C22.4039 12.548 22.6726 11.9998 22.3757 11.6262L16.4372 4.15135Z" fill="white"/>
<path d="M22.4268 14.8734C22.6372 14.5048 22.369 14.048 21.9424 14.048L18.974 14.0479C17.1801 14.0479 15.7258 15.4917 15.7258 17.2728L15.7258 20.3873C15.7258 20.5311 15.6834 20.6449 15.6192 20.7348C15.3411 21.1236 14.6594 21.1237 14.38 20.7358C14.3152 20.6457 14.2724 20.5316 14.2724 20.3873L14.2723 17.3005C14.2723 15.5195 12.8237 14.0756 11.0367 14.0756L8.05854 14.0759C7.63354 14.0759 7.36642 14.5328 7.57596 14.9013L14.3212 26.7652C14.5755 27.2126 15.3723 27.2122 15.6274 26.7652L22.4268 14.8734Z" fill="white"/>
<defs>
<linearGradient id="paint0_linear_612_87772" x1="30" y1="30" x2="0" y2="0" gradientUnits="userSpaceOnUse">
<stop stop-color="#163194"/>
<stop offset="1" stop-color="#0F85F1"/>
</linearGradient>
</defs>
</svg>
