<svg width="25" height="24" viewBox="0 0 25 24" fill="none" xmlns="http://www.w3.org/2000/svg">
<path d="M4.58203 12.2852L8.00806 9.28516L14.8601 9.71373L15.2884 16.5709L12.2906 19.9994C12.2906 19.9994 12.291 17.4284 9.72107 14.8566C7.15112 12.2847 4.58203 12.2852 4.58203 12.2852Z" fill="#F15F11"/>
<path d="M4.57032 19.9993C4.57032 19.9993 4.5549 16.5797 5.84866 15.285C7.14241 13.9903 10.5774 14.0794 10.5774 14.0794C10.5774 14.0794 10.577 17.4279 9.29224 18.7136C8.00748 19.9993 4.57032 19.9993 4.57032 19.9993Z" fill="#F7D367"/>
<path d="M8.00598 18.284C8.95205 18.284 9.71899 17.5165 9.71899 16.5698C9.71899 15.623 8.95205 14.8555 8.00598 14.8555C7.05991 14.8555 6.29297 15.623 6.29297 16.5698C6.29297 17.5165 7.05991 18.284 8.00598 18.284Z" fill="white"/>
<path d="M19.5707 5C19.5707 5 15.2881 5 10.1491 9.28571C7.57958 11.4286 7.57958 15.2857 8.43608 16.1429C9.29259 17 13.1469 17 15.2881 14.4286C19.5707 9.28571 19.5707 5 19.5707 5Z" fill="#C2D0FF"/>
<path d="M15.7155 7.14453C15.0205 7.14453 14.4252 7.56067 14.1562 8.15596C14.3712 8.05867 14.6081 8.00167 14.859 8.00167C15.805 8.00167 16.572 8.76925 16.572 9.71596C16.572 9.9671 16.5151 10.2041 16.4183 10.4188C17.0131 10.1501 17.4285 9.55439 17.4285 8.85882C17.4285 7.9121 16.6615 7.14453 15.7155 7.14453Z" fill="#1063E0"/>
<path d="M7.58008 17.0016C7.58008 17.0016 7.58008 15.2873 8.00833 14.8587C8.43658 14.4301 13.576 10.1449 14.0039 10.573C14.4317 11.0011 10.1492 16.1444 9.72092 16.573C9.29266 17.0016 7.58008 17.0016 7.58008 17.0016Z" fill="#F15F11"/>
</svg>
