<svg width="20" height="21" viewBox="0 0 20 21" fill="none" xmlns="http://www.w3.org/2000/svg">
<path d="M6.63157 2.77591C6.63157 1.51682 7.71152 0.5 9.03385 0.5H10.9662C12.2909 0.5 13.3684 1.515 13.3684 2.77591V3.39727C13.8947 3.61035 14.3963 3.87527 14.865 4.18773L15.4326 3.87955C16.5783 3.25682 18.0444 3.62636 18.7082 4.70773L19.6748 6.28227C20.3443 7.37318 19.9463 8.76864 18.7906 9.39591L18.2877 9.66909C18.3505 10.2214 18.3505 10.7786 18.2877 11.3309L18.7906 11.6036C19.9458 12.2309 20.3443 13.6264 19.6744 14.7177L18.7077 16.2923C18.0444 17.3741 16.5783 17.7427 15.4326 17.1205L14.865 16.8123C14.3963 17.1247 13.8947 17.3896 13.3684 17.6027V18.2241C13.3684 19.4832 12.2885 20.5 10.9662 20.5H9.03385C7.70914 20.5 6.63157 19.485 6.63157 18.2241V17.4891C6.15818 17.278 5.70695 17.0242 5.28401 16.7314L4.56737 17.1205C3.4217 17.7432 1.95557 17.3736 1.29179 16.2923L0.325166 14.7177C-0.34433 13.6268 0.0537486 12.2314 1.20941 11.6041L1.96605 11.1932C1.92246 10.732 1.92246 10.268 1.96605 9.80682L1.20941 9.39636C0.0542249 8.76909 -0.34433 7.37364 0.325642 6.28227L1.29227 4.70773C1.95557 3.62591 3.4217 3.25727 4.56737 3.87955L5.28401 4.26864C5.70695 3.97575 6.15818 3.72203 6.63157 3.51091V2.77591ZM8.53625 4.11591C8.53622 4.30154 8.47665 4.48271 8.36556 4.63507C8.25448 4.78743 8.09719 4.90368 7.91485 4.96818C7.21138 5.21686 6.55996 5.58319 5.99112 6.05C5.84228 6.1723 5.65748 6.24768 5.46201 6.26583C5.26655 6.28397 5.06999 6.24399 4.89926 6.15136L3.6255 5.45955C3.38313 5.32773 3.07029 5.40682 2.93506 5.62682L1.96891 7.20136C1.83748 7.41545 1.9151 7.68773 2.15128 7.81591L3.46503 8.52955C3.63587 8.62236 3.77242 8.76337 3.85597 8.93321C3.93952 9.10306 3.96597 9.29342 3.93168 9.47818C3.80617 10.1541 3.80617 10.8459 3.93168 11.5218C3.96607 11.7066 3.93968 11.8971 3.85612 12.067C3.77257 12.237 3.63595 12.3781 3.46503 12.4709L2.15128 13.1841C1.9151 13.3123 1.83748 13.5845 1.96891 13.7986L2.93553 15.3732C3.07029 15.5932 3.38313 15.6718 3.62598 15.5405L4.89926 14.8486C5.06995 14.7559 5.26648 14.7159 5.46194 14.734C5.6574 14.752 5.84223 14.8273 5.99112 14.9495C6.55996 15.4164 7.21138 15.7827 7.91485 16.0314C8.09727 16.0959 8.25461 16.2122 8.3657 16.3647C8.47679 16.5171 8.53631 16.6984 8.53625 16.8841V18.2241C8.53625 18.4755 8.75529 18.6818 9.03385 18.6818H10.9662C11.2423 18.6818 11.4637 18.4732 11.4637 18.2241V16.9732C11.4639 16.7815 11.5275 16.5947 11.6455 16.4396C11.7636 16.2845 11.9299 16.169 12.1209 16.1095C12.8733 15.8746 13.5727 15.5067 14.1827 15.025C14.3316 14.9074 14.5145 14.8359 14.7071 14.8199C14.8996 14.8039 15.0927 14.8442 15.2607 14.9355L16.3745 15.54C16.6169 15.6718 16.9297 15.5932 17.0649 15.3732L18.0311 13.7986C18.1625 13.5845 18.0849 13.3123 17.8487 13.1841L16.7773 12.6023C16.6036 12.5079 16.4653 12.3638 16.3822 12.1903C16.299 12.0167 16.2752 11.8226 16.314 11.6355C16.3907 11.2645 16.4297 10.885 16.4297 10.5C16.4297 10.115 16.3907 9.73545 16.314 9.36455C16.2752 9.17737 16.299 8.98327 16.3822 8.80974C16.4653 8.63622 16.6036 8.49208 16.7773 8.39773L17.8487 7.81591C18.0849 7.68773 18.1625 7.41545 18.0311 7.20136L17.0645 5.62682C16.9297 5.40682 16.6169 5.32818 16.374 5.45955L15.2607 6.06409C15.0928 6.15532 14.8999 6.19566 14.7074 6.17975C14.515 6.16383 14.3321 6.09243 14.1832 5.975C13.5729 5.49336 12.8731 5.1256 12.1204 4.89091C11.9295 4.83138 11.7631 4.71575 11.6452 4.56055C11.5273 4.40536 11.4638 4.21855 11.4637 4.02682V2.77591C11.4637 2.52455 11.2447 2.31818 10.9662 2.31818H9.03385C8.75767 2.31818 8.53625 2.52682 8.53625 2.77591V4.11591ZM10 13.6818C9.11598 13.6818 8.26817 13.3466 7.64308 12.7499C7.01798 12.1532 6.66681 11.3439 6.66681 10.5C6.66681 9.65613 7.01798 8.84682 7.64308 8.25012C8.26817 7.65341 9.11598 7.31818 10 7.31818C10.884 7.31818 11.7318 7.65341 12.3569 8.25012C12.982 8.84682 13.3332 9.65613 13.3332 10.5C13.3332 11.3439 12.982 12.1532 12.3569 12.7499C11.7318 13.3466 10.884 13.6818 10 13.6818ZM10 11.8636C10.3789 11.8636 10.7422 11.72 11.0101 11.4642C11.278 11.2085 11.4285 10.8617 11.4285 10.5C11.4285 10.1383 11.278 9.7915 11.0101 9.53576C10.7422 9.28003 10.3789 9.13636 10 9.13636C9.62113 9.13636 9.25779 9.28003 8.98989 9.53576C8.72199 9.7915 8.57149 10.1383 8.57149 10.5C8.57149 10.8617 8.72199 11.2085 8.98989 11.4642C9.25779 11.72 9.62113 11.8636 10 11.8636Z" fill="black"/>
</svg>
