<svg width="24" height="24" viewBox="0 0 24 24" fill="none" xmlns="http://www.w3.org/2000/svg">
<path d="M22.3051 10.05C22.3004 10.0079 22.2957 9.9727 22.2887 9.95161V9.93286L22.2793 9.8813C22.1129 9.07036 21.5762 8.54771 20.9082 8.54771H20.798C19.659 8.54771 18.7355 7.61958 18.7355 6.48521C18.7355 6.22271 18.8574 5.85005 18.909 5.7188C19.2324 4.96411 18.8879 4.10395 18.0887 3.66567L15.5738 2.24302L15.527 2.22661C15.3395 2.16567 15.1215 2.09302 14.8777 2.09302C14.423 2.09302 13.9121 2.30396 13.5957 2.62036C13.1996 3.01177 12.3957 3.59536 11.9176 3.59536C11.4418 3.59536 10.6355 3.01411 10.2395 2.62036C9.90195 2.28755 9.43555 2.09302 8.95742 2.09302C8.70664 2.09302 8.4957 2.16333 8.3082 2.22661L8.26602 2.24302L5.6293 3.67036L5.61289 3.67974C4.97305 4.08052 4.71289 4.99927 5.03867 5.72817L5.04336 5.73755L5.04805 5.74692C5.09961 5.86177 5.25898 6.25083 5.25898 6.59067C5.25898 7.72974 4.33086 8.65317 3.19648 8.65317H3.08633C2.38789 8.65317 1.86523 9.1688 1.71523 9.99614L1.70586 10.043V10.0594C1.70586 10.0829 1.69648 10.1157 1.68945 10.1579C1.63086 10.5118 1.49023 11.3461 1.49023 12.0282C1.49023 12.7102 1.62852 13.5446 1.68945 13.8985C1.69414 13.9407 1.69883 13.9758 1.70586 13.9969V14.0157L1.71523 14.0672C1.88164 14.8782 2.41836 15.4008 3.08633 15.4008H3.14258C4.28164 15.4008 5.20508 16.329 5.20508 17.4633C5.20508 17.7258 5.0832 18.0985 5.03164 18.2297C4.71992 18.9399 5.01523 19.8516 5.7043 20.311L5.72305 20.3204L8.20742 21.7032L8.2543 21.7196C8.4418 21.7805 8.65508 21.8532 8.89883 21.8532C9.41914 21.8532 9.88789 21.654 10.1809 21.3258C10.209 21.3047 10.2371 21.2766 10.2699 21.2485C10.5699 20.986 11.3762 20.2922 11.9082 20.2922C12.3043 20.2922 12.9676 20.7071 13.6355 21.375C13.973 21.7079 14.4395 21.9024 14.9176 21.9024C15.241 21.9024 15.4801 21.8133 15.752 21.6797L15.7613 21.675L18.309 20.2665L18.3184 20.2571C18.9582 19.8563 19.2184 18.9375 18.8926 18.2086L18.8879 18.1993L18.8832 18.1899C18.8785 18.1875 18.6793 17.7727 18.7168 17.4L18.7215 17.3766V17.3532C18.7215 16.2141 19.6496 15.2907 20.784 15.2907H20.9012C21.5996 15.2907 22.1223 14.775 22.2723 13.9477L22.2816 13.9008V13.8844C22.2863 13.8657 22.291 13.8375 22.298 13.8C22.359 13.4555 22.4996 12.6516 22.4996 11.9157C22.5043 11.236 22.366 10.404 22.3051 10.05ZM11.9926 15.2625C10.1902 15.2625 8.73008 13.8024 8.73008 12C8.73008 10.1977 10.1902 8.73755 11.9926 8.73755C13.7949 8.73755 15.2551 10.1977 15.2551 12C15.2551 13.8024 13.7949 15.2625 11.9926 15.2625Z" fill="#808080"/>
</svg>
