<svg width="16" height="16" viewBox="0 0 16 16" fill="none" xmlns="http://www.w3.org/2000/svg">
<path d="M6.84679 15.782C6.70684 15.8823 6.54639 15.9503 6.37698 15.9812C6.20758 16.012 6.03344 16.0049 5.86712 15.9603C5.7008 15.9158 5.54643 15.8349 5.41514 15.7235C5.28385 15.612 5.17891 15.4729 5.10787 15.3161C4.93712 14.9392 4.65261 14.6253 4.2943 14.4185C3.93599 14.2116 3.52188 14.1222 3.11015 14.1628C2.93882 14.1797 2.76588 14.1583 2.6038 14.1003C2.44171 14.0423 2.2945 13.9491 2.17278 13.8273C2.05106 13.7056 1.95786 13.5583 1.89989 13.3962C1.84192 13.2341 1.82061 13.0612 1.83752 12.8898C1.87809 12.4781 1.78864 12.0639 1.58174 11.7056C1.37483 11.3473 1.06086 11.0628 0.683948 10.8921C0.527095 10.8211 0.387951 10.7161 0.276542 10.5849C0.165133 10.4536 0.0842321 10.2992 0.0396682 10.1329C-0.00489577 9.96656 -0.0120131 9.79242 0.0188289 9.62302C0.0496709 9.45361 0.117704 9.29316 0.218028 9.15321C0.458977 8.81696 0.588551 8.41367 0.588551 8C0.588551 7.58633 0.458977 7.18304 0.218028 6.84679C0.117704 6.70684 0.0496709 6.54639 0.0188289 6.37698C-0.0120131 6.20758 -0.00489577 6.03344 0.0396682 5.86712C0.0842321 5.7008 0.165133 5.54643 0.276542 5.41514C0.387951 5.28385 0.527095 5.17891 0.683948 5.10787C1.0608 4.93712 1.37469 4.65261 1.58153 4.2943C1.78837 3.93599 1.87777 3.52188 1.83716 3.11015C1.82031 2.93882 1.84166 2.76588 1.89967 2.6038C1.95769 2.44171 2.05094 2.2945 2.17269 2.17278C2.29444 2.05106 2.44167 1.95786 2.60378 1.89989C2.76588 1.84192 2.93883 1.82061 3.11015 1.83752C3.52192 1.87809 3.93606 1.78864 4.29437 1.58174C4.65269 1.37483 4.93718 1.06086 5.10787 0.683948C5.17891 0.527095 5.28385 0.387951 5.41514 0.276542C5.54643 0.165133 5.7008 0.0842321 5.86712 0.0396682C6.03344 -0.00489577 6.20758 -0.0120131 6.37698 0.0188289C6.54639 0.0496709 6.70684 0.117704 6.84679 0.218028C7.18304 0.458977 7.58633 0.588551 8 0.588551C8.41367 0.588551 8.81696 0.458977 9.15321 0.218028C9.29316 0.117704 9.45361 0.0496709 9.62302 0.0188289C9.79242 -0.0120131 9.96656 -0.00489577 10.1329 0.0396682C10.2992 0.0842321 10.4536 0.165133 10.5849 0.276542C10.7161 0.387951 10.8211 0.527095 10.8921 0.683948C11.0629 1.0608 11.3474 1.37469 11.7057 1.58153C12.064 1.78837 12.4781 1.87777 12.8898 1.83716C13.0612 1.82031 13.2341 1.84166 13.3962 1.89967C13.5583 1.95769 13.7055 2.05094 13.8272 2.17269C13.9489 2.29444 14.0421 2.44167 14.1001 2.60378C14.1581 2.76588 14.1794 2.93883 14.1625 3.11015C14.1219 3.52192 14.2114 3.93606 14.4183 4.29437C14.6252 4.65269 14.9391 4.93718 15.3161 5.10787C15.4729 5.17891 15.612 5.28385 15.7235 5.41514C15.8349 5.54643 15.9158 5.7008 15.9603 5.86712C16.0049 6.03344 16.012 6.20758 15.9812 6.37698C15.9503 6.54639 15.8823 6.70684 15.782 6.84679C15.541 7.18304 15.4114 7.58633 15.4114 8C15.4114 8.41367 15.541 8.81696 15.782 9.15321C15.8823 9.29316 15.9503 9.45361 15.9812 9.62302C16.012 9.79242 16.0049 9.96656 15.9603 10.1329C15.9158 10.2992 15.8349 10.4536 15.7235 10.5849C15.612 10.7161 15.4729 10.8211 15.3161 10.8921C14.9392 11.0629 14.6253 11.3474 14.4185 11.7057C14.2116 12.064 14.1222 12.4781 14.1628 12.8898C14.1797 13.0612 14.1583 13.2341 14.1003 13.3962C14.0423 13.5583 13.9491 13.7055 13.8273 13.8272C13.7056 13.9489 13.5583 14.0421 13.3962 14.1001C13.2341 14.1581 13.0612 14.1794 12.8898 14.1625C12.4781 14.1219 12.0639 14.2114 11.7056 14.4183C11.3473 14.6252 11.0628 14.9391 10.8921 15.3161C10.8211 15.4729 10.7161 15.612 10.5849 15.7235C10.4536 15.8349 10.2992 15.9158 10.1329 15.9603C9.96656 16.0049 9.79242 16.012 9.62302 15.9812C9.45361 15.9503 9.29316 15.8823 9.15321 15.782C8.81696 15.541 8.41367 15.4114 8 15.4114C7.58633 15.4114 7.18304 15.541 6.84679 15.782Z" fill="#6BE1B0"/>
<path d="M5 7.53846L7.28571 10L11 6" stroke="white" stroke-width="1.2"/>
</svg>
