<svg width="24" height="24" viewBox="0 0 24 24" fill="none" xmlns="http://www.w3.org/2000/svg">
<path d="M10.9841 3.30957C11.55 3.30957 12.0328 3.79237 12.0328 4.35821C12.033 4.4959 12.006 4.63228 11.9534 4.75951C11.9008 4.88675 11.8235 5.00232 11.7261 5.09959C11.6286 5.19686 11.5129 5.27391 11.3856 5.32631C11.2582 5.37871 11.1218 5.40542 10.9841 5.40491H5.37788V18.1797H10.9841C11.55 18.1797 12.0328 18.6606 12.0328 19.2264C12.0328 19.7942 11.55 20.2751 10.9841 20.2751H4.35821C4.08067 20.2711 3.81569 20.1588 3.61979 19.9621C3.42389 19.7655 3.31256 19.5001 3.30957 19.2226V4.35821C3.30957 3.79044 3.7634 3.30957 4.35821 3.30957H10.9822H10.9841ZM13.3324 6.25464C13.3324 5.37594 14.3811 4.95301 14.974 5.57486L20.4122 11.127C20.7791 11.494 20.7791 12.0888 20.4122 12.4866L14.9759 18.0059C14.383 18.6007 13.3344 18.1759 13.3344 17.3262V16.0226C13.3354 15.896 13.3112 15.7705 13.2633 15.6533C13.2153 15.5362 13.1445 15.4298 13.055 15.3403C12.9655 15.2507 12.859 15.1799 12.7419 15.132C12.6248 15.084 12.4992 15.0598 12.3726 15.0609H7.92512C7.79853 15.0619 7.67301 15.0377 7.55586 14.9898C7.43871 14.9418 7.33228 14.871 7.24277 14.7815C7.15326 14.692 7.08246 14.5855 7.03449 14.4684C6.98653 14.3512 6.96235 14.2257 6.96338 14.0991V9.48359C6.96338 8.94672 7.38824 8.52185 7.92512 8.52185H12.3726C12.9095 8.52185 13.3344 8.09699 13.3344 7.55819L13.3324 6.25464Z" fill="#808080"/>
</svg>
