<?xml version="1.0" standalone="no"?><!DOCTYPE svg PUBLIC "-//W3C//DTD SVG 1.1//EN" "http://www.w3.org/Graphics/SVG/1.1/DTD/svg11.dtd"><svg t="1672216816210" class="icon" viewBox="0 0 1024 1024" version="1.1" xmlns="http://www.w3.org/2000/svg" p-id="1336" xmlns:xlink="http://www.w3.org/1999/xlink" width="200" height="200"><path d="M839.96672 351.35488c-3.85024 291.0208-189.97248 490.37312-467.7632 502.90688C257.6384 859.50464 174.61248 822.4768 102.4 776.6016c84.66432 13.5168 189.6448-20.31616 245.84192-68.4032-83.02592-8.06912-132.13696-50.33984-155.15648-118.29248a193.9456 193.9456 0 0 0 72.04864-1.80224c-74.91584-25.06752-128.36864-71.35232-131.15392-168.3456 21.01248 9.54368 42.92608 18.55488 72.04864 20.31616C149.9136 408.20736 108.544 291.6352 155.97568 214.6304c83.18976 91.17696 183.25504 165.60128 347.58656 175.63648-41.24672-176.3328 192.43008-271.9744 290.24256-153.43616 41.3696-7.9872 74.9568-23.67488 107.35616-40.7552-13.312 40.96-38.99392 69.59104-70.2464 92.44672 34.32448-4.62848 64.7168-13.02528 90.68544-25.8048-16.09728 33.42336-51.32288 63.40608-81.63328 88.6784z" p-id="1337"></path></svg>