<svg width="15" height="12" viewBox="0 0 15 12" fill="none" xmlns="http://www.w3.org/2000/svg">
<path fill-rule="evenodd" clip-rule="evenodd" d="M11.9245 0.505501C12.0451 0.138791 12.5638 0.138791 12.6845 0.505501L12.8814 1.10447C12.9211 1.22515 13.0158 1.31979 13.1365 1.35948L13.7354 1.55647C14.1021 1.67708 14.1021 2.19582 13.7354 2.31643L13.1365 2.51342C13.0158 2.55311 12.9211 2.64775 12.8814 2.76843L12.6845 3.3674C12.5638 3.73411 12.0451 3.73411 11.9245 3.3674L11.7275 2.76843C11.6878 2.64775 11.5932 2.55311 11.4725 2.51342L10.8735 2.31643C10.5068 2.19582 10.5068 1.67708 10.8735 1.55647L11.4725 1.35948C11.5932 1.31979 11.6878 1.22515 11.7275 1.10447L11.9245 0.505501ZM11.9245 8.63391C12.0451 8.2672 12.5638 8.2672 12.6845 8.63391L12.8814 9.23288C12.9211 9.35356 13.0158 9.44821 13.1365 9.48789L13.7354 9.68488C14.1021 9.80549 14.1021 10.3242 13.7354 10.4448L13.1365 10.6418C13.0158 10.6815 12.9211 10.7762 12.8814 10.8968L12.6845 11.4958C12.5638 11.8625 12.0451 11.8625 11.9245 11.4958L11.7275 10.8968C11.6878 10.7762 11.5932 10.6815 11.4725 10.6418L10.8735 10.4448C10.5068 10.3242 10.5068 9.80549 10.8735 9.68488L11.4725 9.48789C11.5932 9.44821 11.6878 9.35356 11.7275 9.23288L11.9245 8.63391ZM6.40341 1.24445C6.2828 0.877738 5.76405 0.877739 5.64345 1.24445L4.6235 4.34572C4.58381 4.46639 4.48916 4.56104 4.36849 4.60073L1.26722 5.62068C0.90051 5.74128 0.90051 6.26003 1.26722 6.38063L4.36849 7.40058C4.48916 7.44027 4.58381 7.53492 4.6235 7.65559L5.64345 10.7569C5.76405 11.1236 6.2828 11.1236 6.40341 10.7569L7.42336 7.65559C7.46304 7.53492 7.55769 7.44027 7.67837 7.40058L10.7796 6.38063C11.1463 6.26003 11.1463 5.74128 10.7796 5.62068L7.67837 4.60073C7.55769 4.56104 7.46304 4.46639 7.42336 4.34572L6.40341 1.24445Z" fill="white"/>
</svg>
