<svg width="15" height="12" viewBox="0 0 15 12" fill="none" xmlns="http://www.w3.org/2000/svg">
<path d="M12.9981 2.57143H2.78739C2.5506 2.57143 2.35882 2.37964 2.35882 2.14286C2.35882 1.90607 2.5506 1.71429 2.78739 1.71429H13.0731C13.3099 1.71429 13.5017 1.5225 13.5017 1.28571C13.5017 0.575625 12.926 0 12.216 0H2.35882C1.41194 0 0.644531 0.767411 0.644531 1.71429V10.2857C0.644531 11.2326 1.41194 12 2.35882 12H12.9981C13.7486 12 14.3588 11.4233 14.3588 10.7143V3.85714C14.3588 3.14812 13.7486 2.57143 12.9981 2.57143ZM11.7874 8.14286C11.3141 8.14286 10.9302 7.75902 10.9302 7.28571C10.9302 6.81241 11.3141 6.42857 11.7874 6.42857C12.2607 6.42857 12.6445 6.81241 12.6445 7.28571C12.6445 7.75902 12.2607 8.14286 11.7874 8.14286Z" fill="white"/>
</svg>
