<?xml version="1.0" standalone="no"?><!DOCTYPE svg PUBLIC "-//W3C//DTD SVG 1.1//EN" "http://www.w3.org/Graphics/SVG/1.1/DTD/svg11.dtd"><svg t="1672216803694" class="icon" viewBox="0 0 1024 1024" version="1.1" xmlns="http://www.w3.org/2000/svg" p-id="1199" xmlns:xlink="http://www.w3.org/1999/xlink" width="200" height="200"><path d="M384.390095 880.737524a607.768381 607.768381 0 0 1-33.645714-94.354286 436.809143 436.809143 0 0 0-73.337905 37.351619c32.182857 24.234667 68.169143 43.593143 106.983619 57.002667z m-178.322285-126.683429a534.966857 534.966857 0 0 1 124.245333-64.170666A1124.156952 1124.156952 0 0 1 317.927619 560.761905H124.928a388.242286 388.242286 0 0 0 81.13981 193.29219zM124.928 463.238095H317.927619c1.80419-45.104762 6.046476-88.454095 12.385524-129.121524a535.015619 535.015619 0 0 1-124.245333-64.170666A388.242286 388.242286 0 0 0 124.928 463.238095z m152.478476-262.972952c23.113143 14.628571 47.640381 27.160381 73.337905 37.351619 9.557333-35.011048 20.870095-66.706286 33.645714-94.354286a389.12 389.12 0 0 0-106.983619 57.051429z m362.203429-57.002667c12.775619 27.648 24.088381 59.392 33.645714 94.403048a437.052952 437.052952 0 0 0 73.386667-37.351619 389.217524 389.217524 0 0 0-106.983619-57.051429z m178.371047 126.732191a534.918095 534.918095 0 0 1-124.342857 64.170666c6.38781 40.667429 10.678857 83.968 12.434286 129.072762h192.999619a388.193524 388.193524 0 0 0-81.091048-193.243428z m81.091048 290.767238H706.072381a1125.376 1125.376 0 0 1-12.385524 129.072762 534.918095 534.918095 0 0 1 124.294095 64.170666 388.242286 388.242286 0 0 0 81.091048-193.243428z m-152.429714 262.92419a437.101714 437.101714 0 0 0-73.386667-37.351619 608.207238 608.207238 0 0 1-33.645714 94.403048 389.12 389.12 0 0 0 107.032381-57.051429zM999.619048 512c0 269.312-218.307048 487.619048-487.619048 487.619048s-487.619048-218.307048-487.619048-487.619048S242.688 24.380952 512 24.380952s487.619048 218.307048 487.619048 487.619048z m-400.822858 153.258667c4.729905-32.719238 8.094476-67.779048 9.70362-104.496762H415.451429c1.609143 36.766476 4.973714 71.777524 9.752381 104.496762a540.281905 540.281905 0 0 1 173.494857 0z m-39.399619-461.824c7.168 17.944381 13.799619 37.888 19.748572 59.684571a442.514286 442.514286 0 0 1-134.290286 0c5.948952-21.796571 12.580571-41.788952 19.797333-59.684571 14.921143-37.351619 30.232381-60.952381 42.276572-73.728 1.950476-2.096762 3.657143-3.657143 5.071238-4.876191 1.414095 1.219048 3.072 2.779429 5.071238 4.876191 12.04419 12.726857 27.355429 36.376381 42.325333 73.728z m-47.299047 162.279619c-29.598476 0-58.61181-2.438095-86.844953-6.972953-4.778667 32.719238-8.143238 67.779048-9.752381 104.496762h192.99962a1032.387048 1032.387048 0 0 0-9.752381-104.496762c-28.233143 4.583619-57.197714 6.972952-86.698667 6.972953z m67.047619 395.166476a442.61181 442.61181 0 0 0-134.290286 0c5.948952 21.796571 12.580571 41.788952 19.797333 59.684571 14.921143 37.351619 30.232381 60.952381 42.276572 73.728 1.950476 2.096762 3.657143 3.705905 5.071238 4.876191 1.414095-1.170286 3.072-2.779429 5.071238-4.876191 12.04419-12.726857 27.355429-36.376381 42.325333-73.728 7.168-17.895619 13.799619-37.888 19.748572-59.684571z" p-id="1200"></path></svg>