<?xml version="1.0" standalone="no"?><!DOCTYPE svg PUBLIC "-//W3C//DTD SVG 1.1//EN" "http://www.w3.org/Graphics/SVG/1.1/DTD/svg11.dtd"><svg t="1674987708098" class="icon" viewBox="0 0 1024 1024" version="1.1" xmlns="http://www.w3.org/2000/svg" p-id="4033" xmlns:xlink="http://www.w3.org/1999/xlink" width="200" height="200"><path d="M512 0c282.773 0 512 229.227 512 512s-229.227 512-512 512S0 794.773 0 512 229.227 0 512 0z m169.75 554.667h-339.5c9.43 217.792 89.814 384 169.75 384 79.915 0 160.32-166.208 169.75-384z m-424.918 0l-169.387 0.021c15.659 157.568 117.035 289.92 256.854 349.76-50.283-85.739-82.07-210.347-87.467-349.76z m679.723 0.021H767.168c-5.397 139.435-37.184 264.021-87.467 349.739 139.819-59.798 241.195-192.171 256.854-349.739zM344.32 119.573l-4.736 2.048C202.176 182.38 102.912 313.536 87.467 469.333h169.386c5.398-139.434 37.184-264.042 87.467-349.76zM512 85.333l-3.2 0.086c-78.848 4.352-157.227 169.045-166.55 383.914h339.5c-9.43-217.77-89.814-384-169.75-384z m167.701 34.219l3.136 5.44c48.47 85.504 79.04 207.808 84.31 344.341h169.386C920.896 311.744 819.5 179.392 679.68 119.552z" p-id="4034"></path></svg>