<svg width="30" height="30" viewBox="0 0 30 30" fill="none" xmlns="http://www.w3.org/2000/svg">
<ellipse cx="14.5143" cy="15" rx="14.5143" ry="14.5" fill="#1063E0"/>
<mask id="mask0_507_2995" style="mask-type:alpha" maskUnits="userSpaceOnUse" x="0" y="0" width="30" height="30">
<ellipse cx="14.5143" cy="15" rx="14.5143" ry="14.5" fill="#1063E0"/>
</mask>
<g mask="url(#mask0_507_2995)">
<path fill-rule="evenodd" clip-rule="evenodd" d="M10.0416 9.50346C9.77358 9.70374 9.85468 10.1245 10.178 10.2111L13.7952 11.1794C14.6508 11.4084 15.5302 10.9012 15.7594 10.0465L17.0751 5.14089C17.1736 4.77362 16.7525 4.48875 16.4477 4.71649L10.0416 9.50346ZM21.7499 13.3088C22.0732 13.3953 22.3541 13.0714 22.2222 12.764L19.0191 5.29944C18.8691 4.94999 18.3618 4.98633 18.2633 5.3536L16.9212 10.3575C16.692 11.2122 17.1997 12.0907 18.0552 12.3197L21.7499 13.3088ZM9.17157 11.8738C9.09445 11.5767 9.3667 11.3069 9.66344 11.3863L13.4137 12.3902C14.2693 12.6192 14.777 13.4978 14.5477 14.3525L13.5412 18.1053C13.4552 18.4258 13.6456 18.7553 13.9664 18.8411C14.2873 18.927 14.617 18.7368 14.703 18.4163L15.7096 14.6635C15.9388 13.8088 16.8182 13.3016 17.6737 13.5306L21.5015 14.5552C21.7982 14.6346 21.8989 15.0042 21.6835 15.223L13.4619 23.5698C13.3787 23.6543 13.3596 23.7099 13.3279 23.8283C12.9885 25.0935 11.6868 25.8443 10.4204 25.5053C9.13829 25.1621 8.38538 23.8399 8.72714 22.5656C8.78496 22.3501 8.65578 22.1303 8.44662 22.0743L6.5057 21.2724C6.15279 21.1779 5.94336 20.8155 6.03792 20.463C6.13248 20.1104 6.49523 19.9012 6.84814 19.9957L8.78906 20.7975C9.71064 21.0442 10.2503 21.9937 10.0051 22.9077C9.85073 23.4834 10.1931 24.0761 10.7628 24.2285C11.2787 24.3666 12.2844 23.8648 12.1142 23.209L9.17157 11.8738Z" fill="white"/>
</g>
</svg>
