<svg width="34" height="34" viewBox="0 0 34 34" fill="none" xmlns="http://www.w3.org/2000/svg">
<path d="M17 34C26.3888 34 34 26.3888 34 17C34 7.61116 26.3888 0 17 0C7.61116 0 0 7.61116 0 17C0 26.3888 7.61116 34 17 34Z" fill="url(#paint0_linear_161_1312)"/>
<path fill-rule="evenodd" clip-rule="evenodd" d="M14.5846 23.9473C14.3074 24.15 13.9021 23.7257 14.1146 23.456C16.0885 20.9502 17.7393 18.4497 19.0641 16.1898C19.1691 16.0106 19.3879 15.9326 19.5829 16.0042C21.3115 16.6391 22.9033 17.1232 24.2086 17.4664C24.5981 17.5688 24.6568 18.112 24.2948 18.2887C22.5846 19.1238 20.1232 20.366 18.2588 21.4724C17.1096 22.1543 15.8126 23.0493 14.5846 23.9473ZM10.6788 25.8749C10.4866 26.0863 10.1422 25.9093 10.1975 25.629C10.5779 23.7023 11.0939 20.84 11.2316 18.8638C11.3727 16.8379 11.2152 14.3198 11.0779 12.7219C11.0476 12.3687 11.4366 12.1293 11.7406 12.3117C13.7274 13.5038 15.8075 14.4977 17.7842 15.3065C18.0247 15.4049 18.1246 15.6927 17.9921 15.9163C16.1637 19.0012 13.7227 22.5259 10.6788 25.8749ZM12.7845 11.6938C12.4351 11.4915 12.5513 10.9693 12.952 10.9204C14.1127 10.7787 15.5525 10.5784 16.657 10.3457C17.9007 10.0837 19.4834 9.62078 20.6179 9.26998C20.9609 9.16392 21.2734 9.50072 21.1316 9.83058C20.6185 11.0248 19.8921 12.534 18.9545 14.234C18.8517 14.4204 18.6261 14.5012 18.4287 14.4215C16.5898 13.6802 14.6515 12.7744 12.7845 11.6938ZM21.9553 10.5996C22.1115 10.2457 22.6287 10.2527 22.7723 10.6119C23.0874 11.4002 23.472 12.31 23.8404 13.0454C24.2755 13.9137 24.9478 15.0656 25.4826 15.9548C25.6755 16.2757 25.394 16.67 25.0305 16.58C23.7358 16.2593 22.0744 15.7743 20.2415 15.1133C19.9964 15.025 19.8906 14.7377 20.0154 14.509C20.8203 13.0343 21.4672 11.7048 21.9553 10.5996Z" fill="white"/>
<defs>
<linearGradient id="paint0_linear_161_1312" x1="12.4739" y1="3.0912e-07" x2="21.9403" y2="29.0048" gradientUnits="userSpaceOnUse">
<stop stop-color="#30E8B6"/>
<stop offset="1" stop-color="#7D47FF"/>
</linearGradient>
</defs>
</svg>
