<svg width="17" height="17" viewBox="0 0 17 17" fill="none" xmlns="http://www.w3.org/2000/svg">
<path d="M15.8913 8.60295C16.4542 9.26804 16.4606 9.90764 15.9105 10.5217L9.96234 16.4888C9.83445 16.5912 9.69692 16.6647 9.54982 16.7095C9.40272 16.7543 9.25248 16.7702 9.09889 16.7574C8.94543 16.7446 8.80152 16.7127 8.66716 16.6615C8.53292 16.6103 8.42094 16.54 8.33138 16.4504C6.89867 15.0178 5.61952 13.7323 4.49382 12.5938L3.07395 11.1548C2.60064 10.6943 2.18174 10.2786 1.8172 9.90764C1.45254 9.53673 1.15517 9.23609 0.924873 9.0059L0.560329 8.64127C0.534762 8.61571 0.493149 8.56124 0.435632 8.47823C0.378116 8.39503 0.317291 8.28636 0.2533 8.15205C0.189405 8.01767 0.131793 7.86739 0.0806342 7.70111C0.0294758 7.53478 0.00390625 7.35577 0.00390625 7.1639V6.81848C0.00390625 6.63945 0.00709579 6.41563 0.013451 6.14696C0.0199262 5.87837 0.0263079 5.58416 0.0326631 5.26441C0.0390423 4.94456 0.0423276 4.61843 0.0423276 4.28585C0.0550645 3.50554 0.0678949 2.64212 0.0806317 1.6956C0.106223 1.54206 0.134982 1.38861 0.167025 1.23514C0.198973 1.0816 0.278889 0.934505 0.406871 0.793793C0.534757 0.665911 0.678666 0.579523 0.838595 0.534744C0.99843 0.489967 1.14234 0.467662 1.27032 0.467662H7.10338C7.12895 0.454831 7.21853 0.451642 7.37199 0.458021C7.52554 0.464856 7.62148 0.480879 7.6598 0.505987C7.73653 0.532035 7.82292 0.576811 7.91886 0.64032C8.0148 0.704693 8.09472 0.768682 8.15871 0.832191L15.8913 8.60295ZM2.80532 4.38181C3.13792 4.38181 3.41926 4.26671 3.64956 4.03642C3.87986 3.80623 3.99489 3.5248 3.99489 3.19222C3.99489 2.85963 3.87986 2.57828 3.64956 2.34801C3.41926 2.1177 3.13792 2.00267 2.80532 2.00267C2.47272 2.00267 2.18807 2.11772 1.95142 2.34801C1.71476 2.57828 1.59642 2.85963 1.59642 3.19222C1.59642 3.5248 1.71476 3.80623 1.95142 4.03642C2.18807 4.26674 2.47275 4.38181 2.80532 4.38181Z" fill="black"/>
</svg>
