<svg width="18" height="18" viewBox="0 0 18 18" fill="none" xmlns="http://www.w3.org/2000/svg">
<path d="M14.8887 1.40625H3.11133C2.49258 1.40625 1.98633 1.9125 1.98633 2.53125V15.4688C1.98633 16.0875 2.49258 16.5938 3.11133 16.5938H12.5684C14.4633 16.5938 16.0137 15.0434 16.0137 13.1484V2.53125C16.0137 1.9125 15.5074 1.40625 14.8887 1.40625ZM5.4668 4.64062H9.1582C9.54492 4.64062 9.86133 4.95703 9.86133 5.34375C9.86133 5.73047 9.54492 6.04688 9.1582 6.04688H5.4668C5.08008 6.04688 4.76367 5.73047 4.76367 5.34375C4.76367 4.95703 5.08008 4.64062 5.4668 4.64062ZM5.4668 7.59375H11.0918C11.4785 7.59375 11.7949 7.91016 11.7949 8.29688C11.7949 8.68359 11.4785 9 11.0918 9H5.4668C5.08008 9 4.76367 8.68359 4.76367 8.29688C4.76367 7.91016 5.08008 7.59375 5.4668 7.59375ZM7.22461 11.9355H5.4668C5.08008 11.9355 4.76367 11.6191 4.76367 11.2324C4.76367 10.8457 5.08008 10.5293 5.4668 10.5293H7.22461C7.61133 10.5293 7.92773 10.8457 7.92773 11.2324C7.92773 11.6191 7.61133 11.9355 7.22461 11.9355ZM13.9395 10.2234L12.9938 11.8898H13.6951C13.7408 11.8898 13.7777 11.9268 13.7777 11.9725V12.5561C13.7777 12.6018 13.7408 12.6387 13.6951 12.6387H12.6018V13.0676H13.6934C13.7391 13.0676 13.776 13.1045 13.776 13.1502V13.7338C13.776 13.7795 13.7391 13.8164 13.6934 13.8164H12.6018V14.9414C12.6018 14.9871 12.5648 15.024 12.5191 15.024H11.6121C11.5664 15.024 11.5295 14.9871 11.5295 14.9414V13.8199H10.473C10.4273 13.8199 10.3904 13.783 10.3904 13.7373V13.1537C10.3904 13.108 10.4273 13.0711 10.473 13.0711H11.5295V12.6422H10.473C10.4273 12.6422 10.3904 12.6053 10.3904 12.5596V11.976C10.3904 11.9285 10.4273 11.8916 10.473 11.8916H11.1146L10.1672 10.2234C10.1373 10.1689 10.1742 10.1004 10.2393 10.1004H11.3027L12.0832 11.6016L12.8584 10.1004H13.8674C13.9307 10.1004 13.9711 10.1672 13.9395 10.2234Z" fill="black"/>
</svg>
