<svg width="20" height="20" viewBox="0 0 20 20" fill="none" xmlns="http://www.w3.org/2000/svg">
<path d="M7.06039 3.74998C6.84039 3.74998 6.65039 3.55998 6.65039 3.33998V1.63998C6.65039 1.41998 6.84039 1.22998 7.06039 1.22998H12.9704C13.1904 1.22998 13.3804 1.41998 13.3804 1.63998V3.31998C13.3804 3.53998 13.1904 3.72998 12.9704 3.72998H7.06039V3.74998Z" fill="#2C2C2C"/>
<path d="M16.7204 2.65002H14.2804V4.01002C14.2804 4.33002 14.0204 4.58002 13.7104 4.58002H6.32039C6.01039 4.58002 5.75039 4.32002 5.75039 4.01002V2.66002H3.31039C2.95039 2.66002 2.65039 2.95002 2.65039 3.32002V16.75C2.65039 17.11 2.94039 17.41 3.31039 17.41H16.7404C17.0304 17.41 17.3704 17.33 17.3704 16.74V3.31002C17.3804 2.96002 17.0804 2.65002 16.7204 2.65002ZM14.0904 8.49002L9.34039 13.23C9.09039 13.48 8.70039 13.48 8.45039 13.23L5.91039 10.69C5.66039 10.44 5.66039 10.05 5.91039 9.80002C6.16039 9.55002 6.55039 9.55002 6.80039 9.80002L8.90039 11.88L13.1904 7.59002C13.4404 7.34002 13.8304 7.34002 14.0804 7.59002C14.2104 7.72002 14.2804 7.87002 14.2804 8.04002C14.2804 8.21002 14.2204 8.36002 14.0904 8.49002Z" fill="#2C2C2C"/>
</svg>
