<svg width="18" height="18" viewBox="0 0 18 18" fill="none" xmlns="http://www.w3.org/2000/svg">
<path d="M6.01818 13.7002C6.24848 13.7002 6.46667 13.7426 6.67273 13.8275C6.87879 13.9123 7.05758 14.0305 7.20909 14.182C7.36061 14.3335 7.48182 14.5123 7.57273 14.7184C7.66364 14.9244 7.70909 15.1426 7.70909 15.3729C7.70909 15.6032 7.66364 15.8214 7.57273 16.0275C7.48182 16.2335 7.36061 16.4123 7.20909 16.5638C7.05758 16.7153 6.87879 16.8366 6.67273 16.9275C6.46667 17.0184 6.24848 17.0638 6.01818 17.0638C5.77576 17.0638 5.55151 17.0184 5.34545 16.9275C5.13939 16.8366 4.96061 16.7153 4.80909 16.5638C4.65758 16.4123 4.53636 16.2335 4.44545 16.0275C4.35455 15.8214 4.30909 15.6032 4.30909 15.3729C4.30909 15.1426 4.35455 14.9244 4.44545 14.7184C4.53636 14.5123 4.65758 14.3335 4.80909 14.182C4.96061 14.0305 5.13939 13.9123 5.34545 13.8275C5.55151 13.7426 5.77576 13.7002 6.01818 13.7002ZM13.5818 13.7366C13.8121 13.7366 14.0333 13.779 14.2455 13.8638C14.4576 13.9487 14.6394 14.0669 14.7909 14.2184C14.9424 14.3699 15.0636 14.5487 15.1545 14.7547C15.2455 14.9608 15.2909 15.179 15.2909 15.4093C15.2909 15.6396 15.2455 15.8578 15.1545 16.0638C15.0636 16.2699 14.9424 16.4487 14.7909 16.6002C14.6394 16.7517 14.4576 16.8729 14.2455 16.9638C14.0333 17.0547 13.8121 17.1002 13.5818 17.1002C13.3515 17.1002 13.1333 17.0547 12.9273 16.9638C12.7212 16.8729 12.5424 16.7517 12.3909 16.6002C12.2394 16.4487 12.1182 16.2699 12.0273 16.0638C11.9364 15.8578 11.8909 15.6396 11.8909 15.4093C11.8909 15.179 11.9364 14.9608 12.0273 14.7547C12.1182 14.5487 12.2394 14.3699 12.3909 14.2184C12.5424 14.0669 12.7212 13.9487 12.9273 13.8638C13.1333 13.779 13.3515 13.7366 13.5818 13.7366ZM16.6364 3.40928C16.9758 3.40928 17.2394 3.45474 17.4273 3.54565C17.6152 3.63656 17.7485 3.74868 17.8273 3.88201C17.9061 4.01535 17.9424 4.15777 17.9364 4.30928C17.9303 4.4608 17.9091 4.5911 17.8727 4.70019C17.8364 4.80928 17.7576 5.03353 17.6364 5.37292C17.5152 5.71231 17.3848 6.08504 17.2455 6.4911C17.1061 6.89716 16.9667 7.30019 16.8273 7.70019C16.6879 8.10019 16.5758 8.41535 16.4909 8.64565C16.3333 9.1305 16.1364 9.46686 15.9 9.65474C15.6636 9.84262 15.3697 9.93656 15.0182 9.93656H14.3818H13.2182H11.6909H9.98182H5.47273L5.72727 11.5729H14.9091C15.4909 11.5729 15.7818 11.8214 15.7818 12.3184C15.7818 12.5608 15.7242 12.7699 15.6091 12.9456C15.4939 13.1214 15.2667 13.2093 14.9273 13.2093H14.0545H12.3818H10.2727H8.14545H6.38182H5.4C5.15758 13.2093 4.95455 13.1547 4.79091 13.0456C4.62727 12.9366 4.49091 12.7941 4.38182 12.6184C4.27273 12.4426 4.18485 12.2517 4.11818 12.0456C4.05152 11.8396 4 11.6456 3.96364 11.4638C3.95152 11.3911 3.91818 11.2153 3.86364 10.9366C3.80909 10.6578 3.74242 10.3093 3.66364 9.8911C3.58485 9.47292 3.49697 9.00625 3.4 8.4911C3.30303 7.97595 3.20606 7.45777 3.10909 6.93656C2.87879 5.71231 2.61818 4.34868 2.32727 2.84565H0.963636C0.781818 2.84565 0.630303 2.80019 0.509091 2.70928C0.387879 2.61838 0.287879 2.50928 0.209091 2.38201C0.130303 2.25474 0.0757576 2.11838 0.0454545 1.97292C0.0151515 1.82747 0 1.69413 0 1.57292C0 1.3305 0.0818182 1.1305 0.245455 0.972921C0.409091 0.815345 0.630303 0.736557 0.909091 0.736557H1.29091H1.67273H2.12727H2.74545C2.98788 0.736557 3.18182 0.772921 3.32727 0.845648C3.47273 0.918375 3.58788 1.00928 3.67273 1.11838C3.75758 1.22747 3.81818 1.34262 3.85455 1.46383C3.89091 1.58504 3.92121 1.68807 3.94545 1.77292C3.9697 1.86989 3.99394 2.00625 4.01818 2.18201C4.04242 2.35777 4.06667 2.53656 4.09091 2.71838C4.12727 2.93656 4.16364 3.16686 4.2 3.40928H16.6364ZM15.2727 2.82747H8.61818L11.0182 0.427466C11.297 0.148678 11.603 0.00625403 11.9364 0.000193424C12.2697 -0.00586718 12.5758 0.130496 12.8545 0.409284L15.2727 2.82747Z" fill="black"/>
</svg>
