<svg width="16" height="13" viewBox="0 0 16 13" fill="none" xmlns="http://www.w3.org/2000/svg">
<g clip-path="url(#clip0_878_31346)">
<path d="M1.18525 7.59989C0.776269 7.5901 0.394097 7.8027 0.186729 8.15534C-0.0206394 8.50799 -0.0206394 8.94531 0.186729 9.29796C0.394097 9.65061 0.776269 9.8632 1.18525 9.85341H12.1529L11.4387 10.5676C11.1545 10.8519 11.0436 11.2662 11.1477 11.6545C11.2518 12.0428 11.5552 12.346 11.9435 12.45C12.3318 12.554 12.7461 12.4429 13.0303 12.1585L15.6657 9.52309C15.6728 9.51664 15.6786 9.50955 15.6844 9.50309L15.7031 9.48245C15.7062 9.47946 15.709 9.47622 15.7115 9.47277L15.7199 9.46309C15.7238 9.45948 15.7275 9.4556 15.7309 9.45148L15.7419 9.43858C15.7491 9.43104 15.7555 9.42283 15.7612 9.41406L15.7677 9.40567C15.7696 9.40257 15.772 9.39974 15.7748 9.39729L15.7851 9.38309L15.7973 9.36761L15.8025 9.35922L15.8077 9.35148C15.8105 9.34627 15.8137 9.3413 15.8173 9.33664C15.8212 9.33214 15.8245 9.32715 15.827 9.32181C15.8295 9.31573 15.8333 9.31024 15.838 9.30568C15.8403 9.3007 15.8432 9.29595 15.8464 9.29148C15.8495 9.28676 15.8523 9.2818 15.8548 9.27664C15.8576 9.27061 15.8616 9.26514 15.8664 9.26052L15.8702 9.25213C15.8742 9.24522 15.8772 9.23785 15.8793 9.23019C15.8812 9.22466 15.8843 9.2196 15.8883 9.21535C15.8925 9.2085 15.8957 9.20112 15.898 9.19342C15.8982 9.19214 15.8982 9.19083 15.898 9.18955C15.8997 9.18534 15.9016 9.18125 15.9038 9.17729C15.906 9.17334 15.9079 9.16924 15.9096 9.16503L15.918 9.13987L15.9231 9.12632C15.9231 9.12181 15.927 9.11665 15.9283 9.11277C15.9296 9.1089 15.9283 9.10503 15.9328 9.10181L15.9367 9.09149C15.9388 9.08466 15.9414 9.07798 15.9444 9.07149L15.9483 9.06116C15.9487 9.05795 15.9487 9.0547 15.9483 9.05149C15.948 9.04827 15.948 9.04502 15.9483 9.04181L15.9573 9.00891C15.9585 9.0036 15.9585 8.99809 15.9573 8.99278L15.9612 8.976L15.9651 8.95923C15.9648 8.95666 15.9648 8.95406 15.9651 8.95149C15.9655 8.94763 15.9655 8.94373 15.9651 8.93987C15.9685 8.92811 15.9704 8.91598 15.9709 8.90375C15.9705 8.90031 15.9705 8.89686 15.9709 8.89342C15.9712 8.88978 15.9712 8.8861 15.9709 8.88245C15.9724 8.87154 15.9724 8.86047 15.9709 8.84955C15.9706 8.84504 15.9706 8.84052 15.9709 8.836C15.9712 8.83149 15.9712 8.82697 15.9709 8.82246C15.9706 8.81881 15.9706 8.81514 15.9709 8.81149C15.9713 8.80633 15.9713 8.80116 15.9709 8.796V8.76891V8.74181C15.9721 8.72356 15.9721 8.70523 15.9709 8.68697C15.9722 8.67799 15.9722 8.66886 15.9709 8.65988C15.9721 8.65089 15.9721 8.64177 15.9709 8.63278C15.9712 8.62719 15.9712 8.62159 15.9709 8.61601C15.9706 8.61063 15.9706 8.60525 15.9709 8.59988C15.9712 8.59623 15.9712 8.59256 15.9709 8.58891C15.9705 8.58526 15.9705 8.58159 15.9709 8.57794V8.56052C15.9716 8.55452 15.9716 8.54846 15.9709 8.54246C15.9712 8.53989 15.9712 8.53729 15.9709 8.53472C15.9701 8.53088 15.9701 8.52694 15.9709 8.5231L15.967 8.50633L15.9631 8.48956C15.962 8.48425 15.962 8.47874 15.9631 8.47343L15.9541 8.44053C15.9537 8.43731 15.9537 8.43406 15.9541 8.43085C15.9545 8.42763 15.9545 8.42439 15.9541 8.42117C15.9517 8.41075 15.9478 8.40075 15.9425 8.39149L15.9386 8.38182C15.9374 8.37786 15.9358 8.37398 15.9341 8.3702L15.929 8.35666C15.929 8.35214 15.9251 8.34698 15.9238 8.34311L15.9154 8.31859C15.9138 8.31436 15.9118 8.31026 15.9096 8.30633C15.9074 8.30237 15.9055 8.29828 15.9038 8.29408L15.8986 8.28053C15.8986 8.27601 15.8948 8.27085 15.8935 8.26698V8.26311C15.8911 8.25763 15.8879 8.25261 15.8838 8.24827C15.884 8.24612 15.884 8.24396 15.8838 8.24182C15.8796 8.23496 15.8764 8.22759 15.8741 8.21988C15.8711 8.21394 15.8672 8.2085 15.8625 8.20375C15.8625 8.19795 15.8567 8.19343 15.8541 8.18892L15.8464 8.17472C15.8434 8.16873 15.8395 8.16328 15.8348 8.15859C15.8322 8.1536 15.8292 8.14885 15.8257 8.1444C15.822 8.13979 15.8188 8.13482 15.816 8.12956C15.8144 8.12657 15.8125 8.12375 15.8102 8.12117C15.8082 8.11858 15.8065 8.11577 15.8051 8.11279C15.801 8.10548 15.7963 8.09856 15.7909 8.09214C15.7882 8.08936 15.7859 8.08634 15.7838 8.08311C15.7812 8.08079 15.7788 8.07819 15.7767 8.07537L15.7696 8.06698L15.7599 8.05472L15.7496 8.04182C15.7467 8.03787 15.7435 8.0342 15.7399 8.03085C15.7362 8.02765 15.733 8.02396 15.7302 8.01988C15.727 8.01705 15.7242 8.01379 15.7219 8.01021L15.7141 8.00053C15.7073 7.99405 15.7008 7.98715 15.6948 7.97989L15.6767 7.95989L15.6561 7.94053L15.6354 7.92118L15.6257 7.91343L15.6154 7.90505C15.6117 7.90217 15.6082 7.89893 15.6051 7.89537L15.5941 7.88569C15.5867 7.87875 15.5787 7.87249 15.5702 7.86698C15.5679 7.86418 15.565 7.86178 15.5619 7.85989L15.5535 7.85344L15.5393 7.84247L15.5238 7.83085L15.5154 7.82569L15.5077 7.82053C15.5025 7.81766 15.4975 7.81443 15.4928 7.81085C15.4881 7.80725 15.4832 7.80401 15.478 7.80118C15.4721 7.79836 15.4666 7.79466 15.4619 7.79021L15.447 7.78182L15.4322 7.77344C15.4262 7.77073 15.4208 7.76702 15.4161 7.76247L15.4077 7.7586C15.4009 7.75435 15.3935 7.75109 15.3857 7.74892H15.3812C15.3758 7.74675 15.3708 7.7437 15.3664 7.73989C15.3593 7.73563 15.3517 7.73238 15.3438 7.73021H15.3399C15.3354 7.72882 15.3311 7.72687 15.327 7.7244L15.3141 7.71924L15.2896 7.71086L15.2761 7.70569L15.2619 7.70053L15.2515 7.69666L15.2406 7.69279C15.2337 7.691 15.227 7.68863 15.2206 7.68569L15.2102 7.68182H15.1999C15.1967 7.68234 15.1935 7.68234 15.1903 7.68182L15.1573 7.67344H15.1373L15.1206 7.66957L15.1025 7.6657H15.0832C15.0714 7.66232 15.0593 7.66037 15.047 7.65989H15.0244C15.0135 7.65848 15.0025 7.65848 14.9915 7.65989H14.8844L1.18525 7.59989ZM3.76135 0.154814C3.46302 0.154195 3.17683 0.272899 2.96652 0.484487L0.330421 3.11994L0.311067 3.14123C0.305003 3.14806 0.298765 3.15473 0.292357 3.16123L0.284615 3.17026C0.282085 3.17371 0.27928 3.17695 0.276228 3.17994C0.273513 3.18402 0.270258 3.18771 0.266551 3.19091C0.262821 3.19409 0.259563 3.19778 0.256874 3.20188C0.249668 3.20942 0.243188 3.21763 0.237519 3.22639L0.230422 3.23478L0.223326 3.24252L0.212358 3.25736L0.200745 3.27284C0.199345 3.27582 0.197614 3.27864 0.195584 3.28123C0.193355 3.28381 0.191408 3.28662 0.189778 3.28962C0.186916 3.29479 0.183682 3.29975 0.1801 3.30445C0.176525 3.30894 0.17329 3.31368 0.170423 3.31865C0.167869 3.32489 0.164147 3.33058 0.159456 3.33542L0.151069 3.35026C0.148005 3.35505 0.145205 3.36 0.142682 3.3651C0.13995 3.3714 0.136004 3.3771 0.131069 3.38187L0.127198 3.38962C0.123298 3.39661 0.120059 3.40395 0.117521 3.41155C0.115596 3.41708 0.112517 3.42214 0.108488 3.42639C0.104366 3.43327 0.101115 3.44064 0.0988111 3.44832V3.4522C0.0973738 3.45639 0.0956493 3.46049 0.0936498 3.46445C0.0912891 3.46832 0.0893428 3.47243 0.0878435 3.47671L0.0794565 3.50123C0.0779527 3.50592 0.0760085 3.51045 0.0736501 3.51478L0.0684889 3.52832L0.0639728 3.53929L0.0594567 3.55026C0.0577471 3.55714 0.0553703 3.56384 0.05236 3.57026L0.0484891 3.58058C0.0481521 3.5838 0.0481521 3.58704 0.0484891 3.59026C0.0491153 3.59345 0.0491153 3.59674 0.0484891 3.59994L0.0401021 3.63284C0.0389296 3.63815 0.0389296 3.64365 0.0401021 3.64897C0.0401021 3.65542 0.0401021 3.66252 0.035586 3.66832V3.68252C0.0359032 3.68509 0.0359032 3.68769 0.035586 3.69026C0.0351599 3.69412 0.0351599 3.69801 0.035586 3.70187C0.0327257 3.7135 0.0309972 3.72539 0.0304248 3.73735C0.030787 3.741 0.030787 3.74467 0.0304248 3.74832C0.0297279 3.75194 0.0297279 3.75567 0.0304248 3.75929C0.0292969 3.77022 0.0292969 3.78126 0.0304248 3.79219C0.0307044 3.79649 0.0307044 3.8008 0.0304248 3.80509C0.0301536 3.80961 0.0301536 3.81413 0.0304248 3.81864C0.0307308 3.82251 0.0307308 3.82639 0.0304248 3.83026C0.0298032 3.8354 0.0298032 3.8406 0.0304248 3.84574V3.89929C0.0291086 3.91754 0.0291086 3.93587 0.0304248 3.95412C0.0292969 3.96138 0.0292969 3.9688 0.0304248 3.97606C0.0307356 3.97863 0.0307356 3.98123 0.0304248 3.9838C0.0289209 3.99277 0.0289209 4.00193 0.0304248 4.0109C0.0301105 4.01627 0.0301105 4.02166 0.0304248 4.02703C0.0307277 4.0324 0.0307277 4.03778 0.0304248 4.04316C0.0300825 4.0468 0.0300825 4.05048 0.0304248 4.05412C0.0308048 4.05777 0.0308048 4.06145 0.0304248 4.06509C0.0308468 4.07111 0.0308468 4.07714 0.0304248 4.08316C0.0300324 4.08896 0.0300324 4.09478 0.0304248 4.10057C0.0301076 4.10315 0.0301076 4.10575 0.0304248 4.10832C0.0308217 4.11218 0.0308217 4.11607 0.0304248 4.11993L0.0342957 4.13412V4.15606C0.0339579 4.15884 0.0339579 4.16166 0.0342957 4.16444C0.0345888 4.16702 0.0345888 4.16961 0.0342957 4.17219L0.0426827 4.20509C0.0431016 4.2083 0.0431016 4.21156 0.0426827 4.21477C0.0420565 4.21796 0.0420565 4.22125 0.0426827 4.22444C0.0446518 4.23508 0.0483571 4.24533 0.0536503 4.25477L0.0575212 4.26573L0.0613922 4.2767C0.0613922 4.28057 0.0652631 4.28509 0.0671985 4.29025C0.0671985 4.29477 0.0717146 4.29993 0.0730049 4.3038L0.0813919 4.32831C0.082826 4.33272 0.0845501 4.33703 0.0865531 4.34122C0.088542 4.34518 0.0902661 4.34928 0.0917144 4.35348L0.0968756 4.36638C0.0988056 4.37037 0.100528 4.37446 0.102037 4.37864V4.38315C0.103864 4.38873 0.106955 4.39381 0.111069 4.39799L0.115585 4.40638C0.119785 4.41322 0.12304 4.4206 0.125262 4.42831C0.128004 4.43426 0.13171 4.43971 0.13623 4.44444L0.144617 4.45928L0.152359 4.47347C0.155255 4.47968 0.159181 4.48535 0.163972 4.49025C0.166821 4.49543 0.170056 4.50039 0.173649 4.50509C0.177441 4.50964 0.180689 4.51462 0.183326 4.51992L0.189133 4.52831C0.191286 4.53095 0.193228 4.53375 0.194939 4.5367C0.19882 4.54377 0.203356 4.55047 0.208487 4.5567L0.216229 4.56638L0.223326 4.57476C0.225329 4.57765 0.227716 4.58026 0.230422 4.5825C0.233298 4.58706 0.236534 4.59137 0.2401 4.59541C0.243671 4.59921 0.246909 4.60331 0.249777 4.60767C0.252577 4.61168 0.255823 4.61536 0.259454 4.61863L0.269132 4.6296L0.277519 4.63928L0.285906 4.64896C0.293002 4.65541 0.298809 4.6625 0.304615 4.66896L0.323325 4.68896L0.34397 4.70831C0.35079 4.71392 0.357254 4.71996 0.363324 4.72637L0.373001 4.73476L0.383324 4.74315C0.387279 4.74602 0.390952 4.74926 0.394292 4.75283C0.397856 4.7564 0.401743 4.75964 0.405904 4.7625C0.413285 4.76944 0.421274 4.7757 0.429775 4.78121L0.438162 4.78831C0.441248 4.79031 0.444067 4.79269 0.446549 4.79541L0.461388 4.80637L0.476226 4.81734L0.484613 4.8225L0.493 4.82831C0.498258 4.83103 0.503229 4.83427 0.507839 4.83799L0.522032 4.84766C0.528279 4.8502 0.533975 4.85393 0.538806 4.85863L0.553645 4.86702L0.568483 4.8754C0.574446 4.87811 0.579901 4.88182 0.584612 4.88637L0.592999 4.89024C0.599814 4.8945 0.6072 4.89775 0.614934 4.89992H0.618805C0.62409 4.90196 0.628915 4.90503 0.632998 4.90895C0.640042 4.91321 0.647641 4.91646 0.655579 4.91863H0.66074L0.672998 4.92379L0.685256 4.92895L0.709772 4.93734L0.72332 4.94315L0.736868 4.94831L0.747836 4.95218L0.759449 4.95605L0.778803 4.96315L0.789771 4.96702C0.792976 4.96753 0.796243 4.96753 0.799448 4.96702C0.802645 4.96641 0.805929 4.96641 0.809125 4.96702L0.842673 4.9754H0.862028L0.878802 4.97927L0.895576 4.98315H0.903318C0.90738 4.98377 0.911513 4.98377 0.915576 4.98315C0.927134 4.98647 0.939044 4.98842 0.951059 4.98895H0.97364C0.984562 4.99036 0.99562 4.99036 1.00654 4.98895H14.8032C15.2121 4.99874 15.5943 4.78615 15.8017 4.4335C16.009 4.08085 16.009 3.64353 15.8017 3.29088C15.5943 2.93824 15.2121 2.72564 14.8032 2.73543H3.83554L4.54973 2.02124C4.87187 1.69952 4.96838 1.21536 4.79421 0.794706C4.62005 0.37405 4.20954 0.0998159 3.75425 0.0999757L3.76135 0.154814Z" fill="black"/>
</g>
<defs>
<clipPath id="clip0_878_31346">
<rect width="16" height="13" fill="white"/>
</clipPath>
</defs>
</svg>
