<svg width="24" height="24" viewBox="0 0 24 24" fill="none" xmlns="http://www.w3.org/2000/svg">
<path d="M12.0002 8.87573C10.2799 8.87573 8.87598 10.2796 8.87598 12C8.87598 13.7203 10.2799 15.1242 12.0002 15.1242C13.7205 15.1242 15.1244 13.7203 15.1244 12C15.1244 10.2796 13.7205 8.87573 12.0002 8.87573Z" fill="#666666"/>
<path d="M21.3704 12C21.3704 10.7063 21.3821 9.42423 21.3095 8.13283C21.2368 6.63283 20.8946 5.30158 19.7978 4.2047C18.6985 3.10548 17.3696 2.76564 15.8696 2.69298C14.5759 2.62033 13.2939 2.63204 12.0025 2.63204C10.7087 2.63204 9.42667 2.62033 8.13527 2.69298C6.63527 2.76564 5.30402 3.10783 4.20714 4.2047C3.10792 5.30392 2.76808 6.63283 2.69542 8.13283C2.62277 9.42658 2.63449 10.7086 2.63449 12C2.63449 13.2914 2.62277 14.5758 2.69542 15.8672C2.76808 17.3672 3.11027 18.6985 4.20714 19.7953C5.30636 20.8945 6.63527 21.2344 8.13527 21.307C9.42902 21.3797 10.711 21.368 12.0025 21.368C13.2962 21.368 14.5782 21.3797 15.8696 21.307C17.3696 21.2344 18.7009 20.8922 19.7978 19.7953C20.897 18.6961 21.2368 17.3672 21.3095 15.8672C21.3845 14.5758 21.3704 13.2938 21.3704 12ZM12.0001 16.807C9.33995 16.807 7.19308 14.6602 7.19308 12C7.19308 9.33986 9.33995 7.19298 12.0001 7.19298C14.6603 7.19298 16.8071 9.33986 16.8071 12C16.8071 14.6602 14.6603 16.807 12.0001 16.807ZM17.004 8.11876C16.3829 8.11876 15.8814 7.6172 15.8814 6.99611C15.8814 6.37501 16.3829 5.87345 17.004 5.87345C17.6251 5.87345 18.1267 6.37501 18.1267 6.99611C18.1243 7.61954 17.6251 8.11876 17.004 8.11876Z" fill="#666666"/>
</svg>
