<svg width="20" height="20" viewBox="0 0 20 20" fill="none" xmlns="http://www.w3.org/2000/svg">
<g clip-path="url(#clip0_238_11829)">
<path d="M6.66295 4.69864V17.7902C6.66295 17.9762 6.61644 18.1343 6.52344 18.2645C6.43043 18.3947 6.29464 18.4598 6.11607 18.4598C5.98958 18.4598 5.86682 18.43 5.74777 18.3705L0.558036 15.7701C0.401786 15.6957 0.269717 15.571 0.16183 15.3962C0.0539434 15.2213 -1.30208e-08 15.0483 0 14.8772V2.154C0 2.00519 0.0372024 1.8787 0.111607 1.77454C0.186012 1.67037 0.293899 1.61829 0.435268 1.61829C0.539434 1.61829 0.703125 1.67409 0.926339 1.7857L6.62946 4.64284C6.65179 4.66516 6.66295 4.68376 6.66295 4.69864ZM7.37723 5.82588L13.3371 15.4911L7.37723 12.5223V5.82588ZM20 6.02677V17.7902C20 17.9762 19.9479 18.1268 19.8438 18.2422C19.7396 18.3575 19.5982 18.4152 19.4196 18.4152C19.2411 18.4152 19.0662 18.3668 18.8951 18.2701L13.9732 15.8147L20 6.02677ZM19.9665 4.68748C19.9665 4.7098 19.0123 6.27044 17.1038 9.3694C15.1953 12.4684 14.0774 14.282 13.75 14.8103L9.39732 7.73436L13.0134 1.85266C13.1399 1.64433 13.3333 1.54016 13.5938 1.54016C13.6979 1.54016 13.7946 1.56248 13.8839 1.60713L19.9219 4.62052C19.9516 4.6354 19.9665 4.65772 19.9665 4.68748Z" fill="black" fill-opacity="0.6"/>
</g>
<defs>
<clipPath id="clip0_238_11829">
<rect width="20" height="20" fill="white"/>
</clipPath>
</defs>
</svg>
