<svg width="24" height="25" viewBox="0 0 24 25" fill="none" xmlns="http://www.w3.org/2000/svg">
<path fill-rule="evenodd" clip-rule="evenodd" d="M16.5 9C16.5 11.4853 14.4853 13.5 12 13.5C9.51472 13.5 7.5 11.4853 7.5 9C7.5 6.51472 9.51472 4.5 12 4.5C14.4853 4.5 16.5 6.51472 16.5 9ZM18.5 9C18.5 12.5899 15.5899 15.5 12 15.5C8.41015 15.5 5.5 12.5899 5.5 9C5.5 5.41015 8.41015 2.5 12 2.5C15.5899 2.5 18.5 5.41015 18.5 9ZM12 16.9991C13.4571 16.9991 14.8233 16.6095 16 15.9288V20.5287C16 20.9353 15.5403 21.1719 15.2094 20.9355L12 18.6431L8.79062 20.9355C8.45968 21.1719 8 20.9353 8 20.5287V15.9288C9.17669 16.6095 10.5429 16.9991 12 16.9991Z" fill="#111111"/>
<circle cx="12" cy="9" r="2" fill="#111111"/>
</svg>
