<svg width="20" height="20" viewBox="0 0 20 20" fill="none" xmlns="http://www.w3.org/2000/svg">
<path d="M13.7852 8.13613C16.0898 8.13613 18.0305 8.93045 18.1784 10.2014L18.1875 10.2015V16.3526H18.1784C18.0305 17.6237 16.0898 18.418 13.7852 18.418C11.4805 18.418 9.5398 17.6236 9.39188 16.3526H9.38281V10.2015H9.39188C9.53982 8.93043 11.4805 8.13613 13.7852 8.13613ZM10.5507 14.8766L10.5508 16.1955C10.5508 16.2569 10.591 16.3341 10.6736 16.4192L10.6919 16.4376C10.8154 16.5576 11.0213 16.6917 11.3156 16.818C11.9496 17.0901 12.8339 17.2506 13.7852 17.2506C14.7364 17.2506 15.6207 17.0901 16.2547 16.818C16.549 16.6917 16.7549 16.5576 16.8784 16.4376L16.8967 16.4192C16.9764 16.3372 17.0166 16.2624 17.0194 16.2021L17.0195 16.1955L17.0196 14.8766C16.21 15.3042 15.0526 15.5444 13.7852 15.5444C12.5177 15.5444 11.3604 15.3042 10.5507 14.8766ZM8.55176 1.28906C12.1298 1.28906 15.0879 2.53863 15.0879 4.38709L15.087 4.33268C15.0874 4.33871 15.0876 4.34479 15.0877 4.35084L15.0879 4.36463V7.19326C15.0879 7.51563 14.8264 7.77695 14.5039 7.77695C14.186 7.77695 13.9274 7.52305 13.9201 7.20703L13.9199 7.19326L13.9201 6.20912C12.7339 7.00873 10.761 7.4851 8.55176 7.4851C6.34254 7.4851 4.36965 7.00873 3.18348 6.20912L3.18359 8.94432C3.18359 9.11695 3.27877 9.30695 3.46699 9.499L3.49264 9.52463C3.52917 9.56026 3.56706 9.59447 3.60623 9.62719L3.63738 9.65281C3.66908 9.67844 3.70242 9.704 3.73738 9.72951L3.77293 9.75498C3.84272 9.80405 3.91439 9.85038 3.98777 9.89389L4.03037 9.91887C4.04477 9.92717 4.05932 9.93547 4.07406 9.94371L4.11883 9.96846C4.14148 9.9808 4.16453 9.99311 4.18801 10.0053L4.23547 10.0297C4.25148 10.0379 4.26768 10.046 4.28402 10.054L4.33365 10.0781C4.34201 10.0821 4.35043 10.0862 4.35887 10.0902L4.41012 10.114C4.43602 10.1259 4.4623 10.1378 4.489 10.1495L4.54293 10.1729C4.55201 10.1768 4.56113 10.1807 4.57029 10.1846C4.99951 10.3659 5.49625 10.5158 6.03982 10.629L6.12836 10.6471C6.86967 10.7947 7.69445 10.875 8.55176 10.875C8.87428 10.875 9.13574 11.1363 9.13574 11.4587C9.13574 11.781 8.87428 12.0423 8.55176 12.0423C6.34254 12.0423 4.36965 11.566 3.18348 10.7663L3.18359 13.4791C3.18359 13.6517 3.27877 13.8417 3.46699 14.0338L3.49264 14.0594C3.52917 14.095 3.56706 14.1293 3.60623 14.162L3.63738 14.1876C3.66908 14.2132 3.70242 14.2388 3.73738 14.2643L3.77293 14.2898C3.84272 14.3388 3.91439 14.3852 3.98777 14.4287L4.03037 14.4536C4.04477 14.462 4.05932 14.4702 4.07406 14.4785L4.11883 14.5032C4.14148 14.5156 4.16453 14.5279 4.18801 14.5401L4.23547 14.5645C4.25148 14.5727 4.26768 14.5807 4.28402 14.5888L4.33365 14.6129C4.34201 14.6169 4.35043 14.6209 4.35887 14.6249L4.41012 14.6488C4.43602 14.6607 4.4623 14.6725 4.489 14.6843L4.54293 14.7077C4.55201 14.7116 4.56113 14.7155 4.57029 14.7194C4.99951 14.9007 5.49625 15.0505 6.03982 15.1638L6.12836 15.1818C6.86967 15.3295 7.69445 15.4097 8.55176 15.4097C8.87428 15.4097 9.13574 15.6711 9.13574 15.9934C9.13574 16.3158 8.87428 16.5771 8.55176 16.5771C5.06137 16.5771 2.16092 15.388 2.0209 13.6138L2.01562 13.6138V4.36465C2.03965 2.52852 4.98826 1.28906 8.55176 1.28906ZM17.0196 11.9132C16.21 12.3409 15.0526 12.5811 13.7852 12.5811C12.5177 12.5811 11.3604 12.3409 10.5507 11.9133L10.5508 13.322C10.5508 13.3833 10.591 13.4606 10.6736 13.5457L10.6919 13.564C10.8154 13.6841 11.0213 13.8181 11.3156 13.9444C11.9496 14.2165 12.8339 14.3771 13.7852 14.3771C14.7364 14.3771 15.6207 14.2165 16.2547 13.9445C16.549 13.8181 16.7549 13.6841 16.8784 13.564L16.8967 13.5457C16.9764 13.4637 17.0166 13.3888 17.0194 13.3286L17.0195 13.322L17.0196 11.9132ZM13.7852 9.30352C12.8339 9.30352 11.9496 9.46406 11.3156 9.73617C11.0213 9.86244 10.8154 9.99652 10.6919 10.1166L10.6736 10.1349C10.591 10.22 10.5508 10.2973 10.5508 10.3587C10.5508 10.42 10.591 10.4973 10.6736 10.5824L10.6919 10.6007C10.8154 10.7208 11.0213 10.8548 11.3156 10.9811C11.9496 11.2532 12.8339 11.4138 13.7852 11.4138C14.7364 11.4138 15.6207 11.2532 16.2547 10.9811C16.549 10.8548 16.7549 10.7208 16.8784 10.6007L16.8967 10.5824C16.9793 10.4973 17.0195 10.42 17.0195 10.3587C17.0195 10.2973 16.9793 10.22 16.8967 10.1349L16.8784 10.1165C16.7549 9.99652 16.549 9.86244 16.2547 9.73617C15.6207 9.46404 14.7364 9.30352 13.7852 9.30352ZM8.55176 2.45645C7.69445 2.45645 6.86967 2.5367 6.12836 2.68438L6.0398 2.7024C5.49625 2.81564 4.99951 2.96553 4.57029 3.14684C4.56111 3.1507 4.55201 3.15459 4.54295 3.15848L4.489 3.18191C4.46262 3.19353 4.43632 3.20535 4.41012 3.21738L4.35887 3.24127C4.35043 3.24525 4.34201 3.24928 4.33367 3.25326L4.28402 3.27738C4.26768 3.28545 4.25148 3.29354 4.23549 3.30166L4.18803 3.32607C4.16485 3.33816 4.14178 3.35045 4.11883 3.36295L4.07406 3.3877C4.05932 3.39596 4.04477 3.40426 4.03037 3.41256L3.98779 3.43752C3.91439 3.48102 3.84271 3.52736 3.77291 3.57643L3.7374 3.60191C3.70344 3.62664 3.6701 3.65221 3.6374 3.67859L3.60623 3.70422C3.56706 3.73693 3.52917 3.77115 3.49264 3.80678L3.46699 3.8324C3.27877 4.02447 3.18359 4.21447 3.18359 4.38709C3.18359 4.55975 3.27877 4.74973 3.46699 4.9418L3.49264 4.96742C3.52917 5.00305 3.56706 5.03727 3.60623 5.06998L3.63738 5.09561C3.66908 5.12121 3.70242 5.14678 3.73738 5.17229L3.77293 5.19777C3.84272 5.24684 3.91439 5.29318 3.98777 5.33668L4.03037 5.36164C4.04477 5.36996 4.05932 5.37824 4.07406 5.3865L4.11883 5.41125C4.14148 5.42359 4.16453 5.43588 4.18801 5.44812L4.23547 5.47254C4.25148 5.48066 4.26768 5.48875 4.28402 5.49682L4.33365 5.52094C4.34201 5.52494 4.35043 5.52895 4.35887 5.53293L4.41012 5.55682C4.43602 5.56871 4.4623 5.58053 4.489 5.5923L4.54293 5.61574L4.57029 5.62736C4.99951 5.80867 5.49625 5.95855 6.03982 6.0718L6.12836 6.08984C6.86967 6.2375 7.69445 6.31775 8.55176 6.31775C9.40906 6.31775 10.2338 6.2375 10.9752 6.08984L11.0637 6.0718C11.6073 5.95855 12.104 5.80867 12.5332 5.62736C12.5424 5.6235 12.5515 5.61961 12.5606 5.61572L12.6145 5.59229C12.6409 5.58067 12.6672 5.56885 12.6934 5.55682L12.7446 5.53293C12.7531 5.52895 12.7615 5.52494 12.7698 5.52094L12.8195 5.49682C12.8358 5.48875 12.852 5.48066 12.868 5.47254L12.9155 5.44812C12.9387 5.43604 12.9617 5.42375 12.9847 5.41125L13.0295 5.3865C13.0442 5.37824 13.0588 5.36996 13.0731 5.36164L13.1157 5.33668C13.1891 5.29318 13.2608 5.24684 13.3306 5.19777L13.3661 5.17229C13.4001 5.14756 13.4334 5.12199 13.4661 5.09561L13.4973 5.06998C13.5365 5.03727 13.5743 5.00305 13.6109 4.96742L13.6365 4.9418C13.8247 4.74973 13.9199 4.55973 13.9199 4.38711C13.9199 4.21445 13.8247 4.02447 13.6365 3.8324L13.6109 3.80678C13.5743 3.77115 13.5365 3.73693 13.4973 3.70422L13.4661 3.67859C13.4334 3.65221 13.4001 3.62664 13.3661 3.60191L13.3306 3.57643C13.2608 3.52736 13.1891 3.48102 13.1157 3.43752L13.0731 3.41256C13.0588 3.40426 13.0442 3.39596 13.0295 3.3877L12.9847 3.36295C12.962 3.35061 12.939 3.33832 12.9155 3.32607L12.868 3.30166C12.852 3.29354 12.8358 3.28545 12.8195 3.27738L12.7699 3.25326C12.7615 3.24926 12.7531 3.24525 12.7446 3.24127L12.6934 3.21738C12.6672 3.20535 12.6409 3.19353 12.6145 3.18191L12.5606 3.15848L12.5332 3.14684C12.104 2.96553 11.6073 2.81564 11.0637 2.7024L10.9752 2.68436C10.2338 2.5367 9.40906 2.45645 8.55176 2.45645Z" fill="black" fill-opacity="0.3"/>
</svg>
