<svg width="24" height="24" viewBox="0 0 24 24" fill="none" xmlns="http://www.w3.org/2000/svg">
<path fill-rule="evenodd" clip-rule="evenodd" d="M5 3C3.89543 3 3 3.89543 3 5V20.6126C3 21.2951 3.66869 21.7771 4.31623 21.5613L11.3675 19.2108C11.7781 19.074 12.2219 19.074 12.6325 19.2108L19.6838 21.5613C20.3313 21.7771 21 21.2951 21 20.6126V5C21 3.89543 20.1046 3 19 3H5ZM12.439 7.30489C12.2495 6.95742 11.7505 6.95742 11.561 7.30489L10.556 9.14773C10.4841 9.2796 10.3567 9.37215 10.2091 9.39979L8.14586 9.78616C7.75684 9.85901 7.60266 10.3335 7.87457 10.6211L9.31664 12.1464C9.41983 12.2556 9.46849 12.4053 9.44916 12.5543L9.17905 14.6359C9.12812 15.0284 9.53176 15.3217 9.88931 15.1519L11.7856 14.2518C11.9213 14.1874 12.0787 14.1874 12.2144 14.2518L14.1107 15.1519C14.4682 15.3217 14.8719 15.0284 14.821 14.6359L14.5508 12.5543C14.5315 12.4053 14.5802 12.2556 14.6834 12.1464L16.1254 10.6211C16.3973 10.3335 16.2432 9.85901 15.8541 9.78616L13.7909 9.39979C13.6433 9.37215 13.5159 9.2796 13.444 9.14773L12.439 7.30489Z" fill="#808080"/>
</svg>
