<svg width="24" height="24" viewBox="0 0 24 24" fill="none" xmlns="http://www.w3.org/2000/svg">
<circle cx="12" cy="12" r="8" stroke="#111111" stroke-width="2"/>
<mask id="path-2-outside-1_171_11257" maskUnits="userSpaceOnUse" x="7.1875" y="5.77246" width="9" height="12" fill="black">
<rect fill="white" x="7.1875" y="5.77246" width="9" height="12"/>
<path fill-rule="evenodd" clip-rule="evenodd" d="M11.0243 14.6385L10.9785 14.3935C10.7277 13.0501 11.581 12.2083 12.3529 11.5606C12.4605 11.4703 12.5659 11.3842 12.668 11.3009C12.9492 11.0713 13.2055 10.862 13.4162 10.6396C13.6977 10.3424 13.8434 10.0748 13.8434 9.78846C13.8434 9.38273 13.6994 9.05503 13.4224 8.8233C13.1393 8.5864 12.6838 8.42246 12.0154 8.42246C11.1603 8.42246 10.327 8.79707 9.59045 9.59934L9.3867 9.82128L8.1875 8.71092L8.39517 8.49066C9.3608 7.46651 10.5272 6.77246 12.1554 6.77246C13.1903 6.77246 14.0718 7.03653 14.7011 7.54423C15.3373 8.05755 15.6894 8.79985 15.6894 9.69046C15.6894 10.3078 15.4421 10.7968 15.1034 11.2049C14.7951 11.5762 14.3978 11.8952 14.033 12.1881L13.9518 12.2534C13.5524 12.5749 13.2033 12.8673 12.9708 13.1966C12.7485 13.5115 12.6388 13.8522 12.7167 14.2853L12.7803 14.6385H11.0243ZM12.4214 14.3385C12.4027 14.2345 12.3932 14.1346 12.3918 14.0385C12.3794 13.1318 13.1014 12.5518 13.8398 11.9585C14.6058 11.3431 15.3894 10.7135 15.3894 9.69046C15.3894 9.05968 15.196 8.5213 14.8421 8.09975C15.1959 8.52128 15.3893 9.05958 15.3893 9.69027C15.3893 10.7133 14.6056 11.3429 13.8396 11.9583C13.0229 12.6145 12.2262 13.2546 12.4213 14.3383H11.2734L11.2734 14.3385H12.4214ZM8.61345 8.69646L8.61347 8.69644L9.36928 9.39627C10.1533 8.54227 11.0633 8.12227 12.0153 8.12227C12.8452 8.12227 13.4292 8.35868 13.7728 8.74633C13.4292 8.3588 12.8452 8.12246 12.0154 8.12246C11.0756 8.12246 10.1767 8.53179 9.39957 9.36393L9.36945 9.39646L8.61345 8.69646ZM11 16.5346C11 17.1461 11.4596 17.541 12.0062 17.541C12.5528 17.541 13 17.1461 13 16.5346C13 15.9232 12.5528 15.541 12.0062 15.541C11.4596 15.541 11 15.9232 11 16.5346Z"/>
</mask>
<path fill-rule="evenodd" clip-rule="evenodd" d="M11.0243 14.6385L10.9785 14.3935C10.7277 13.0501 11.581 12.2083 12.3529 11.5606C12.4605 11.4703 12.5659 11.3842 12.668 11.3009C12.9492 11.0713 13.2055 10.862 13.4162 10.6396C13.6977 10.3424 13.8434 10.0748 13.8434 9.78846C13.8434 9.38273 13.6994 9.05503 13.4224 8.8233C13.1393 8.5864 12.6838 8.42246 12.0154 8.42246C11.1603 8.42246 10.327 8.79707 9.59045 9.59934L9.3867 9.82128L8.1875 8.71092L8.39517 8.49066C9.3608 7.46651 10.5272 6.77246 12.1554 6.77246C13.1903 6.77246 14.0718 7.03653 14.7011 7.54423C15.3373 8.05755 15.6894 8.79985 15.6894 9.69046C15.6894 10.3078 15.4421 10.7968 15.1034 11.2049C14.7951 11.5762 14.3978 11.8952 14.033 12.1881L13.9518 12.2534C13.5524 12.5749 13.2033 12.8673 12.9708 13.1966C12.7485 13.5115 12.6388 13.8522 12.7167 14.2853L12.7803 14.6385H11.0243ZM12.4214 14.3385C12.4027 14.2345 12.3932 14.1346 12.3918 14.0385C12.3794 13.1318 13.1014 12.5518 13.8398 11.9585C14.6058 11.3431 15.3894 10.7135 15.3894 9.69046C15.3894 9.05968 15.196 8.5213 14.8421 8.09975C15.1959 8.52128 15.3893 9.05958 15.3893 9.69027C15.3893 10.7133 14.6056 11.3429 13.8396 11.9583C13.0229 12.6145 12.2262 13.2546 12.4213 14.3383H11.2734L11.2734 14.3385H12.4214ZM8.61345 8.69646L8.61347 8.69644L9.36928 9.39627C10.1533 8.54227 11.0633 8.12227 12.0153 8.12227C12.8452 8.12227 13.4292 8.35868 13.7728 8.74633C13.4292 8.3588 12.8452 8.12246 12.0154 8.12246C11.0756 8.12246 10.1767 8.53179 9.39957 9.36393L9.36945 9.39646L8.61345 8.69646ZM11 16.5346C11 17.1461 11.4596 17.541 12.0062 17.541C12.5528 17.541 13 17.1461 13 16.5346C13 15.9232 12.5528 15.541 12.0062 15.541C11.4596 15.541 11 15.9232 11 16.5346Z" fill="#111111"/>
<path d="M10.9785 14.3935L10.7819 14.4302L10.9785 14.3935ZM11.0243 14.6385L10.8277 14.6752L10.8582 14.8385H11.0243V14.6385ZM12.3529 11.5606L12.2243 11.4074L12.3529 11.5606ZM12.668 11.3009L12.7945 11.4558L12.7945 11.4558L12.668 11.3009ZM13.4162 10.6396L13.5614 10.7771L13.4162 10.6396ZM13.4224 8.8233L13.5508 8.66991V8.66991L13.4224 8.8233ZM9.59045 9.59934L9.73778 9.7346L9.59045 9.59934ZM9.3867 9.82128L9.25081 9.96803L9.39819 10.1045L9.53403 9.95654L9.3867 9.82128ZM8.1875 8.71092L8.04198 8.57371L7.90353 8.72055L8.05162 8.85767L8.1875 8.71092ZM8.39517 8.49066L8.24965 8.35345L8.24965 8.35345L8.39517 8.49066ZM14.7011 7.54423L14.5755 7.69988L14.7011 7.54423ZM15.1034 11.2049L15.2573 11.3326V11.3326L15.1034 11.2049ZM14.033 12.1881L13.9078 12.0322L13.9077 12.0322L14.033 12.1881ZM13.9518 12.2534L13.8265 12.0975L13.8264 12.0976L13.9518 12.2534ZM12.9708 13.1966L13.1342 13.3119V13.3119L12.9708 13.1966ZM12.7167 14.2853L12.9135 14.2499L12.7167 14.2853ZM12.7803 14.6385V14.8385H13.0195L12.9771 14.603L12.7803 14.6385ZM12.3918 14.0385L12.1919 14.0412V14.0412L12.3918 14.0385ZM12.4214 14.3385V14.5385H12.6607L12.6183 14.303L12.4214 14.3385ZM13.8398 11.9585L13.7145 11.8026L13.8398 11.9585ZM14.8421 8.09975L14.9952 7.97114L14.6889 8.22835L14.8421 8.09975ZM13.8396 11.9583L13.7144 11.8024L13.8396 11.9583ZM12.4213 14.3383V14.5383H12.6605L12.6181 14.3028L12.4213 14.3383ZM11.2734 14.3383V14.1383H11.0326L11.0768 14.3749L11.2734 14.3383ZM11.2734 14.3385L11.0768 14.3751L11.1073 14.5385H11.2734V14.3385ZM8.61347 8.69644L8.74935 8.54969L8.60397 8.41507L8.468 8.55919L8.61347 8.69644ZM8.61345 8.69646L8.46798 8.55921L8.32943 8.70605L8.47757 8.84321L8.61345 8.69646ZM9.36928 9.39627L9.2334 9.54302L9.38078 9.67948L9.51661 9.53152L9.36928 9.39627ZM13.7728 8.74633L13.6232 8.87903L13.9225 8.61366L13.7728 8.74633ZM9.39957 9.36393L9.2534 9.22742L9.25282 9.22805L9.39957 9.36393ZM9.36945 9.39646L9.23357 9.54321L9.38032 9.67909L9.5162 9.53234L9.36945 9.39646ZM10.7819 14.4302L10.8277 14.6752L11.2209 14.6017L11.1751 14.3568L10.7819 14.4302ZM12.2243 11.4074C11.4525 12.055 10.5084 12.9657 10.7819 14.4302L11.1751 14.3568C10.9469 13.1344 11.7094 12.3615 12.4814 11.7139L12.2243 11.4074ZM12.5415 11.1459C12.4396 11.2292 12.3332 11.3161 12.2243 11.4074L12.4814 11.7139C12.5879 11.6245 12.6923 11.5393 12.7945 11.4558L12.5415 11.1459ZM13.271 10.502C13.0708 10.7134 12.8251 10.9144 12.5415 11.1459L12.7945 11.4558C13.0732 11.2282 13.3402 11.0106 13.5614 10.7771L13.271 10.502ZM13.6434 9.78846C13.6434 9.99986 13.5381 10.2201 13.271 10.502L13.5614 10.7771C13.8573 10.4647 14.0434 10.1498 14.0434 9.78846H13.6434ZM13.2941 8.9767C13.5202 9.16582 13.6434 9.43438 13.6434 9.78846H14.0434C14.0434 9.33107 13.8787 8.94423 13.5508 8.66991L13.2941 8.9767ZM12.0154 8.62246C12.6533 8.62246 13.0578 8.77898 13.2941 8.9767L13.5508 8.66991C13.2208 8.39381 12.7143 8.22246 12.0154 8.22246V8.62246ZM9.73778 9.7346C10.4426 8.96685 11.2249 8.62246 12.0154 8.62246V8.22246C11.0958 8.22246 10.2113 8.62729 9.44311 9.46409L9.73778 9.7346ZM9.53403 9.95654L9.73778 9.7346L9.44311 9.46409L9.23937 9.68603L9.53403 9.95654ZM8.05162 8.85767L9.25081 9.96803L9.52258 9.67453L8.32338 8.56416L8.05162 8.85767ZM8.24965 8.35345L8.04198 8.57371L8.33302 8.84812L8.54069 8.62786L8.24965 8.35345ZM12.1554 6.57246C10.459 6.57246 9.243 7.29991 8.24965 8.35345L8.54069 8.62786C9.4786 7.6331 10.5954 6.97246 12.1554 6.97246V6.57246ZM14.8267 7.38858C14.1524 6.84456 13.2222 6.57246 12.1554 6.57246V6.97246C13.1584 6.97246 13.9913 7.2285 14.5755 7.69988L14.8267 7.38858ZM15.8894 9.69046C15.8894 8.7428 15.5125 7.94197 14.8267 7.38858L14.5755 7.69988C15.162 8.17314 15.4894 8.85689 15.4894 9.69046H15.8894ZM15.2573 11.3326C15.6165 10.8998 15.8894 10.3672 15.8894 9.69046H15.4894C15.4894 10.2485 15.2676 10.6939 14.9495 11.0771L15.2573 11.3326ZM14.1582 12.3441C14.52 12.0536 14.9338 11.7222 15.2573 11.3326L14.9495 11.0771C14.6564 11.4302 14.2756 11.7369 13.9078 12.0322L14.1582 12.3441ZM14.0771 12.4093L14.1583 12.344L13.9077 12.0322L13.8265 12.0975L14.0771 12.4093ZM13.1342 13.3119C13.3479 13.0092 13.6745 12.7334 14.0772 12.4092L13.8264 12.0976C13.4303 12.4164 13.0586 12.7254 12.8074 13.0812L13.1342 13.3119ZM12.9135 14.2499C12.8466 13.878 12.9374 13.5906 13.1342 13.3119L12.8074 13.0812C12.5596 13.4323 12.4309 13.8265 12.5199 14.3207L12.9135 14.2499ZM12.9771 14.603L12.9135 14.2499L12.5199 14.3207L12.5834 14.6739L12.9771 14.603ZM11.0243 14.8385H12.7803V14.4385H11.0243V14.8385ZM12.1919 14.0412C12.1933 14.1488 12.204 14.2596 12.2246 14.3739L12.6183 14.303C12.6014 14.2094 12.593 14.1205 12.5918 14.0357L12.1919 14.0412ZM13.7145 11.8026C13.3493 12.0961 12.9663 12.4027 12.6793 12.7546C12.3879 13.1118 12.1848 13.5277 12.1919 14.0412L12.5918 14.0357C12.5864 13.6426 12.7382 13.3152 12.9892 13.0074C13.2447 12.6943 13.5919 12.4142 13.9651 12.1144L13.7145 11.8026ZM15.1894 9.69046C15.1894 10.6016 14.4988 11.1725 13.7145 11.8026L13.9651 12.1144C14.7128 11.5137 15.5894 10.8255 15.5894 9.69046H15.1894ZM14.6889 8.22837C15.01 8.61082 15.1894 9.10256 15.1894 9.69046H15.5894C15.5894 9.0168 15.382 8.43179 14.9952 7.97114L14.6889 8.22837ZM15.5893 9.69027C15.5893 9.01671 15.3819 8.43177 14.9952 7.97116L14.6889 8.22835C15.0099 8.61078 15.1893 9.10245 15.1893 9.69027H15.5893ZM13.9649 12.1142C14.7126 11.5135 15.5893 10.8253 15.5893 9.69027H15.1893C15.1893 10.6014 14.4986 11.1723 13.7144 11.8024L13.9649 12.1142ZM12.6181 14.3028C12.5321 13.8248 12.6614 13.4483 12.9123 13.1063C13.1707 12.754 13.5514 12.4465 13.9649 12.1142L13.7144 11.8024C13.3111 12.1264 12.8851 12.467 12.5897 12.8697C12.2869 13.2826 12.1154 13.7681 12.2244 14.3737L12.6181 14.3028ZM11.2734 14.5383H12.4213V14.1383H11.2734V14.5383ZM11.4701 14.3018L11.47 14.3016L11.0768 14.3749L11.0768 14.3751L11.4701 14.3018ZM12.4214 14.1385H11.2734V14.5385H12.4214V14.1385ZM8.468 8.55919L8.46798 8.55921L8.75892 8.83371L8.75894 8.83369L8.468 8.55919ZM9.50516 9.24951L8.74935 8.54969L8.47759 8.84319L9.2334 9.54302L9.50516 9.24951ZM12.0153 7.92227C10.9987 7.92227 10.0376 8.37253 9.22195 9.26101L9.51661 9.53152C10.269 8.712 11.1279 8.32227 12.0153 8.32227V7.92227ZM13.9225 8.61366C13.5283 8.16897 12.8801 7.92227 12.0153 7.92227V8.32227C12.8102 8.32227 13.3301 8.5484 13.6231 8.879L13.9225 8.61366ZM12.0154 8.32246C12.8102 8.32246 13.3301 8.54851 13.6232 8.87903L13.9225 8.61364C13.5282 8.16908 12.8802 7.92246 12.0154 7.92246V8.32246ZM9.54574 9.50044C10.2911 8.70236 11.1393 8.32246 12.0154 8.32246V7.92246C11.012 7.92246 10.0624 8.36122 9.2534 9.22742L9.54574 9.50044ZM9.5162 9.53234L9.54633 9.49981L9.25282 9.22805L9.2227 9.26058L9.5162 9.53234ZM8.47757 8.84321L9.23357 9.54321L9.50533 9.24971L8.74933 8.54971L8.47757 8.84321ZM12.0062 17.341C11.5615 17.341 11.2 17.0273 11.2 16.5346H10.8C10.8 17.265 11.3578 17.741 12.0062 17.741V17.341ZM12.8 16.5346C12.8 17.0304 12.4476 17.341 12.0062 17.341V17.741C12.6579 17.741 13.2 17.2618 13.2 16.5346H12.8ZM12.0062 15.741C12.4512 15.741 12.8 16.0423 12.8 16.5346H13.2C13.2 15.8041 12.6544 15.341 12.0062 15.341V15.741ZM11.2 16.5346C11.2 16.0454 11.558 15.741 12.0062 15.741V15.341C11.3613 15.341 10.8 15.801 10.8 16.5346H11.2Z" fill="#111111" mask="url(#path-2-outside-1_171_11257)"/>
</svg>
