<svg width="20" height="20" viewBox="0 0 20 20" fill="none" xmlns="http://www.w3.org/2000/svg">
<path d="M10.6749 9.66224V7.23394C10.6749 7.14497 10.6574 7.05688 10.6233 6.9747C10.5892 6.89251 10.5393 6.81783 10.4764 6.75494C10.4135 6.69205 10.3388 6.64216 10.2566 6.60814C10.1744 6.57411 10.0863 6.55661 9.99731 6.55664C9.90839 6.55665 9.82033 6.57418 9.73818 6.60823C9.65603 6.64228 9.58139 6.69217 9.51852 6.75507C9.45566 6.81796 9.4058 6.89262 9.37179 6.97479C9.33778 7.05695 9.32029 7.14501 9.32031 7.23394V10.2234L12.2277 13.1307C12.2905 13.1937 12.3651 13.2437 12.4473 13.2777C12.5295 13.3118 12.6176 13.3292 12.7065 13.3291C12.7954 13.3292 12.8835 13.3118 12.9657 13.2777C13.0478 13.2437 13.1224 13.1937 13.1852 13.1307C13.2481 13.0679 13.298 12.9932 13.3321 12.9111C13.3661 12.8289 13.3837 12.7409 13.3837 12.6519C13.3837 12.563 13.3661 12.4749 13.3321 12.3928C13.298 12.3106 13.2481 12.236 13.1852 12.1731L10.6749 9.66224Z" fill="black" fill-opacity="0.3"/>
<path d="M16.3075 5.99474L14.8747 6.30324C15.6354 7.32004 16.0925 8.57694 16.0925 9.94154C16.0925 13.3026 13.3579 16.0371 9.99678 16.0371C6.63628 16.0371 3.90148 13.3026 3.90148 9.94154C3.90148 6.58094 6.63628 3.84624 9.99678 3.84624C10.3377 3.84624 10.6716 3.87674 10.9966 3.93174L10.632 5.25494L14.4076 4.27264L11.6686 1.49414L11.3589 2.61754C10.9097 2.53355 10.4537 2.4914 9.99668 2.49164C5.88238 2.49164 2.54688 5.82714 2.54688 9.94154C2.54688 14.0565 5.88238 17.3917 9.99678 17.3917C14.1118 17.3917 17.447 14.0565 17.447 9.94154C17.447 8.48974 17.0275 7.13864 16.3075 5.99474Z" fill="black" fill-opacity="0.3"/>
</svg>
