<svg width="44" height="44" viewBox="0 0 44 44" fill="none" xmlns="http://www.w3.org/2000/svg">
<rect width="44" height="44" rx="22" fill="black" fill-opacity="0.04"/>
<path fill-rule="evenodd" clip-rule="evenodd" d="M24.2505 23.0012H22.0007L22.0005 25C22.6462 25.0001 23.2776 25.0614 23.8891 25.1784C24.069 24.4861 24.1923 23.7578 24.2505 23.0012ZM21.9998 23.0012L21.9999 25H21.9986C21.3542 25 20.7241 25.061 20.1136 25.1774C19.9339 24.4853 19.8106 23.7574 19.7525 23.0012H21.9998ZM21.9986 27C21.5882 27 21.1849 27.0308 20.7912 27.0904C21.1297 27.8303 21.5376 28.5076 22 29.1092L22 30.0015H22.0002L22.0002 29.1096L22.0015 29.1112C22.4643 28.5093 22.8726 27.8316 23.2114 27.0912C22.8165 27.0312 22.4121 27.0001 22.0004 27L22.0002 29.1096L22 29.1092L21.9999 27H21.9986ZM17.7474 23.0012C17.8108 23.952 17.9638 24.8719 18.196 25.7484C17.3484 26.0971 16.5593 26.559 15.8474 27.1152C14.8946 25.9701 14.2555 24.5548 14.0618 23.0012H17.7474ZM18.8487 27.6435C18.3107 27.8741 17.803 28.1622 17.3332 28.5002C18.1247 29.0696 19.0244 29.4979 19.9957 29.7485C19.5565 29.0997 19.1714 28.3946 18.8487 27.6435ZM22 32.0016C21.5502 32.0016 21.1073 31.9719 20.6732 31.9144C18.1715 31.5831 15.9616 30.3269 14.3984 28.5007L14.399 28.5C12.9033 26.7522 12 24.4824 12 22.0016C12 16.9452 15.7529 12.7652 20.6253 12.0954C21.0751 12.0335 21.5345 12.0015 22.0013 12.0015C22.0014 12.0015 22.0014 12.0015 22.0015 12.0015V12L22.0032 12.0015C25.0434 12.002 27.7666 13.3593 29.6003 15.5007C29.6 15.501 29.5998 15.5013 29.5995 15.5016C31.0961 17.2496 32 19.5201 32 22.0016C32 27.5235 27.5244 32.0001 22.0029 32.0016L22.0015 32.0029L22 32.0016H22ZM22.0013 14.0015C22.0013 14.0015 22.0013 14.0015 22.0013 14.0015C22.0007 14.0015 22.0002 14.0015 21.9996 14.0015L21.9996 14.8941C21.5381 15.4948 21.1307 16.1709 20.7926 16.9094C21.1862 16.969 21.5893 16.9999 21.9997 17L21.9996 14.8941L22.0013 14.892L22.0011 17C22.0012 17 22.0012 17 22.0013 17C22.4123 17 22.8161 16.9691 23.2104 16.9094C22.8718 16.1699 22.4638 15.4929 22.0015 14.8917L22.0013 14.892L22.0013 14.0015ZM25.8059 18.2508C26.6522 17.9024 27.4401 17.4413 28.151 16.8861C29.1045 18.0313 29.7442 19.447 29.9381 21.0012H26.2555C26.192 20.0493 26.0387 19.1283 25.8059 18.2508ZM23.8886 18.8222C24.0687 19.5151 24.1922 20.244 24.2505 21.0012H22.0008L22.001 19C22.0011 19 22.0012 19 22.0013 19C22.6465 19 23.2774 18.9389 23.8886 18.8222ZM21.9997 19L21.9998 21.0012H19.7525C19.8107 20.244 19.9343 19.5151 20.1144 18.8222C20.725 18.9388 21.3552 18.9999 21.9997 19ZM18.197 18.2509C17.9642 19.1284 17.8109 20.0493 17.7475 21.0012H14.0619C14.2559 19.4465 14.896 18.0303 15.8501 16.8849C16.5615 17.4406 17.35 17.9023 18.197 18.2509ZM18.8502 16.356C18.3131 16.1256 17.8062 15.8381 17.3371 15.5007C17.6252 15.2936 17.9276 15.1051 18.2425 14.9372C18.7917 14.6445 19.3791 14.4139 19.9953 14.2549C19.557 14.9025 19.1725 15.6063 18.8502 16.356ZM25.1527 16.3559C24.8306 15.6066 24.4463 14.9032 24.0083 14.2558C24.977 14.5063 25.8746 14.9337 26.6645 15.5015C26.1957 15.8384 25.6893 16.1257 25.1527 16.3559ZM25.8064 25.7505C26.6527 26.0993 27.4407 26.5608 28.1516 27.1165C29.1049 25.9711 29.7444 24.5554 29.9382 23.0012H26.2555C26.1921 23.9527 26.0389 24.8734 25.8064 25.7505ZM26.6649 28.5007C26.1963 28.1635 25.6899 27.876 25.1534 27.6455C24.831 28.3955 24.4465 29.0995 24.0081 29.7473C24.9769 29.4969 25.8745 29.0694 26.6649 28.5007Z" fill="black" fill-opacity="0.6"/>
</svg>
