<svg width="18" height="16" viewBox="0 0 18 16" fill="none" xmlns="http://www.w3.org/2000/svg">
<path d="M15.0886 1.4946L15.0912 1.49617C15.6321 1.8228 16.0836 2.29193 16.3977 2.85931L16.3977 2.85932L16.4008 2.86493C16.7232 3.43851 16.8918 4.09246 16.8871 4.75873H16.887V4.76581C16.887 5.26016 16.7965 5.74057 16.6131 6.21177C16.4331 6.6734 16.1654 7.09117 15.8272 7.44081L15.8245 7.44362L8.99815 14.5559L2.1729 7.44575C2.17277 7.44562 2.17264 7.44549 2.17251 7.44535C1.49346 6.73569 1.10856 5.77385 1.10938 4.76662V4.76581C1.10938 4.06706 1.27274 3.43879 1.59579 2.86339L1.5958 2.8634L1.59862 2.85832C1.9126 2.29138 2.36375 1.82258 2.90422 1.49608L2.90422 1.49609L2.90879 1.49329C3.44615 1.16473 4.05823 0.995047 4.67897 1.00011V1.00014L4.68732 1.00014C5.15242 1.00005 5.61359 1.09537 6.04409 1.28131C6.47463 1.46728 6.86672 1.74057 7.19656 2.08664L7.19656 2.08664L7.19882 2.089L7.55534 2.46062C8.34227 3.28088 9.65374 3.28122 10.4411 2.46137L10.7983 2.08937L10.7984 2.08937L10.8014 2.0862C11.1341 1.73673 11.5307 1.46208 11.9663 1.27738L11.9663 1.27739L11.9699 1.27586C12.3955 1.09344 12.8511 0.999993 13.3104 1.00014C13.9592 1.00014 14.5458 1.16455 15.0886 1.4946Z" fill="#111111" stroke="#111111" stroke-width="2"/>
</svg>
