<svg width="26" height="26" viewBox="0 0 26 26" fill="none" xmlns="http://www.w3.org/2000/svg">
<path d="M22.7386 7.40233C22.5027 7.10151 22.2017 6.85815 21.8581 6.69058C21.5145 6.523 21.1373 6.43559 20.755 6.43492H9.50842C9.05125 6.43492 8.67533 6.81679 8.67533 7.28208C8.67533 7.74684 9.05125 8.12871 9.50842 8.12871H20.7578C21.015 8.12871 21.262 8.24896 21.4278 8.46292C21.593 8.67688 21.651 8.95204 21.58 9.26188L20.8444 16.2082C20.8064 16.4008 20.7025 16.5742 20.5506 16.6985C20.3987 16.8229 20.2082 16.8904 20.0119 16.8896H8.73871C8.3395 16.8896 7.98742 16.6036 7.90562 16.232L6.53792 4.75034C6.29038 3.56896 5.24713 2.70825 4.05979 2.70825H2.45754C2.00092 2.70825 1.625 3.10096 1.625 3.56896C1.625 4.03642 2.00092 4.41559 2.45754 4.41559H4.05979C4.459 4.41559 4.81108 4.70159 4.89288 5.07317L6.26113 16.5554C6.50813 17.7362 7.55083 18.5975 8.73871 18.5975H20.0092C21.1938 18.5975 22.2159 17.7742 22.497 16.5316L23.2326 9.58525C23.3147 9.2074 23.313 8.81615 23.2277 8.43902C23.1423 8.06189 22.9754 7.70803 22.7386 7.40233ZM18.9583 21.789C18.9546 21.981 18.9892 22.1719 19.0601 22.3504C19.1311 22.5289 19.2369 22.6914 19.3713 22.8285C19.5058 22.9657 19.6663 23.0746 19.8434 23.1489C20.0205 23.2233 20.2106 23.2616 20.4027 23.2616C20.5948 23.2616 20.7849 23.2233 20.962 23.1489C21.1391 23.0746 21.2995 22.9657 21.434 22.8285C21.5685 22.6914 21.6743 22.5289 21.7452 22.3504C21.8162 22.1719 21.8508 21.981 21.847 21.789C21.8397 21.4108 21.6843 21.0505 21.4143 20.7856C21.1442 20.5207 20.781 20.3723 20.4027 20.3723C20.0244 20.3723 19.6612 20.5207 19.3911 20.7856C19.1211 21.0505 18.9657 21.4108 18.9583 21.789ZM7.40296 21.789C7.39924 21.981 7.43385 22.1719 7.50477 22.3504C7.57568 22.5289 7.68148 22.6914 7.81597 22.8285C7.95046 22.9657 8.11094 23.0746 8.28802 23.1489C8.46511 23.2233 8.65525 23.2616 8.84731 23.2616C9.03938 23.2616 9.22952 23.2233 9.4066 23.1489C9.58369 23.0746 9.74417 22.9657 9.87866 22.8285C10.0131 22.6914 10.1189 22.5289 10.1899 22.3504C10.2608 22.1719 10.2954 21.981 10.2917 21.789C10.2843 21.4108 10.129 21.0505 9.85888 20.7856C9.58881 20.5207 9.22561 20.3723 8.84731 20.3723C8.46902 20.3723 8.10582 20.5207 7.83575 20.7856C7.56568 21.0505 7.41028 21.4108 7.40296 21.789Z" fill="black"/>
</svg>
