<svg width="24" height="25" viewBox="0 0 24 25" fill="none" xmlns="http://www.w3.org/2000/svg">
<mask id="path-1-inside-1_1093_16684" fill="white">
<path d="M20.2844 14.0007L13.3808 20.9042C12.6182 21.6668 11.3818 21.6668 10.6192 20.9042L3.71562 14.0007C3.71577 14.0008 3.71547 14.0005 3.71562 14.0007C1.42827 11.7128 1.42798 8.00349 3.71562 5.71584C6.00326 3.4282 9.71217 3.42805 12 5.7154C14.2878 3.42805 17.9967 3.4282 20.2844 5.71584C22.572 8.00349 22.5717 11.7128 20.2844 14.0007C20.2845 14.0005 20.2842 14.0008 20.2844 14.0007Z"/>
</mask>
<path d="M10.6192 20.9042L9.20498 22.3185L10.6192 20.9042ZM12 5.7154L10.5859 7.12976L12 8.54353L13.4141 7.12976L12 5.7154ZM18.8702 12.5865L11.9666 19.49L14.795 22.3185L21.6986 15.4149L18.8702 12.5865ZM11.9666 19.49C11.9686 19.488 11.9748 19.4832 11.9832 19.4798C11.9904 19.4769 11.996 19.4762 12 19.4762C12.004 19.4762 12.0096 19.4769 12.0168 19.4798C12.0253 19.4832 12.0314 19.488 12.0334 19.49L9.20498 22.3185C10.7486 23.8621 13.2514 23.8621 14.795 22.3185L11.9666 19.49ZM12.0334 19.49L5.12984 12.5865L2.30141 15.4149L9.20498 22.3185L12.0334 19.49ZM5.12984 12.5865C5.12982 12.5864 5.12982 12.5864 5.12981 12.5864C5.12977 12.5864 5.12983 12.5865 5.1298 12.5864C5.12979 12.5864 5.1298 12.5864 5.12979 12.5864C5.12979 12.5864 5.12979 12.5864 5.12979 12.5864H5.12979C5.12979 12.5864 5.12979 12.5864 5.12979 12.5864C5.12979 15.4148 2.30137 15.4148 2.30137 15.4148C2.30137 15.4148 2.30137 15.4148 2.30137 15.4148C2.30137 15.4148 2.30137 15.4148 2.30137 15.4148C2.30137 15.4148 2.30137 15.4148 2.30137 15.4148C2.30137 15.4148 2.30137 15.4148 2.30137 15.4148C2.30137 15.4148 2.30139 15.4149 2.30141 15.4149C2.30142 15.4149 2.30145 15.4149 2.30145 15.4149C2.30145 15.4149 2.30145 15.4149 2.30145 15.4149C2.30145 15.4149 2.30145 15.4149 2.30145 15.4149C2.30145 15.4149 2.30145 15.4149 2.30145 15.4149C2.30145 15.4149 2.30145 15.4149 2.30145 15.4149C2.30145 15.4149 5.12988 15.4149 5.12988 12.5865C5.12988 12.5865 5.12988 12.5865 5.12988 12.5865C5.12988 12.5865 5.12988 12.5865 5.12988 12.5865C5.12988 12.5865 5.12988 12.5865 5.12987 12.5865C5.12986 12.5865 5.12986 12.5865 5.12984 12.5865L2.30141 15.4149C2.30141 15.4149 2.30143 15.4149 2.30143 15.4149C2.30147 15.4149 2.30141 15.4149 2.30144 15.4149C2.30145 15.4149 2.30145 15.4149 2.30145 15.4149C2.30145 15.4149 2.30145 15.4149 2.30145 15.4149C2.30145 15.4149 2.30145 15.4149 2.30145 15.4149C2.30145 15.4149 2.30145 15.4149 2.30145 15.4149C2.30145 15.4149 2.30145 15.4149 2.30145 15.4149C2.30145 12.5865 5.12988 12.5865 5.12988 12.5865C5.12988 12.5865 5.12988 12.5865 5.12988 12.5865C5.12988 12.5865 5.12988 12.5865 5.12988 12.5865C5.12988 12.5865 5.12988 12.5865 5.12988 12.5865C5.12988 12.5865 5.12988 12.5865 5.12988 12.5865C5.12987 12.5865 5.12985 12.5865 5.12984 12.5865C5.12982 12.5864 5.1298 12.5864 5.12979 12.5864C5.12979 12.5864 5.12979 12.5864 5.12979 12.5864C5.12979 12.5864 5.12979 12.5864 5.12979 12.5864C5.12979 12.5864 5.12979 12.5864 5.12979 12.5864C5.12979 12.5864 5.12979 12.5864 5.12979 12.5864C5.12979 12.5864 5.12979 12.5864 5.12979 12.5864C5.12979 12.5864 5.12979 12.5864 5.12979 12.5864C5.12979 12.5864 2.30136 12.5864 2.30137 15.4148C2.30137 15.4148 2.30137 15.4148 2.30137 15.4148C2.30137 15.4148 2.30137 15.4148 2.30137 15.4148C2.30137 15.4148 2.30137 15.4148 2.30137 15.4148C2.30138 15.4149 2.30138 15.4149 2.30141 15.4149L5.12984 12.5865ZM5.12998 12.5866C3.62334 11.0796 3.62339 8.6365 5.12984 7.13006L2.30141 4.30163C-0.767431 7.37047 -0.766792 12.346 2.30126 15.4147L5.12998 12.5866ZM5.12984 7.13006C6.63648 5.62341 9.07917 5.62331 10.5859 7.12976L13.4141 4.30104C10.3452 1.23279 5.37005 1.23299 2.30141 4.30163L5.12984 7.13006ZM13.4141 7.12976C14.9208 5.62332 17.3635 5.62341 18.8702 7.13006L21.6986 4.30163C18.63 1.23299 13.6548 1.23279 10.5859 4.30104L13.4141 7.12976ZM18.8702 7.13006C20.3766 8.6365 20.3767 11.0796 18.87 12.5866L21.6987 15.4147C24.7668 12.346 24.7674 7.37047 21.6986 4.30163L18.8702 7.13006ZM18.8702 12.5865C18.87 12.5866 18.8702 12.5864 18.8701 12.5865C18.8701 12.5865 18.8701 12.5865 18.8701 12.5865C18.8701 12.5865 18.8701 12.5865 18.8701 12.5865C18.8701 12.5865 18.8701 12.5865 18.8701 12.5865C18.8701 12.5865 18.8701 12.5865 18.8701 12.5865C21.6986 12.5865 21.6986 15.4149 21.6986 15.4149C21.6985 15.4149 21.6986 15.4149 21.6986 15.4149C21.6986 15.4149 21.6986 15.4149 21.6986 15.4149C21.6986 15.4149 21.6986 15.4149 21.6986 15.4149C21.6986 15.4149 21.6986 15.4148 21.6986 15.4148C21.6986 15.4148 21.6986 15.4148 21.6986 15.4148C21.6986 15.4148 21.6986 15.4148 21.6986 15.4148L21.6986 15.4148C21.6986 15.4148 21.6986 15.4148 21.6986 15.4148C21.6986 15.4148 21.6986 12.5864 18.8702 12.5864C18.8702 12.5864 18.8702 12.5864 18.8702 12.5864C18.8702 12.5864 18.8702 12.5864 18.8702 12.5864C18.8702 12.5864 18.8702 12.5864 18.8702 12.5864C18.8702 12.5864 18.8702 12.5864 18.8702 12.5864L18.8702 12.5864C18.8702 12.5864 18.8702 12.5864 18.8702 12.5864C18.8702 12.5864 18.8702 12.5864 18.8702 12.5864C18.8702 12.5865 18.8702 12.5864 18.8702 12.5864C18.8702 12.5865 18.8702 12.5864 18.8702 12.5865L21.6986 15.4149C21.6987 15.4148 21.6985 15.415 21.6986 15.4148C21.6986 15.4148 21.6986 15.4148 21.6986 15.4148C21.6986 15.4148 21.6986 15.4148 21.6986 15.4148C21.6986 15.4148 21.6986 15.4148 21.6986 15.4148C21.6986 15.4148 21.6986 15.4148 21.6986 15.4148C18.8702 15.4148 18.8702 12.5864 18.8702 12.5864C18.8702 12.5864 18.8702 12.5864 18.8702 12.5864C18.8702 12.5864 18.8702 12.5864 18.8702 12.5864C18.8702 12.5864 18.8702 12.5864 18.8702 12.5865C18.8702 12.5865 18.8701 12.5865 18.8701 12.5865C18.8701 12.5865 18.8701 12.5865 18.8701 12.5865C18.8701 12.5865 18.8701 12.5865 18.8701 12.5865L18.8701 12.5865C18.8701 12.5865 18.8701 12.5865 18.8701 12.5865C18.8701 12.5865 18.8701 15.4149 21.6985 15.4149C21.6985 15.4149 21.6986 15.4149 21.6986 15.4149C21.6985 15.4149 21.6986 15.4149 21.6986 15.4149C21.6986 15.4149 21.6986 15.4149 21.6986 15.4149C21.6986 15.4149 21.6986 15.4149 21.6986 15.4149L21.6986 15.4149C21.6986 15.4149 21.6986 15.4149 21.6986 15.4149C21.6986 15.4149 21.6985 15.4149 21.6986 15.4149C21.6986 15.4149 21.6985 15.4149 21.6986 15.4149C21.6986 15.4149 21.6986 15.4149 21.6986 15.4149L18.8702 12.5865Z" fill="black" fill-opacity="0.6" mask="url(#path-1-inside-1_1093_16684)"/>
</svg>
