<svg width="20" height="18" viewBox="0 0 20 18" fill="none" xmlns="http://www.w3.org/2000/svg">
<path d="M0 3C0 1.34315 1.34315 0 3 0H11.0317C12.6711 0 14 1.32893 14 2.96825C14 3.52054 13.5523 3.96825 13 3.96825C12.4477 3.96825 12 3.52054 12 2.96825C12 2.4335 11.5665 2 11.0317 2H3C2.44772 2 2 2.44772 2 3V15C2 15.5523 2.44772 16 3 16H11.0317C11.5665 16 12 15.5665 12 15.0317C12 14.4795 12.4477 14.0317 13 14.0317C13.5523 14.0317 14 14.4795 14 15.0317C14 16.6711 12.6711 18 11.0317 18H3C1.34315 18 0 16.6569 0 15V3Z" fill="black"/>
<path d="M6 9C6 8.44771 6.44772 8 7 8H16.5858L15.2929 6.70711C14.9024 6.31658 14.9024 5.68342 15.2929 5.29289C15.6834 4.90237 16.3166 4.90237 16.7071 5.29289L19.7071 8.29289C20.0976 8.68342 20.0976 9.31658 19.7071 9.70711L16.7071 12.7071C16.3166 13.0976 15.6834 13.0976 15.2929 12.7071C14.9024 12.3166 14.9024 11.6834 15.2929 11.2929L16.5858 10H7C6.44772 10 6 9.55229 6 9Z" fill="black"/>
</svg>
