<svg width="24" height="24" viewBox="0 0 24 24" fill="none" xmlns="http://www.w3.org/2000/svg">
<path d="M19.4657 9.32334L19.008 9.78105L18.363 9.71681L17.4636 9.62848L16.781 10.311L16.2939 10.8009C16.3903 11.1863 16.4465 11.5851 16.4465 11.9973C16.4465 14.7248 14.2275 16.9438 11.5 16.9438C8.77248 16.9438 6.55353 14.7248 6.55353 11.9973C6.55353 9.26981 8.77248 7.05086 11.5 7.05086C12.2923 7.05086 13.0418 7.2409 13.7056 7.57548L13.8742 7.40685L14.5567 6.7243L14.4684 5.82495L14.4042 5.17987L14.8619 4.72216L16.334 3.25C14.902 2.45503 13.2559 2 11.5 2C5.97805 2 1.5 6.47805 1.5 12C1.5 17.5219 5.97805 22 11.5 22C17.0219 22 21.5 17.5219 21.5 12C21.5 10.6135 21.2002 9.3046 20.689 8.10546L19.4657 9.32334Z" fill="#808080"/>
<path d="M15.9857 7.23507L14.8454 8.37533L13.5124 9.70831C12.9718 9.23454 12.2732 8.93475 11.4996 8.93475C9.81063 8.93475 8.4375 10.3079 8.4375 11.9969C8.4375 13.6858 9.8133 15.0616 11.5023 15.0616C13.1912 15.0616 14.5644 13.6858 14.5644 11.9969C14.5644 11.582 14.4787 11.1885 14.3288 10.8272L16.952 8.20402L18.4964 8.35659L21.5237 5.32929L19.0986 5.09107L18.8604 2.66602L15.8358 5.69064L15.9857 7.23507Z" fill="#808080"/>
</svg>
