<svg width="24" height="24" viewBox="0 0 24 24" fill="none" xmlns="http://www.w3.org/2000/svg">
<g clip-path="url(#clip0_82_1934)">
<path opacity="0.5" d="M8.60715 5.78582L10.9643 8.14296C11.1786 8.35725 11.5357 8.46439 11.8214 8.39296L15.1071 7.78582C15.8929 7.64296 16.5357 8.46439 16.1786 9.17868L14.6786 12.143C14.5357 12.4287 14.5357 12.7858 14.6786 13.0715L16.2857 16.0001C16.6786 16.7144 16.0714 17.5715 15.2857 17.4287L12 16.893C11.6786 16.8572 11.3571 16.9644 11.1429 17.1787L8.85714 19.6072C8.28572 20.2144 7.32143 19.893 7.17857 19.1072L6.64286 15.8215C6.60715 15.5001 6.39286 15.2144 6.10715 15.1072L3.10715 13.6787C2.35715 13.3215 2.35715 12.2858 3.07143 11.9287L6.03572 10.393C6.32143 10.2501 6.5 9.96439 6.57143 9.64296L7 6.35725C7.07143 5.53582 8.03572 5.21439 8.60715 5.78582Z" fill="#7D47FF"/>
<path d="M14.4285 4.67864L16.0714 8.00007C16.2142 8.3215 16.5357 8.53578 16.8928 8.60721L20.5357 9.14293C21.4285 9.28578 21.7857 10.3572 21.1428 11.0001L18.5 13.5715C18.25 13.8215 18.1428 14.1786 18.1785 14.5358L18.7857 18.1786C18.9285 19.0715 18 19.7501 17.2142 19.3215L13.9285 17.6072C13.6071 17.4286 13.25 17.4286 12.9285 17.6072L9.64282 19.3215C8.8571 19.7501 7.92853 19.0715 8.07139 18.1786L8.67853 14.5358C8.74996 14.1786 8.6071 13.8215 8.3571 13.5715L5.71425 11.0001C5.07139 10.3572 5.42853 9.28578 6.32139 9.14293L9.96425 8.60721C10.3214 8.5715 10.6071 8.3215 10.7857 8.00007L12.4285 4.67864C12.8928 3.89293 14.0357 3.89293 14.4285 4.67864Z" fill="#7D47FF"/>
</g>
<defs>
<clipPath id="clip0_82_1934">
<rect width="20" height="20" fill="white" transform="translate(2 2)"/>
</clipPath>
</defs>
</svg>
