<svg width="24" height="24" viewBox="0 0 24 24" fill="none" xmlns="http://www.w3.org/2000/svg">
<path d="M20.1512 6H11.3488C11.1562 6 11 5.84375 11 5.65125V4.9725C11 3.95625 10.1688 3.125 9.15125 3.125H3.84875C2.83125 3.125 2 3.95625 2 4.97375V20.1525C2 21.1688 2.83125 22 3.84875 22H20.1525C21.1688 22 22.0012 21.1688 22.0012 20.1513V7.84875C22 6.83125 21.1687 6 20.1512 6Z" fill="#808080"/>
<path d="M12.1861 16.0539L14.0711 16.9576C14.3617 17.097 14.7004 16.8724 14.6452 16.5793L14.2852 14.666C14.2625 14.5486 14.305 14.4298 14.3985 14.3472L15.8797 13.0277C16.122 12.8134 15.976 12.4403 15.6401 12.4119L13.6147 12.2441C13.4758 12.2325 13.3525 12.1537 13.293 12.0375L12.3576 10.2082C12.2158 9.93061 11.7835 9.93061 11.6418 10.2082L10.7064 12.0375C10.6482 12.1537 10.5249 12.2325 10.3846 12.2441L8.35924 12.4119C8.02333 12.439 7.87876 12.8134 8.11971 13.0277L9.6065 14.3459C9.65226 14.3867 9.68648 14.4371 9.70622 14.4926C9.72597 14.5481 9.73066 14.6072 9.71989 14.6647L9.35988 16.578C9.30461 16.8724 9.64335 17.097 9.93249 16.9576L11.8176 16.0539C11.9338 15.9984 12.0713 15.9984 12.1861 16.0539Z" fill="white"/>
</svg>
