<svg width="20" height="20" viewBox="0 0 20 20" fill="none" xmlns="http://www.w3.org/2000/svg">
<g clip-path="url(#clip0_238_11880)">
<path d="M10 18.2812C14.5736 18.2812 18.2812 14.5736 18.2812 10C18.2812 5.42639 14.5736 1.71875 10 1.71875C5.42639 1.71875 1.71875 5.42639 1.71875 10C1.71875 14.5736 5.42639 18.2812 10 18.2812ZM10 20C4.47715 20 0 15.5229 0 10C0 4.47715 4.47715 0 10 0C15.5229 0 20 4.47715 20 10C20 15.5229 15.5229 20 10 20Z" fill="black" fill-opacity="0.6"/>
<path d="M10.8594 5C10.8594 4.52539 10.4746 4.14062 10 4.14062C9.52539 4.14062 9.14062 4.52539 9.14062 5V11.6307C9.14062 12.1053 9.52539 12.4901 10 12.4901C10.4746 12.4901 10.8594 12.1053 10.8594 11.6307V5ZM10 13.3594C9.30965 13.3594 8.75 13.919 8.75 14.6094C8.75 15.2997 9.30965 15.8594 10 15.8594C10.6904 15.8594 11.25 15.2997 11.25 14.6094C11.25 13.919 10.6904 13.3594 10 13.3594Z" fill="black" fill-opacity="0.6"/>
</g>
<defs>
<clipPath id="clip0_238_11880">
<rect width="20" height="20" fill="white"/>
</clipPath>
</defs>
</svg>
