<svg width="24" height="24" viewBox="0 0 24 24" fill="none" xmlns="http://www.w3.org/2000/svg">
<path fill-rule="evenodd" clip-rule="evenodd" d="M14.4612 12.9009H9.54622C9.72235 15.4906 10.6504 17.7671 12.0037 19.4346C13.357 17.7671 14.2851 15.4906 14.4612 12.9009ZM9.54627 11.1009C9.72252 8.51154 10.6505 6.23529 12.0037 4.56799C13.3569 6.23529 14.2849 8.51154 14.4611 11.1009H9.54627ZM7.74268 11.1009H3.84874C4.23028 7.60714 6.80655 4.77294 10.1696 4.00625C8.79252 5.93417 7.90491 8.39486 7.74268 11.1009ZM7.74264 12.9009H3.84867C4.22997 16.3949 6.8063 19.2294 10.1695 19.9962C8.79235 18.0681 7.90474 15.6072 7.74264 12.9009ZM16.2648 12.9009H20.1511C19.7701 16.3918 17.1981 19.2242 13.8394 19.9941C15.2157 18.0663 16.1027 15.6062 16.2648 12.9009ZM20.151 11.1009H16.2647C16.1026 8.39584 15.2155 5.93595 13.8393 4.00835C17.1979 4.7781 19.7698 7.61032 20.151 11.1009ZM12.0037 22.0033L12.0012 22.0012H11.9999C6.47703 22.0012 1.99988 17.5241 1.99988 12.0012C1.99988 6.47838 6.47703 2.00124 11.9999 2.00124L12.0014 2.00124L12.0037 1.99927L12.006 2.00124C17.526 2.00457 21.9999 6.48044 21.9999 12.0012C21.9999 17.522 17.5261 21.9978 12.0062 22.0012L12.0037 22.0033Z" fill="#111111"/>
</svg>
