<svg width="44" height="44" viewBox="0 0 44 44" fill="none" xmlns="http://www.w3.org/2000/svg">
<rect width="44" height="44" rx="22" fill="black" fill-opacity="0.04"/>
<path fill-rule="evenodd" clip-rule="evenodd" d="M17.1111 15.8888C16.4361 15.8888 15.8889 16.436 15.8889 17.111V26.8888C15.8889 27.5638 16.4361 28.111 17.1111 28.111H26.8889C27.5639 28.111 28.1111 27.5638 28.1111 26.8888V25.6666V25.0554V23.8332H30.5556V25.0554V25.6666V26.8888C30.5556 28.9138 28.9139 30.5554 26.8889 30.5554H17.1111C15.0861 30.5554 13.4445 28.9138 13.4445 26.8888V17.111C13.4445 15.086 15.0861 13.4443 17.1111 13.4443H18.3333H18.9445H20.1667V15.8888H18.9445H18.3333H17.1111ZM20.2715 21.9999L21.1358 21.1357L26.3826 15.8888L24.4445 15.8888L23.2222 15.8888V13.4443H24.4445H29.3333H30.5556V14.6666V19.5554V20.7777H28.1111V19.5554V17.6173L22.8643 22.8641L22 23.7284L20.2715 21.9999Z" fill="black" fill-opacity="0.6"/>
</svg>
