<svg width="24" height="24" viewBox="0 0 24 24" fill="none" xmlns="http://www.w3.org/2000/svg">
<path d="M19.25 3.25C20.7687 3.25 22 4.48125 22 6V9.5C22 9.69891 21.921 9.88968 21.7803 10.0303C21.6397 10.171 21.4489 10.25 21.25 10.25C20.7859 10.25 20.3408 10.4344 20.0126 10.7626C19.6844 11.0908 19.5 11.5359 19.5 12C19.5 12.4641 19.6844 12.9092 20.0126 13.2374C20.3408 13.5656 20.7859 13.75 21.25 13.75C21.4489 13.75 21.6397 13.829 21.7803 13.9697C21.921 14.1103 22 14.3011 22 14.5V18C22 19.5188 20.7687 20.75 19.25 20.75H4.75C3.23125 20.75 2 19.5188 2 18V14.5C2 14.3011 2.07902 14.1103 2.21967 13.9697C2.36032 13.829 2.55109 13.75 2.75 13.75C3.21413 13.75 3.65925 13.5656 3.98744 13.2374C4.31563 12.9092 4.5 12.4641 4.5 12C4.5 11.5359 4.31563 11.0908 3.98744 10.7626C3.65925 10.4344 3.21413 10.25 2.75 10.25C2.55109 10.25 2.36032 10.171 2.21967 10.0303C2.07902 9.88968 2 9.69891 2 9.5V6C2 4.48125 3.23125 3.25 4.75 3.25H19.25ZM15 13.25H9C8.80109 13.25 8.61032 13.329 8.46967 13.4697C8.32902 13.6103 8.25 13.8011 8.25 14C8.25 14.1989 8.32902 14.3897 8.46967 14.5303C8.61032 14.671 8.80109 14.75 9 14.75H15C15.1989 14.75 15.3897 14.671 15.5303 14.5303C15.671 14.3897 15.75 14.1989 15.75 14C15.75 13.8011 15.671 13.6103 15.5303 13.4697C15.3897 13.329 15.1989 13.25 15 13.25ZM15 9.25H9C8.80109 9.25 8.61032 9.32902 8.46967 9.46967C8.32902 9.61032 8.25 9.80109 8.25 10C8.25 10.1989 8.32902 10.3897 8.46967 10.5303C8.61032 10.671 8.80109 10.75 9 10.75H15C15.1989 10.75 15.3897 10.671 15.5303 10.5303C15.671 10.3897 15.75 10.1989 15.75 10C15.75 9.80109 15.671 9.61032 15.5303 9.46967C15.3897 9.32902 15.1989 9.25 15 9.25Z" fill="#808080"/>
</svg>
