<svg width="24" height="24" viewBox="0 0 24 24" fill="none" xmlns="http://www.w3.org/2000/svg">
<path d="M18 2C19.0609 2 20.0783 2.42143 20.8284 3.17157C21.5786 3.92172 22 4.93914 22 6V18C22 19.0609 21.5786 20.0783 20.8284 20.8284C20.0783 21.5786 19.0609 22 18 22H6C4.93913 22 3.92172 21.5786 3.17157 20.8284C2.42143 20.0783 2 19.0609 2 18V6C2 4.93914 2.42143 3.92172 3.17157 3.17157C3.92172 2.42143 4.93913 2 6 2H18ZM16.3125 12.4525H7.689L7.6105 12.4565C7.0505 12.515 6.7885 13.1985 7.2035 13.605L9.962 16.303L10.027 16.359C10.297 16.5645 10.687 16.545 10.934 16.3015L10.991 16.238C11.0933 16.1088 11.1439 15.9462 11.1331 15.7817C11.1223 15.6173 11.0508 15.4627 10.9325 15.348L9.3525 13.8015H16.3125L16.3925 13.797C16.5583 13.7793 16.7119 13.7013 16.8239 13.5778C16.9359 13.4542 16.9986 13.2938 17 13.127C17 12.7545 16.692 12.4525 16.3125 12.4525ZM13.9735 6.641C13.8404 6.54037 13.6756 6.49083 13.5091 6.50138C13.3426 6.51193 13.1853 6.58187 13.066 6.6985L13.009 6.762C12.9067 6.89123 12.8561 7.05382 12.8669 7.21826C12.8777 7.3827 12.9492 7.53727 13.0675 7.652L14.6475 9.1985H7.6875L7.6075 9.203C7.44166 9.22067 7.28812 9.2987 7.17609 9.42225C7.06407 9.5458 7.00139 9.70623 7 9.873C7 10.2455 7.308 10.548 7.6875 10.548H16.311L16.3895 10.5435C16.9495 10.485 17.2115 9.8015 16.7965 9.395L14.038 6.697L13.9735 6.641Z" fill="#808080"/>
</svg>
