<svg width="20" height="20" viewBox="0 0 20 20" fill="none" xmlns="http://www.w3.org/2000/svg">
<path d="M10.6 5C10.8209 5 11 5.17909 11 5.4V10.6C11 10.8209 10.8209 11 10.6 11H9.4C9.17909 11 9 10.8209 9 10.6V5.4C9 5.17909 9.17909 5 9.4 5H10.6Z" fill="#FACC56"/>
<path d="M11 12.9C11 12.6791 10.8209 12.5 10.6 12.5H9.4C9.17909 12.5 9 12.6791 9 12.9V14.2C9 14.4209 9.17909 14.6 9.4 14.6L10.6 14.6C10.8209 14.6 11 14.4209 11 14.2L11 12.9Z" fill="#FACC56"/>
<path fill-rule="evenodd" clip-rule="evenodd" d="M10 20C15.5228 20 20 15.5228 20 10C20 4.47715 15.5228 0 10 0C4.47715 0 0 4.47715 0 10C0 15.5228 4.47715 20 10 20ZM10 18C14.4183 18 18 14.4183 18 10C18 5.58172 14.4183 2 10 2C5.58172 2 2 5.58172 2 10C2 14.4183 5.58172 18 10 18Z" fill="#FACC56"/>
</svg>
