<svg width="44" height="44" viewBox="0 0 44 44" fill="none" xmlns="http://www.w3.org/2000/svg">
<rect width="44" height="44" rx="22" fill="#7D47FF"/>
<g clip-path="url(#clip0_84_2070)">
<path fill-rule="evenodd" clip-rule="evenodd" d="M22.4649 29.1964L24.2651 26.0784L25.9971 27.0784L24.197 30.1964C22.5401 33.0661 18.8706 34.0494 16.0008 32.3925C13.1311 30.7357 12.1478 27.0661 13.8047 24.1964L15.6048 21.0784L17.3369 22.0784L15.5367 25.1964C14.4322 27.1095 15.0877 29.5559 17.0008 30.6605C18.914 31.765 21.3604 31.1095 22.4649 29.1964ZM28.3971 22.9215L26.6651 21.9215L28.4649 18.8041C29.5695 16.8909 28.914 14.4445 27.0008 13.34C25.0877 12.2354 22.6413 12.8909 21.5367 14.8041L19.7369 17.9215L18.0048 16.9215L19.8047 13.8041C21.4615 10.9343 25.1311 9.95106 28.0008 11.6079C30.8706 13.2648 31.8538 16.9343 30.197 19.8041L28.3971 22.9215ZM25.4425 18.444L24.4425 20.176L21.6425 25.0258L20.6425 26.7578L20.2961 26.5578L18.9104 25.7578L18.564 25.5578L19.564 23.8258L22.364 18.976L23.364 17.244L23.7104 17.444L25.0961 18.244L25.4425 18.444Z" fill="white"/>
</g>
<defs>
<clipPath id="clip0_84_2070">
<rect width="24" height="24" fill="white" transform="translate(10 10)"/>
</clipPath>
</defs>
</svg>
