<svg width="24" height="24" viewBox="0 0 24 24" fill="none" xmlns="http://www.w3.org/2000/svg">
<g clip-path="url(#clip0_82_1928)">
<path d="M5.13022 8.35533C5.12749 8.33875 5.11997 8.32331 5.10857 8.31085C5.09717 8.29839 5.08237 8.28945 5.06595 8.2851C5.04953 8.28075 5.03219 8.28118 5.01601 8.28633C4.99983 8.29148 4.9855 8.30114 4.97474 8.31414C4.30963 9.12346 1.37454 13.1643 4.21938 18.4399C5.61973 20.893 7.37127 22.06 8.42877 22.5776C8.92545 22.8204 9.47213 22.9468 10.0263 22.9469H13.5666C14.068 22.9471 14.564 22.8455 15.0239 22.6484C16.4242 22.0484 19.2627 20.4675 20.2094 17.2283C21.465 12.935 19.4859 12.3821 20.9941 8.40815C21 8.39105 21.001 8.37266 20.9968 8.35506C20.9927 8.33746 20.9837 8.32134 20.9708 8.30854C20.9579 8.29574 20.9416 8.28676 20.9238 8.28261C20.906 8.27846 20.8874 8.27931 20.87 8.28506C19.7419 8.71347 17.8579 10.0549 17.4008 12.5832C17.4004 12.585 17.3993 12.5866 17.3979 12.5877C17.3964 12.5888 17.3946 12.5894 17.3927 12.5894C17.3909 12.5894 17.389 12.5888 17.3876 12.5877C17.3861 12.5866 17.3851 12.585 17.3846 12.5832C17.3326 11.1923 16.6616 8.9141 15.7111 7.45151C14.7718 6.00781 13.7418 4.15025 15.4526 1.26382C15.4696 1.23557 15.4782 1.20316 15.4774 1.1703C15.4767 1.13744 15.4666 1.10544 15.4484 1.07796C15.4301 1.05048 15.4044 1.02862 15.3742 1.01487C15.344 1.00112 15.3105 0.996031 15.2775 1.00019C13.1316 1.2614 9.30037 3.83621 8.12123 6.16628C6.93326 8.51186 6.57569 10.3244 6.83271 11.7404C6.83556 11.7563 6.83342 11.7726 6.82658 11.7872C6.81973 11.8018 6.80851 11.814 6.79444 11.822C6.78036 11.8301 6.76411 11.8338 6.74789 11.8324C6.73166 11.8311 6.71624 11.8249 6.70371 11.8146C5.6212 10.8996 5.22979 8.96644 5.13022 8.35533Z" fill="#F15F11"/>
<path d="M11.7523 9.94519C11.7405 9.93637 11.7263 9.93119 11.7115 9.93031C11.6967 9.92943 11.682 9.93288 11.6693 9.94024C11.6565 9.94759 11.6462 9.95852 11.6396 9.97165C11.6331 9.98477 11.6307 9.99951 11.6326 10.014C11.7179 10.6319 11.7694 12.8151 8.99327 15.6618C6.23475 18.4906 7.81609 22.6171 9.50583 22.8827C10.889 23.0998 12.9594 22.9617 13.6647 22.9045C13.897 22.8859 14.1242 22.8273 14.3362 22.7315C15.0528 22.4059 16.4159 21.4516 16.3747 18.9059C16.3747 17.832 15.4427 16.7406 15.0709 16.3485C15.0566 16.3332 15.0384 16.3219 15.0182 16.3158C14.9979 16.3097 14.9764 16.3092 14.9559 16.3141C14.9354 16.3191 14.9165 16.3294 14.9014 16.3439C14.8863 16.3585 14.8754 16.3768 14.8698 16.397C14.7104 16.9853 14.1704 18.7024 13.1355 19.3828C13.1127 19.3979 13.0855 19.4053 13.0581 19.4039C13.0307 19.4025 13.0045 19.3924 12.9834 19.375C12.9623 19.3577 12.9474 19.334 12.9411 19.3076C12.9347 19.2813 12.9372 19.2535 12.9481 19.2287C13.4293 18.1586 14.192 15.9221 14.0066 14.6771C13.8064 13.3288 13.1688 11.0022 11.7523 9.94519Z" fill="#F7D367"/>
</g>
<defs>
<clipPath id="clip0_82_1928">
<rect width="18" height="22" fill="white" transform="translate(3 1)"/>
</clipPath>
</defs>
</svg>
