<svg width="17" height="18" viewBox="0 0 17 18" fill="none" xmlns="http://www.w3.org/2000/svg">
<path d="M15.6914 12.4708C16.5268 10.6605 16.6476 8.69261 16.1677 6.90572C15.6161 4.84336 14.2584 3.00446 12.2898 1.8872L13.163 0L8.19785 1.30188L10.4185 5.92993L11.3322 3.95542C12.67 4.77232 13.5858 6.05221 13.9733 7.4933C14.3199 8.79157 14.2349 10.2033 13.629 11.5206C12.8568 13.1947 11.4134 14.3346 9.76056 14.7793C9.52134 14.8432 9.27837 14.8921 9.03306 14.9258L10.0581 17.0446C10.1555 17.0219 10.2522 16.9991 10.3482 16.9729C12.6239 16.3662 14.6292 14.7786 15.6914 12.4708ZM5.15296 14.1273C3.79532 13.3119 2.86557 12.021 2.47429 10.5668C2.12779 9.2685 2.21349 7.85599 2.81865 6.54017C3.59085 4.86537 5.03422 3.72545 6.68711 3.28079C6.96118 3.20746 7.24026 3.15476 7.52238 3.12097L6.50034 0.991231C6.36625 1.01987 6.23214 1.0506 6.0995 1.08651C3.82456 1.69452 1.81858 3.28214 0.755507 5.58997C-0.0782376 7.39956 -0.199189 9.36815 0.28072 11.1543L0.282186 11.1601C0.838257 13.2364 2.21201 15.0849 4.20268 16.1992L3.37697 18L8.33704 16.6805L6.10101 12.0606L5.15296 14.1273Z" fill="#111111"/>
</svg>
