<svg width="24" height="24" viewBox="0 0 24 24" fill="none" xmlns="http://www.w3.org/2000/svg">
<path d="M19.7935 5.93748C20.1867 6.82587 20.4136 7.66338 20.474 8.4499C20.5346 9.23642 20.4892 9.96094 20.338 10.6236C20.1867 11.2864 19.9675 11.8798 19.6801 12.4042C19.3928 12.9285 19.0942 13.3873 18.7842 13.7805C18.4742 14.1737 18.1831 14.4978 17.9108 14.7528C17.6386 15.0076 17.4496 15.1787 17.3438 15.2661C17.1926 15.3972 17.0527 15.4955 16.9241 15.561C16.7956 15.6266 16.6822 15.6813 16.5838 15.7249C16.4856 15.7686 16.391 15.8196 16.3003 15.8778C16.2096 15.9361 16.1189 16.0307 16.0282 16.1618C15.8316 16.4385 15.6803 16.708 15.5745 16.9702C15.4686 17.2323 15.3779 17.4873 15.3023 17.7348C15.2266 17.9387 15.1434 18.1062 15.0527 18.2373C14.962 18.3684 14.8638 18.4849 14.7579 18.5868C14.6369 18.7033 14.5159 18.7981 14.3949 18.8708H9.40463C9.28368 18.7981 9.17024 18.7034 9.06439 18.5868C8.95852 18.4849 8.85272 18.3538 8.74684 18.1937C8.64094 18.0334 8.55024 17.8295 8.47459 17.5818C8.32342 17.1595 8.13812 16.8208 7.91894 16.566C7.69962 16.3111 7.41607 16.0598 7.06832 15.8122C6.82629 15.6375 6.5503 15.4044 6.24028 15.1132C5.93027 14.8218 5.62413 14.4796 5.32163 14.0863C5.01915 13.6931 4.73182 13.2526 4.45973 12.7646C4.18748 12.2767 3.96819 11.7414 3.80184 11.1589C3.63557 10.5763 3.5372 9.95363 3.50698 9.29098C3.47675 8.62821 3.54474 7.93278 3.71109 7.2045C3.96816 6.0394 4.4143 5.05993 5.0494 4.26617C5.68458 3.47239 6.3953 2.8351 7.18171 2.35455C7.96798 1.87387 8.78081 1.52791 9.62015 1.31683C10.4593 1.1056 11.2193 1 11.8998 1C12.6105 1 13.3515 1.09461 14.1227 1.28397C14.894 1.47332 15.6387 1.7683 16.357 2.16885C17.0754 2.56931 17.7332 3.07912 18.3305 3.69814C18.9278 4.31711 19.4155 5.06361 19.7935 5.93748ZM14.8713 20.2254V20.4657C14.8713 20.5385 14.8751 20.6186 14.8826 20.7061C14.8901 20.7934 14.894 20.8808 14.894 20.9682C14.8788 21.2449 14.7994 21.5471 14.6558 21.8748C14.5121 22.2025 14.2361 22.4392 13.8279 22.5848C13.6615 22.6432 13.4461 22.7269 13.1814 22.8362C12.9168 22.9454 12.5198 23 11.9905 23C11.5368 23 11.1626 22.949 10.8677 22.847C10.5728 22.745 10.3422 22.6795 10.1758 22.6504C9.96413 22.6067 9.79401 22.5157 9.66542 22.3774C9.53694 22.239 9.4386 22.0824 9.37059 21.9077C9.30247 21.7328 9.26094 21.5544 9.24576 21.3723C9.23069 21.1903 9.22315 21.0264 9.22315 20.8808V20.2035L14.8713 20.2254Z" fill="#808080"/>
</svg>
