<svg width="58" height="32" viewBox="0 0 58 32" fill="none" xmlns="http://www.w3.org/2000/svg">
<path fill-rule="evenodd" clip-rule="evenodd" d="M26.25 10.2L24 10.2C23.5582 10.2 23.2 10.5582 23.2 11V13.25H26.25V10.2ZM26.25 9H24C22.8954 9 22 9.89543 22 11V13.25V14.45V17.55V18.75V21C22 22.1046 22.8954 23 24 23H26.25H27.45H30.55H31.75H34C35.1046 23 36 22.1046 36 21V18.75V17.55V14.45V13.25V11C36 9.89543 35.1046 9 34 9H31.75H30.55H27.45H26.25ZM30.55 10.2L27.45 10.2V13.25H30.55V10.2ZM31.75 13.25V10.2H34C34.4418 10.2 34.8 10.5582 34.8 11V13.25H31.75ZM30.55 14.45H27.45L27.45 17.55H30.55L30.55 14.45ZM31.75 17.55L31.75 14.45H34.8V17.55H31.75ZM30.55 18.75H27.45V21.8H30.55V18.75ZM31.75 21.8H34C34.4418 21.8 34.8 21.4418 34.8 21V18.75H31.75V21.8ZM26.25 21.8V18.75H23.2V21C23.2 21.4418 23.5582 21.8 24 21.8H26.25ZM26.25 17.55L26.25 14.45H23.2V17.55H26.25Z" fill="black" fill-opacity="0.3"/>
</svg>
