<svg width="16" height="16" viewBox="0 0 16 16" fill="none" xmlns="http://www.w3.org/2000/svg">
<path d="M9.14416 0.950178C8.51298 0.318996 7.48963 0.318996 6.85845 0.950178L5.99284 1.81579H3.80286C2.91023 1.81579 2.18662 2.53941 2.18662 3.43203V5.62201L1.14416 6.66446C0.512981 7.29565 0.512981 8.319 1.14416 8.95018L2.18662 9.99263V11.5133C2.18662 12.4059 2.91023 13.1295 3.80286 13.1295H5.32348L6.85845 14.6645C7.48963 15.2956 8.51298 15.2956 9.14416 14.6645L10.6791 13.1295H11.8841C12.7767 13.1295 13.5003 12.4059 13.5003 11.5133V10.3083L14.8584 8.95018C15.4896 8.319 15.4896 7.29565 14.8584 6.66446L13.5003 5.30634V3.43203C13.5003 2.53941 12.7767 1.81579 11.8841 1.81579H10.0098L9.14416 0.950178Z" fill="#1063E0"/>
<path fill-rule="evenodd" clip-rule="evenodd" d="M10.8352 5.91676C11.0314 6.09897 11.0428 6.40577 10.8605 6.602L7.50364 10.2171L5.30119 7.84527C5.11898 7.64903 5.13034 7.34224 5.32657 7.16002C5.52281 6.9778 5.8296 6.98917 6.01182 7.1854L7.50364 8.79198L10.1499 5.94214C10.3321 5.7459 10.6389 5.73454 10.8352 5.91676Z" fill="white"/>
</svg>
