<svg width="58" height="32" viewBox="0 0 58 32" fill="none" xmlns="http://www.w3.org/2000/svg">
<rect width="58" height="32" rx="8" fill="white"/>
<path fill-rule="evenodd" clip-rule="evenodd" d="M28.5 10.2H24C23.5582 10.2 23.2 10.5582 23.2 11V15.5H28.5V10.2ZM28.5 9H24C22.8954 9 22 9.89543 22 11V15.5V16.5V21C22 22.1046 22.8954 23 24 23H28.5H29.5H34C35.1046 23 36 22.1046 36 21V16.5V15.5V11C36 9.89543 35.1046 9 34 9H29.5H28.5ZM29.5 10.2V15.5H34.8V11C34.8 10.5582 34.4418 10.2 34 10.2H29.5ZM28.5 16.5H23.2V21C23.2 21.4418 23.5582 21.8 24 21.8H28.5V16.5ZM29.5 21.8H34C34.4418 21.8 34.8 21.4418 34.8 21V16.5H29.5V21.8Z" fill="#111111"/>
</svg>
