<svg width="44" height="44" viewBox="0 0 44 44" fill="none" xmlns="http://www.w3.org/2000/svg">
<rect width="44" height="44" rx="22" fill="#7D47FF"/>
<path fill-rule="evenodd" clip-rule="evenodd" d="M17.3334 22C17.3334 23.1046 16.4379 24 15.3334 24C14.2288 24 13.3334 23.1046 13.3334 22C13.3334 20.8954 14.2288 20 15.3334 20C16.4379 20 17.3334 20.8954 17.3334 22ZM24 22C24 23.1046 23.1046 24 22 24C20.8955 24 20 23.1046 20 22C20 20.8954 20.8955 20 22 20C23.1046 20 24 20.8954 24 22ZM28.6667 24C29.7713 24 30.6667 23.1046 30.6667 22C30.6667 20.8954 29.7713 20 28.6667 20C27.5621 20 26.6667 20.8954 26.6667 22C26.6667 23.1046 27.5621 24 28.6667 24Z" fill="white"/>
</svg>
