<svg width="13" height="15" viewBox="0 0 13 15" fill="none" xmlns="http://www.w3.org/2000/svg">
<path fill-rule="evenodd" clip-rule="evenodd" d="M2.78654 7.52705C2.71247 7.60112 2.67041 7.70128 2.6694 7.80602L2.65419 9.37686C2.65203 9.60079 2.83411 9.78288 3.05805 9.78071L4.62888 9.76551C4.73363 9.76449 4.83379 9.72244 4.90786 9.64837L10.0096 4.54663C10.1658 4.39042 10.1658 4.13716 10.0096 3.98095L8.45396 2.42531C8.29775 2.2691 8.04448 2.2691 7.88827 2.42531L2.78654 7.52705ZM1.52867 11.3101C1.30473 11.3123 1.12265 11.1302 1.12481 10.9062L1.16075 7.19335C1.16176 7.08861 1.20382 6.98844 1.27789 6.91438L7.90909 0.283172C8.0653 0.126963 8.31857 0.126964 8.47478 0.283173L12.1517 3.96013C12.3079 4.11634 12.3079 4.3696 12.1517 4.52581L5.52053 11.157C5.44646 11.2311 5.3463 11.2731 5.24156 11.2742L1.52867 11.3101Z" fill="#1063E0"/>
<path fill-rule="evenodd" clip-rule="evenodd" d="M0.584961 13.3998C0.584961 13.1789 0.764047 12.9998 0.984961 12.9998H12.185C12.4059 12.9998 12.585 13.1789 12.585 13.3998V14.5998C12.585 14.8207 12.4059 14.9998 12.185 14.9998H0.984961C0.764047 14.9998 0.584961 14.8207 0.584961 14.5998V13.3998Z" fill="#1063E0"/>
</svg>
