<svg width="24" height="24" viewBox="0 0 24 24" fill="none" xmlns="http://www.w3.org/2000/svg">
<g clip-path="url(#clip0_82_1895)">
<path fill-rule="evenodd" clip-rule="evenodd" d="M11.0989 21.3332V24H12.8989V21.3332H11.0989ZM11.0989 2.66655H12.8989V0H11.0989V2.66655ZM16.9739 15.702C17.7441 14.6689 18.2 13.3877 18.2 12C18.2 10.6134 17.7448 9.33311 16.9757 8.30041L13.274 12.0021L16.9739 15.702ZM12 4C14.5337 4 16.7923 5.17787 18.2581 7.0159L19.2366 6.03735L17.9649 4.76562L19.8516 2.87897L21.1244 4.15176L18.259 7.01709C19.3487 8.38405 20 10.116 20 12C20 13.8851 19.348 15.618 18.2571 16.9853L21.1208 19.8489L19.848 21.1217L17.9611 19.2348L19.2331 17.9628L18.2564 16.9862C16.7906 18.823 14.5327 20 12 20C10.116 20 8.38405 19.3487 7.01709 18.259L4.1538 21.1223L2.881 19.8495L4.76559 17.9649L6.03732 19.2367L7.0159 18.2581C5.17787 16.7923 4 14.5337 4 12C4 9.46725 5.17698 7.20941 7.01383 5.74357L6.03377 4.76351L4.76178 6.0355L2.87745 4.15118L4.15025 2.87839L7.01472 5.74286C8.38204 4.65203 10.1149 4 12 4ZM12 18.2C10.6134 18.2 9.33311 17.7448 8.30041 16.9757L13.2732 12.0029L16.9732 15.703C15.8429 17.2186 14.0361 18.2 12 18.2ZM13.2721 12.0019L8.29918 16.9748C6.78236 15.8446 5.8 14.037 5.8 12C5.8 9.96394 6.78144 8.15711 8.29705 7.02679L13.2721 12.0019ZM8.29796 7.0261L13.2729 12.0011L16.9748 8.29918C15.8446 6.78236 14.037 5.8 12 5.8C10.6123 5.8 9.33109 6.2559 8.29796 7.0261ZM24 12.9001H21.3343V11.1001H24V12.9001ZM2.66761 11.1001V12.9001H0V11.1001H2.66761Z" fill="#111111"/>
</g>
<defs>
<clipPath id="clip0_82_1895">
<rect width="24" height="24" fill="white"/>
</clipPath>
</defs>
</svg>
