<svg width="20" height="20" viewBox="0 0 20 20" fill="none" xmlns="http://www.w3.org/2000/svg">
<g clip-path="url(#clip0_2067_44118)">
<path d="M15.0002 3.33333C15.0002 3.77536 14.8246 4.19928 14.512 4.51184C14.1994 4.82441 13.7755 5 13.3335 5H6.66683C6.2248 5 5.80088 4.82441 5.48832 4.51184C5.17576 4.19928 5.00016 3.77536 5.00016 3.33333H2.50016V18.3333H17.5002V3.33333H15.0002ZM15.0002 1.66667H17.5002C17.719 1.66667 17.9358 1.70978 18.138 1.79353C18.3402 1.87729 18.5239 2.00006 18.6787 2.15482C18.8334 2.30959 18.9562 2.49332 19.04 2.69553C19.1237 2.89774 19.1668 3.11446 19.1668 3.33333V18.3333C19.1668 18.7754 18.9912 19.1993 18.6787 19.5118C18.3661 19.8244 17.9422 20 17.5002 20H2.50016C2.05814 20 1.63421 19.8244 1.32165 19.5118C1.00909 19.1993 0.833496 18.7754 0.833496 18.3333V3.33333C0.833496 3.11446 0.876606 2.89774 0.960364 2.69553C1.04412 2.49332 1.16689 2.30959 1.32165 2.15482C1.47642 2.00006 1.66015 1.87729 1.86236 1.79353C2.06457 1.70978 2.28129 1.66667 2.50016 1.66667H5.00016C5.00016 1.22464 5.17576 0.800716 5.48832 0.488155C5.80088 0.175595 6.2248 0 6.66683 0H13.3335C13.7755 0 14.1994 0.175595 14.512 0.488155C14.8246 0.800716 15.0002 1.22464 15.0002 1.66667ZM6.66683 1.66667V3.33333H13.3335V1.66667H6.66683ZM10.0002 10.4883L12.3568 8.13083C12.4343 8.05341 12.5262 7.99199 12.6273 7.95009C12.7285 7.90819 12.8369 7.88662 12.9464 7.88662C13.0559 7.88662 13.1643 7.90819 13.2655 7.95009C13.3667 7.99199 13.4586 8.05341 13.536 8.13083C13.6134 8.20826 13.6748 8.30018 13.7167 8.40134C13.7586 8.5025 13.7802 8.61092 13.7802 8.72042C13.7802 8.82991 13.7586 8.93834 13.7167 9.0395C13.6748 9.14066 13.6134 9.23257 13.536 9.31L11.1785 11.6667L13.536 14.0233C13.6924 14.1797 13.7802 14.3918 13.7802 14.6129C13.7802 14.8341 13.6924 15.0461 13.536 15.2025C13.3796 15.3589 13.1675 15.4467 12.9464 15.4467C12.7253 15.4467 12.5132 15.3589 12.3568 15.2025L10.0002 12.845L7.6435 15.2025C7.56607 15.2799 7.47415 15.3413 7.37299 15.3832C7.27183 15.4251 7.16341 15.4467 7.05391 15.4467C6.94442 15.4467 6.83599 15.4251 6.73483 15.3832C6.63367 15.3413 6.54175 15.2799 6.46433 15.2025C6.30796 15.0461 6.22012 14.8341 6.22012 14.6129C6.22012 14.5034 6.24168 14.395 6.28359 14.2938C6.32549 14.1927 6.3869 14.1008 6.46433 14.0233L8.82183 11.6667L6.46433 9.31C6.3869 9.23257 6.32549 9.14066 6.28359 9.0395C6.24168 8.93834 6.22012 8.82991 6.22012 8.72042C6.22012 8.61092 6.24168 8.5025 6.28359 8.40134C6.32549 8.30018 6.3869 8.20826 6.46433 8.13083C6.6207 7.97447 6.83278 7.88662 7.05391 7.88662C7.16341 7.88662 7.27183 7.90819 7.37299 7.95009C7.47415 7.99199 7.56607 8.05341 7.6435 8.13083L10.0002 10.4883Z" fill="#333333"/>
</g>
<defs>
<clipPath id="clip0_2067_44118">
<rect width="20" height="20" fill="white"/>
</clipPath>
</defs>
</svg>
