<svg width="24" height="24" viewBox="0 0 24 24" fill="none" xmlns="http://www.w3.org/2000/svg">
<g clip-path="url(#clip0_82_1931)">
<path d="M20.9891 3C30.9293 2.99298 38.993 11.0409 39 20.9723L35.9984 20.9739C35.9948 12.6947 29.2731 5.98945 20.9857 5.99802C12.6992 6.00159 5.98803 12.7174 5.9966 20.9975L3 21C2.9939 11.0636 11.0489 3.00703 20.9891 3Z" fill="#6BE1B0"/>
<path d="M20.9805 5.99732C29.267 5.99375 35.9837 12.698 35.9932 20.9732L32.9916 20.9748C32.9906 14.3528 27.6108 8.99022 20.983 8.99127C14.3542 8.99731 8.98785 14.3673 8.9889 20.9893L5.98731 20.9909C5.98781 12.7176 12.699 6.00182 20.9805 5.99732Z" fill="#F7D367"/>
<path d="M20.9782 8.98948C27.606 8.98843 32.9858 14.351 32.9868 20.973L29.9902 20.9755C29.9867 16.0098 25.9548 11.9858 20.9798 11.9884C16.0097 11.9919 11.9822 16.0202 11.9857 20.9859L8.98409 20.9875C8.98212 14.3705 14.3544 8.99644 20.9782 8.98948Z" fill="#F15F11"/>
<path d="M20.9673 11.9867C25.9424 11.9841 29.9743 16.0081 29.9778 20.9738L26.9762 20.9754C26.9752 17.6669 24.2853 14.9856 20.9689 14.9856C17.6575 14.9866 14.9689 17.6732 14.9748 20.9826L11.9733 20.9842C11.9697 16.0185 15.9972 11.9902 20.9673 11.9867Z" fill="url(#paint0_linear_82_1931)"/>
</g>
<defs>
<linearGradient id="paint0_linear_82_1931" x1="3" y1="12.0165" x2="39" y2="12.0165" gradientUnits="userSpaceOnUse">
<stop stop-color="#AA79F7"/>
<stop offset="1" stop-color="#6F5DF6"/>
</linearGradient>
<clipPath id="clip0_82_1931">
<rect width="18" height="18" fill="white" transform="translate(3 3)"/>
</clipPath>
</defs>
</svg>
