<svg width="24" height="24" viewBox="0 0 24 24" fill="none" xmlns="http://www.w3.org/2000/svg">
<path fill-rule="evenodd" clip-rule="evenodd" d="M10.4581 4.22892L19.9754 13.7463L13.4963 20.2254L3.9789 10.7081L4.0104 4.26041L10.4581 4.22892ZM2.56469 12.1223C2.18722 11.7448 1.97632 11.2321 1.97893 10.6983L2.01042 4.25064C2.01578 3.15371 2.90369 2.26579 4.00063 2.26044L10.4483 2.22894C10.9821 2.22634 11.4948 2.43724 11.8723 2.81471L21.3896 12.3321C22.1707 13.1131 22.1707 14.3794 21.3896 15.1605L14.9105 21.6397C14.1294 22.4207 12.8631 22.4207 12.082 21.6397L2.56469 12.1223ZM9.69875 9.94578C10.5534 9.09112 10.5602 7.71216 9.71379 6.8658C8.86743 6.01944 7.48847 6.02617 6.63381 6.88084C5.77914 7.73551 5.7724 9.11447 6.61876 9.96083C7.46512 10.8072 8.84408 10.8005 9.69875 9.94578Z" fill="#111111"/>
</svg>
