<svg width="24" height="24" viewBox="0 0 24 24" fill="none" xmlns="http://www.w3.org/2000/svg">
<path fill-rule="evenodd" clip-rule="evenodd" d="M10.461 4.22892L19.9784 13.7463L13.4992 20.2254L3.98183 10.7081L4.01333 4.26041L10.461 4.22892ZM2.56762 12.1223C2.19015 11.7448 1.97925 11.2321 1.98186 10.6983L2.01335 4.25064C2.01871 3.15371 2.90662 2.26579 4.00356 2.26044L10.4512 2.22894C10.9851 2.22634 11.4978 2.43724 11.8752 2.81471L21.3926 12.3321C22.1736 13.1131 22.1736 14.3794 21.3926 15.1605L14.9134 21.6397C14.1324 22.4207 12.866 22.4207 12.085 21.6397L2.56762 12.1223ZM9.42389 8.27435C9.78458 8.63504 9.80144 9.25002 9.40337 9.64809C9.0053 10.0462 8.39032 10.0293 8.02963 9.66861C7.66894 9.30793 7.65208 8.69294 8.05016 8.29487C8.44823 7.8968 9.06321 7.91366 9.42389 8.27435ZM10.8381 6.86013C11.9928 8.01486 11.9836 9.89624 10.8176 11.0623C9.65152 12.2284 7.77015 12.2376 6.61542 11.0828C5.46069 9.9281 5.46988 8.04672 6.63594 6.88066C7.80201 5.7146 9.68338 5.70541 10.8381 6.86013Z" fill="#111111"/>
</svg>
