<svg width="20" height="20" viewBox="0 0 20 20" fill="none" xmlns="http://www.w3.org/2000/svg">
<path opacity="0.6" d="M12.0587 17.5002C11.8377 17.5002 11.6257 17.4124 11.4695 17.2561C11.3132 17.0999 11.2254 16.8879 11.2254 16.6669V13.0586C11.2254 12.7513 11.1034 12.4567 10.8861 12.2395C10.6689 12.0223 10.3743 11.9002 10.0671 11.9002H4.10039C3.79318 11.9002 3.49856 12.0223 3.28133 12.2395C3.0641 12.4567 2.94206 12.7513 2.94206 13.0586V16.6669C2.94202 16.8879 2.85421 17.0998 2.69793 17.2561C2.54166 17.4123 2.32972 17.5001 2.10872 17.5001C1.88773 17.5001 1.67579 17.4123 1.51951 17.2561C1.36324 17.0998 1.27542 16.8879 1.27539 16.6669V13.0586C1.27539 12.3093 1.57302 11.5908 2.10281 11.061C2.6326 10.5312 3.35115 10.2336 4.10039 10.2336H10.0671C10.438 10.2336 10.8054 10.3066 11.1481 10.4486C11.4909 10.5906 11.8023 10.7987 12.0646 11.061C12.327 11.3233 12.535 11.6347 12.677 11.9775C12.819 12.3202 12.8921 12.6876 12.8921 13.0586V16.6669C12.8921 16.8879 12.8043 17.0999 12.648 17.2561C12.4917 17.4124 12.2797 17.5002 12.0587 17.5002ZM18.0087 17.5002C17.7877 17.5002 17.5758 17.4124 17.4195 17.2561C17.2632 17.0999 17.1754 16.8879 17.1754 16.6669V13.0586C17.1754 12.7513 17.0534 12.4567 16.8361 12.2395C16.6189 12.0223 16.3243 11.9002 16.0171 11.9002H13.5171C13.4076 11.9002 13.2992 11.8787 13.1981 11.8368C13.097 11.795 13.0051 11.7336 12.9277 11.6562C12.8503 11.5788 12.7889 11.4869 12.747 11.3858C12.7052 11.2847 12.6836 11.1763 12.6836 11.0669C12.6836 10.9574 12.7052 10.8491 12.747 10.748C12.7889 10.6468 12.8503 10.555 12.9277 10.4776C13.0051 10.4002 13.097 10.3388 13.1981 10.297C13.2992 10.2551 13.4076 10.2335 13.5171 10.2336H16.0171C16.7663 10.2336 17.4848 10.5312 18.0146 11.061C18.5444 11.5908 18.8421 12.3093 18.8421 13.0586V16.6669C18.8421 16.8879 18.7543 17.0999 18.598 17.2561C18.4417 17.4124 18.2297 17.5002 18.0087 17.5002ZM7.08372 9.59189C6.3265 9.59353 5.58583 9.37039 4.95554 8.95073C4.32524 8.53107 3.83369 7.93377 3.54316 7.23451C3.25262 6.53524 3.17617 5.76547 3.32349 5.02272C3.47081 4.27996 3.83528 3.59765 4.37072 3.06221C4.90615 2.52678 5.58847 2.16231 6.33122 2.01499C7.07397 1.86766 7.84374 1.94411 8.54301 2.23465C9.24228 2.52519 9.83957 3.01674 10.2592 3.64703C10.6789 4.27733 10.902 5.018 10.9004 5.77522C10.8982 6.78679 10.4954 7.75629 9.78008 8.47158C9.0648 9.18687 8.09529 9.58969 7.08372 9.59189ZM7.08372 3.61689C6.6565 3.61524 6.23839 3.74042 5.88236 3.97657C5.52633 4.21273 5.24839 4.54924 5.08375 4.94347C4.91912 5.33771 4.87518 5.77194 4.95752 6.19116C5.03985 6.61038 5.24476 6.99574 5.54627 7.29842C5.84778 7.6011 6.23235 7.8075 6.65125 7.89145C7.07015 7.97541 7.50454 7.93316 7.89941 7.77005C8.29428 7.60693 8.63186 7.3303 8.86939 6.97519C9.10692 6.62007 9.23372 6.20245 9.23373 5.77522C9.23373 5.20424 9.00748 4.65651 8.60451 4.25199C8.20155 3.84746 7.65471 3.61909 7.08372 3.61689ZM12.8754 9.59189C12.6544 9.59185 12.4425 9.50404 12.2862 9.34776C12.13 9.19149 12.0422 8.97955 12.0422 8.75855C12.0422 8.53756 12.13 8.32562 12.2862 8.16934C12.4425 8.01307 12.6544 7.92525 12.8754 7.92522C13.4236 7.89111 13.9381 7.64931 14.3142 7.24907C14.6903 6.84884 14.8997 6.32027 14.8997 5.77105C14.8997 5.22183 14.6903 4.69327 14.3142 4.29303C13.9381 3.8928 13.4236 3.651 12.8754 3.61689C12.6544 3.61685 12.4425 3.52904 12.2862 3.37276C12.13 3.21649 12.0422 3.00455 12.0422 2.78355C12.0422 2.56256 12.13 2.35062 12.2862 2.19434C12.4425 2.03807 12.6544 1.95025 12.8754 1.95022C13.8579 1.99612 14.7849 2.41871 15.464 3.13023C16.143 3.84175 16.5219 4.7875 16.5219 5.77105C16.5219 6.75461 16.143 7.70036 15.464 8.41188C14.7849 9.1234 13.8579 9.54599 12.8754 9.59189Z" fill="#111111"/>
</svg>
