<svg width="14" height="14" viewBox="0 0 14 14" fill="none" xmlns="http://www.w3.org/2000/svg">
<path fill-rule="evenodd" clip-rule="evenodd" d="M4.83327 7.16673C4.98948 7.01052 4.98948 6.75725 4.83327 6.60104L0.282843 2.05061C0.126633 1.8944 0.126633 1.64113 0.282843 1.48492L1.48492 0.282843C1.64113 0.126633 1.8944 0.126633 2.05061 0.282843L6.60104 4.83327C6.75725 4.98948 7.01052 4.98948 7.16673 4.83327L11.7172 0.282843C11.8734 0.126633 12.1266 0.126633 12.2828 0.282843L13.4849 1.48492C13.6411 1.64113 13.6411 1.8944 13.4849 2.05061L8.93449 6.60104C8.77828 6.75725 8.77828 7.01052 8.93449 7.16673L13.4849 11.7172C13.6411 11.8734 13.6411 12.1266 13.4849 12.2828L12.2828 13.4849C12.1266 13.6411 11.8734 13.6411 11.7172 13.4849L7.16673 8.93449C7.01052 8.77828 6.75725 8.77828 6.60104 8.93449L2.05061 13.4849C1.8944 13.6411 1.64113 13.6411 1.48492 13.4849L0.282843 12.2828C0.126633 12.1266 0.126633 11.8734 0.282843 11.7172L4.83327 7.16673Z" fill="#111111"/>
</svg>
