<svg width="24" height="24" viewBox="0 0 24 24" fill="none" xmlns="http://www.w3.org/2000/svg">
<path d="M3.80442 8.04975C4.48491 7.25194 5.70244 7.42908 6.54647 7.85166C7.03444 8.10619 7.63645 7.91836 7.89347 7.43077C8.15095 6.94177 7.96345 6.33647 7.47497 6.07876L7.47347 6.07796C5.80894 5.20514 3.57291 5.23833 2.28342 6.74991C1.17488 8.04929 1.31241 10.077 2.25942 11.6203C3.25791 13.2471 5.19989 14.5001 7.99997 14.5001C8.55248 14.5001 8.99995 14.0521 8.99995 13.4993C8.99995 12.9466 8.55248 12.4985 7.99997 12.4985C5.84395 12.4985 4.57191 11.5643 3.96342 10.5727C3.30389 9.49758 3.44091 8.47552 3.80442 8.04975ZM20.1956 8.04975C19.5151 7.25194 18.2976 7.42908 17.4535 7.85166C16.9656 8.10619 16.3635 7.91836 16.1065 7.43077C15.849 6.94177 16.0365 6.33647 16.525 6.07876L16.5265 6.07796C18.1911 5.20514 20.4271 5.23833 21.7166 6.74991C22.8251 8.04929 22.6876 10.077 21.7406 11.6203C20.7421 13.2471 18.8001 14.5001 16 14.5001C15.4475 14.5001 15 14.0521 15 13.4993C15 12.9466 15.4475 12.4985 16 12.4985C18.156 12.4985 19.4281 11.5643 20.0366 10.5727C20.6961 9.49758 20.5591 8.47552 20.1956 8.04975ZM13.279 15.0001H10.721L10.0885 18.2956C10.0075 18.7171 9.66098 19.0411 9.22697 19.1017L7.44647 19.3501C6.80194 19.4401 6.28594 19.9171 6.15844 20.5406L6.01242 21.2527C5.93344 21.6391 6.23592 22.0002 6.63994 22.0002H17.3601C17.7641 22.0002 18.0666 21.6391 17.9876 21.2527L17.8416 20.5406C17.7141 19.9171 17.1981 19.4401 16.5535 19.3501L14.773 19.1017C14.339 19.0411 13.9926 18.7171 13.9115 18.2956L13.279 15.0001Z" fill="#F17D11"/>
<path d="M6.426 13.3325C6.843 15.7386 8.98153 17.5002 11.4861 17.5002H12.514C15.0186 17.5002 17.1571 15.7386 17.5741 13.3325L18.4841 8.08189C18.6089 7.36269 18.8334 6.66443 19.1512 6.0073L19.7596 4.7473C20.3331 3.55925 19.8646 2.42089 18.5261 2.26948C17.2316 2.12305 15.1936 2 12 2C8.8065 2 6.76852 2.12305 5.47397 2.26953C4.13545 2.42094 3.66694 3.55925 4.24045 4.74734L4.84898 6.0073C5.16677 6.66442 5.39128 7.36269 5.51602 8.08189L6.426 13.3325V13.3325Z" fill="#F7D367"/>
<path d="M11.4329 5.34636C11.6714 4.88455 12.3284 4.88455 12.5669 5.34636L13.3389 6.84256L14.9839 7.16816C15.4704 7.26439 15.6669 7.8568 15.3354 8.22734L14.1664 9.53436L14.3804 11.2782C14.4429 11.7865 13.9174 12.16 13.4614 11.9313L11.9999 11.198L10.5384 11.9313C10.0824 12.16 9.55687 11.7865 9.61941 11.2782L9.83339 9.53436L8.66437 8.22734C8.33287 7.8568 8.52937 7.26439 9.01589 7.16816L10.6609 6.84256L11.4329 5.34641V5.34636Z" fill="white"/>
</svg>
