<svg width="18" height="16" viewBox="0 0 18 16" fill="none" xmlns="http://www.w3.org/2000/svg">
<path fill-rule="evenodd" clip-rule="evenodd" d="M14.5701 2.34906C14.1855 2.11524 13.7789 2.00014 13.3114 2.00014C12.9881 1.99999 12.6665 2.0657 12.3648 2.19501L12.3576 2.19807C12.0493 2.32878 11.766 2.52424 11.5266 2.77571L11.5206 2.78205L11.1633 3.15403C9.98231 4.38381 8.0151 4.3833 6.83471 3.15292L6.47366 2.77658C6.23551 2.52672 5.95445 2.33147 5.64855 2.19934C5.34275 2.06726 5.01653 2.00008 4.68849 2.00014L4.68014 2.00014L4.67179 2.00008C4.2394 1.99655 3.81065 2.11458 3.43143 2.34645L3.42229 2.35204C3.0337 2.58678 2.70493 2.92654 2.4744 3.3428L2.46877 3.35297C2.23266 3.7735 2.11035 4.23228 2.11035 4.76581V4.76743C2.10975 5.52048 2.39775 6.23297 2.89545 6.75342C2.89573 6.75371 2.89601 6.754 2.89629 6.7543L8.99908 13.1118L15.104 6.75116L15.1094 6.74557C15.3541 6.49257 15.5498 6.18829 15.682 5.84942C15.8212 5.49189 15.888 5.13423 15.888 4.76581V4.75873L15.8881 4.75164C15.8916 4.25812 15.7666 3.77566 15.5301 3.35489L15.5238 3.34366C15.2931 2.92708 14.9642 2.58704 14.5753 2.3522L14.5701 2.34906ZM17.5458 6.57494C17.3181 7.15902 16.9784 7.68997 16.5469 8.13607L9.72059 15.2484C9.32704 15.6584 8.6713 15.6584 8.27772 15.2484L1.45146 8.13721C0.591103 7.23834 0.109338 6.02718 0.110353 4.76581C0.110353 3.90184 0.314798 3.1041 0.724795 2.37384C1.12222 1.65622 1.69576 1.0584 2.38812 0.640137C3.08361 0.214882 3.87902 -0.00645607 4.6881 0.000143378C5.29026 2.50968e-05 5.88639 0.123487 6.44158 0.363286C6.99677 0.603085 7.49987 0.954428 7.92141 1.3967L8.27794 1.76833C8.6714 2.17846 9.32714 2.17863 9.72081 1.7687L10.0781 1.3967C10.5041 0.949217 11.014 0.595385 11.5769 0.356712C12.1265 0.121184 12.716 -8.09297e-06 13.3114 0.000142252C13.3121 0.000142439 13.3129 0.000142814 13.3136 0.000143378C13.3133 0.000143221 13.3139 0.000143494 13.3136 0.000143378C14.1424 0.000655064 14.9089 0.214375 15.6091 0.640137C16.302 1.05855 16.876 1.6568 17.2736 2.37498C17.6818 3.10137 17.894 3.92681 17.888 4.76581C17.888 5.38637 17.7736 5.98981 17.5458 6.57494Z" fill="#111111"/>
</svg>
