<svg width="24" height="24" viewBox="0 0 24 24" fill="none" xmlns="http://www.w3.org/2000/svg">
<path fill-rule="evenodd" clip-rule="evenodd" d="M7 6C6.44772 6 6 6.44772 6 7V17.0035C6 17.5558 6.44772 18.0035 7 18.0035H17.0035C17.5558 18.0035 18.0035 17.5558 18.0035 17.0035V15.5026V14.9191V13.9191H20.0035V14.9191V15.5026V17.0035C20.0035 18.6603 18.6603 20.0035 17.0035 20.0035H7C5.34315 20.0035 4 18.6603 4 17.0035V7C4 5.34315 5.34314 4 7 4H8.50087H9.08435H10.0844V6H9.08435H8.50087H7ZM10.5872 12.0024L11.2943 11.2953L16.5879 6.00174L14.3331 6.00174H13.3331V4.00174L14.3331 4.00174L19.0009 4.00174L20.0009 4.00174V5.00174V9.66957V10.6696H18.0009V9.66957V7.41714L12.7085 12.7095L12.0014 13.4166L10.5872 12.0024Z" fill="#7D47FF"/>
</svg>
