<svg width="22" height="21" viewBox="0 0 22 21" fill="none" xmlns="http://www.w3.org/2000/svg">
<path d="M10.1432 2.42372C10.5319 1.7779 11.4681 1.7779 11.8568 2.42372L14.2425 6.38799C14.3822 6.62 14.6099 6.78547 14.8737 6.84657L19.3812 7.89051C20.1155 8.06057 20.4048 8.95105 19.9107 9.52025L16.8777 13.0142C16.7002 13.2187 16.6132 13.4865 16.6366 13.7562L17.0367 18.3657C17.1018 19.1166 16.3444 19.667 15.6503 19.3729L11.3901 17.5681C11.1408 17.4624 10.8592 17.4624 10.6099 17.5681L6.34967 19.3729C5.65564 19.667 4.89816 19.1166 4.96333 18.3657L5.36337 13.7562C5.38678 13.4865 5.29979 13.2187 5.12228 13.0142L2.08927 9.52025C1.59516 8.95104 1.88449 8.06057 2.61881 7.89051L7.12628 6.84657C7.39008 6.78547 7.61783 6.62 7.75746 6.38799L10.1432 2.42372Z" stroke="#111111" stroke-width="2" stroke-linejoin="round"/>
</svg>
