<svg width="16" height="20" viewBox="0 0 16 20" fill="none" xmlns="http://www.w3.org/2000/svg">
<path fill-rule="evenodd" clip-rule="evenodd" d="M0.4 0C0.179086 0 0 0.179086 0 0.4V19.3161C0 19.622 0.329463 19.8147 0.596105 19.6647L7.8039 15.6103C7.92566 15.5418 8.07434 15.5418 8.19611 15.6103L15.4039 19.6647C15.6705 19.8147 16 19.622 16 19.3161V0.4C16 0.179086 15.8209 0 15.6 0H0.4ZM8.36933 3.88797C8.23269 3.55945 7.76731 3.55946 7.63067 3.88797L6.63906 6.2721C6.58145 6.41059 6.45121 6.50522 6.30169 6.51721L3.72783 6.72355C3.37317 6.75199 3.22936 7.19459 3.49957 7.42606L5.46059 9.10587C5.5745 9.20345 5.62425 9.35657 5.58945 9.50247L4.99032 12.0141C4.90777 12.3602 5.28427 12.6338 5.58791 12.4483L7.7915 11.1024C7.9195 11.0242 8.08049 11.0242 8.2085 11.1024L10.4121 12.4483C10.7157 12.6338 11.0922 12.3602 11.0097 12.0141L10.4106 9.50247C10.3758 9.35657 10.4255 9.20345 10.5394 9.10587L12.5004 7.42606C12.7706 7.19459 12.6268 6.75199 12.2722 6.72355L9.69831 6.51721C9.54879 6.50522 9.41855 6.41059 9.36094 6.2721L8.36933 3.88797Z" fill="#111111"/>
</svg>
