<svg width="20" height="17" viewBox="0 0 20 17" fill="none" xmlns="http://www.w3.org/2000/svg">
<path d="M18.0072 4.07819C17.913 11.1834 13.3694 16.0501 6.58688 16.3557C3.78984 16.4838 1.76348 15.5802 0 14.4599C2.06727 14.7899 4.63066 13.9636 6.00163 12.79C3.97527 12.5928 2.77554 11.5614 2.21417 9.90154C2.79971 10.0028 3.41658 9.97592 3.97286 9.85812C2.14432 9.24602 0.838567 8.11587 0.7711 5.74776C1.28422 5.98137 1.81914 6.20098 2.52979 6.24427C1.16134 5.46589 0.149443 2.62048 1.3084 0.738929C3.33939 2.96507 5.78244 4.78167 9.79399 5.02741C8.78683 0.722062 14.4921 -1.61261 16.8799 1.28102C17.8893 1.08574 18.7109 0.702787 19.5012 0.285965C19.1759 1.28579 18.5495 1.9845 17.7858 2.54345C18.6241 2.43028 19.3661 2.22545 20 1.91224C19.6068 2.72901 18.747 3.46146 18.0072 4.07819Z" fill="#111111"/>
</svg>
