<svg width="24" height="24" viewBox="0 0 24 24" fill="none" xmlns="http://www.w3.org/2000/svg">
<path fill-rule="evenodd" clip-rule="evenodd" d="M12.5244 6.91786L11.7861 6.24333L10.0047 4.61573V12.0043V13.0043H8.00474V12.0043V4.60785L6.21475 6.24333L5.4765 6.91786L4 5.5688L4.73825 4.89428L8.26218 1.67453L9.00043 1L9.73868 1.67453L13.2626 4.89428L14.0009 5.5688L12.5244 6.91786ZM11.4756 17.0821L12.2139 17.7567L13.9953 19.3843L13.9953 11.9956V10.9956L15.9953 10.9956V11.9956L15.9953 19.3922L17.7852 17.7567L18.5235 17.0821L20 18.4312L19.2617 19.1057L15.7378 22.3255L14.9996 23L14.2613 22.3255L10.7374 19.1057L9.99914 18.4312L11.4756 17.0821Z" fill="#111111"/>
</svg>
