<svg width="24" height="24" viewBox="0 0 24 24" fill="none" xmlns="http://www.w3.org/2000/svg">
<path d="M12.3695 6.74639C12.2328 6.41787 11.7675 6.41787 11.6308 6.74639L10.6392 9.13052C10.5816 9.26901 10.4514 9.36364 10.3018 9.37562L7.72798 9.58197C7.37331 9.6104 7.2295 10.053 7.49972 10.2845L9.46073 11.9643C9.57465 12.0619 9.6244 12.215 9.58959 12.3609L8.99047 14.8725C8.90792 15.2186 9.28442 15.4922 9.58806 15.3067L11.7916 13.9608C11.9197 13.8826 12.0806 13.8826 12.2086 13.9608L14.4122 15.3067C14.7159 15.4922 15.0924 15.2186 15.0098 14.8725L14.4107 12.3609C14.3759 12.215 14.4256 12.0619 14.5396 11.9643L16.5006 10.2845C16.7708 10.053 16.627 9.6104 16.2723 9.58197L13.6985 9.37562C13.5489 9.36364 13.4187 9.26901 13.3611 9.13051L12.3695 6.74639Z" fill="#111111"/>
<path d="M5 3H19V20.6398L12.4176 18.5828C12.1457 18.4978 11.8543 18.4978 11.5824 18.5828L5 20.6398V3ZM4.22104 20.8832C4.22134 20.8831 4.22165 20.883 4.22195 20.8829L4.22104 20.8832ZM19.779 20.8832L19.778 20.8829L19.779 20.8832Z" stroke="black" stroke-width="2" stroke-linecap="round"/>
</svg>
