<svg width="18" height="18" viewBox="0 0 18 18" fill="none" xmlns="http://www.w3.org/2000/svg">
<g opacity="0.6">
<path d="M11.1602 8.2793H6.83945C4.06035 8.2793 1.7998 10.5416 1.7998 13.3207V15.4811C1.7998 16.6729 2.76836 17.6414 3.96016 17.6414H14.0395C15.2312 17.6414 16.1998 16.6729 16.1998 15.4811V13.3207C16.1998 10.5416 13.9393 8.2793 11.1602 8.2793ZM14.7602 15.4793C14.7602 15.8766 14.4367 16.2 14.0395 16.2H3.96016C3.56289 16.2 3.23945 15.8766 3.23945 15.4793V13.3207C3.23945 11.3361 4.85488 9.7207 6.83945 9.7207H11.1602C13.1447 9.7207 14.7602 11.3361 14.7602 13.3207V15.4793ZM8.9998 7.56035C10.9879 7.56035 12.5998 5.94844 12.5998 3.96035C12.5998 1.97227 10.9879 0.360352 8.9998 0.360352C7.01172 0.360352 5.39981 1.97227 5.39981 3.96035C5.39981 5.94844 7.01172 7.56035 8.9998 7.56035ZM8.9998 1.8C10.1916 1.8 11.1602 2.76855 11.1602 3.96035C11.1602 5.15215 10.1916 6.1207 8.9998 6.1207C7.80801 6.1207 6.83945 5.15039 6.83945 3.96035C6.83945 2.77031 7.80801 1.8 8.9998 1.8Z" fill="#111111"/>
</g>
</svg>
