<svg width="24" height="24" viewBox="0 0 24 24" fill="none" xmlns="http://www.w3.org/2000/svg">
<path d="M4.66079 15.3454C5.41502 15.1759 6.33955 14.9131 6.88378 14.8407C7.86722 14.7086 12.3375 15.8993 13.5835 15.9951C14.8294 16.0908 16.2329 14.763 17.1472 14.2634C18.0615 13.7626 20.9964 11.8096 20.9964 11.8096C20.9964 11.8096 21.1424 10.4352 19.5712 10.8002C18 11.1651 15.5798 12.5318 15.5798 12.5318C15.5798 12.5318 13.837 13.0741 12.6077 12.7013C11.7574 12.4425 10.6267 12.0594 10.1824 11.6026C9.76751 11.1755 9.81361 10.7445 10.1632 10.8002C10.888 10.9166 13.6808 11.1871 14.4389 10.9451C15.1982 10.7031 15.6233 9.78033 15.2942 9.21347C15.2942 9.21347 14.3057 9.15652 12.0161 8.63626C9.72526 8.11599 9.1567 7.7549 8.16686 8.2027C7.3294 8.58319 5.3766 9.78421 3.10111 10.2501C2.54537 13.461 4.45206 15.3324 4.66079 15.3454Z" fill="black"/>
</svg>
