<svg width="24" height="24" viewBox="0 0 24 24" fill="none" xmlns="http://www.w3.org/2000/svg">
<path d="M3 12.75C2.99993 12.647 3.02108 12.5451 3.06211 12.4507C3.10314 12.3562 3.16318 12.2712 3.2385 12.201L14.4885 1.70098C14.6307 1.56819 14.8189 1.49584 15.0134 1.4992C15.2079 1.50255 15.3935 1.58136 15.531 1.71898L20.031 6.21898C20.1023 6.29025 20.1586 6.37517 20.1963 6.46866C20.2341 6.56216 20.2526 6.66231 20.2508 6.76313C20.249 6.86395 20.2269 6.96336 20.1857 7.05544C20.1446 7.14751 20.0854 7.23034 20.0115 7.29898L8.7615 17.799C8.62257 17.9283 8.43979 18.0001 8.25 18H3.75C3.55109 18 3.36032 17.921 3.21967 17.7803C3.07902 17.6397 3 17.4489 3 17.25V12.75ZM4.5 13.0755V16.5H7.9545L18.42 6.73198L14.982 3.29248L4.5 13.0755ZM1.5 21.75V20.25H22.5V21.75H1.5Z" fill="black" fill-opacity="0.6"/>
</svg>
