<svg width="24" height="24" viewBox="0 0 24 24" fill="none" xmlns="http://www.w3.org/2000/svg">
<path fill-rule="evenodd" clip-rule="evenodd" d="M9.38254 19.562C9.12072 18.9951 8.88864 18.3446 8.69294 17.6272C8.16556 17.8357 7.66261 18.0927 7.18948 18.3927C7.84866 18.8895 8.58714 19.2867 9.38254 19.562ZM5.72618 16.9643C6.50764 16.4207 7.36317 15.9757 8.27445 15.6476C8.14373 14.8138 8.0565 13.9255 8.01975 13H4.06189C4.24727 14.4866 4.84054 15.8466 5.72618 16.9643ZM4.06189 11H8.01975C8.0565 10.0745 8.14373 9.18617 8.27445 8.35238C7.36317 8.02426 6.50764 7.5793 5.72618 7.0357C4.84054 8.15344 4.24727 9.51338 4.06189 11ZM7.18948 5.60733C7.66261 5.90729 8.16556 6.16426 8.69294 6.37281C8.88864 5.65537 9.12072 5.00491 9.38254 4.43801C8.58714 4.71328 7.84866 5.11051 7.18948 5.60733ZM14.6175 4.438C14.8794 5.00512 15.1115 5.65587 15.3073 6.37363C15.835 6.16512 16.3382 5.90813 16.8116 5.60811C16.1521 5.11093 15.4133 4.71342 14.6175 4.438ZM18.2746 7.03673C17.493 7.58029 16.6372 8.02517 15.7257 8.35316C15.8563 9.18672 15.9435 10.0748 15.9803 11H19.9381C19.7528 9.51384 19.1598 8.15427 18.2746 7.03673ZM19.9381 13H15.9803C15.9435 13.9252 15.8563 14.8133 15.7257 15.6468C16.6372 15.9748 17.493 16.4197 18.2746 16.9633C19.1598 15.8457 19.7528 14.4862 19.9381 13ZM16.8116 18.3919C16.3382 18.0919 15.835 17.8349 15.3073 17.6264C15.1115 18.3441 14.8794 18.9949 14.6175 19.562C15.4133 19.2866 16.1521 18.8891 16.8116 18.3919ZM22 12C22 17.5228 17.5228 22 12 22C6.47715 22 2 17.5228 2 12C2 6.47715 6.47715 2 12 2C17.5228 2 22 6.47715 22 12ZM13.7792 15.1431C13.8774 14.4716 13.946 13.7537 13.9786 13H10.0214C10.054 13.7538 10.1227 14.4719 10.2209 15.1434C10.8004 15.0491 11.3951 15 12.0011 15C12.6064 15 13.2003 15.0489 13.7792 15.1431ZM12.9715 5.67171C13.1186 6.03951 13.2547 6.44929 13.3766 6.89566C12.9283 6.96437 12.4689 7 12.0011 7C11.5326 7 11.0725 6.96425 10.6235 6.89533C10.7453 6.44909 10.8814 6.03941 11.0285 5.67171C11.3347 4.90634 11.6492 4.42118 11.8961 4.16007C11.9365 4.11741 11.9711 4.08451 12 4.05929C12.0289 4.08451 12.0635 4.11741 12.1039 4.16007C12.3508 4.42118 12.6653 4.90634 12.9715 5.67171ZM12.0011 9C11.3951 9 10.8004 8.95093 10.2209 8.85655C10.1227 9.52813 10.054 10.2462 10.0214 11H13.9786C13.946 10.2463 13.8774 9.52838 13.7792 8.85691C13.2003 8.95105 12.6064 9 12.0011 9ZM13.3766 17.1043C12.9283 17.0356 12.4689 17 12.0011 17C11.5326 17 11.0725 17.0357 10.6235 17.1047C10.7453 17.5509 10.8814 17.9606 11.0285 18.3283C11.3347 19.0937 11.6492 19.5788 11.8961 19.8399C11.9365 19.8826 11.9711 19.9155 12 19.9407C12.0289 19.9155 12.0635 19.8826 12.1039 19.8399C12.3508 19.5788 12.6653 19.0937 12.9715 18.3283C13.1186 17.9605 13.2547 17.5507 13.3766 17.1043Z" fill="#111111"/>
</svg>
