<svg width="44" height="44" viewBox="0 0 44 44" fill="none" xmlns="http://www.w3.org/2000/svg">
<rect width="44" height="44" rx="22" fill="black" fill-opacity="0.04"/>
<path fill-rule="evenodd" clip-rule="evenodd" d="M22.0575 15.3115C21.594 16.0865 21.0504 17.005 20.5975 17.7727C20.3319 18.2229 20.0981 18.6204 19.9306 18.9053L19.6626 19.3615L18.5122 18.6875L18.75 19.9994L18.2586 20.0884C17.9519 20.1438 17.5231 20.2212 17.0346 20.3092C16.2468 20.451 15.3024 20.6203 14.4644 20.7689C15.02 21.3753 15.6545 22.0514 16.2067 22.6346C16.5845 23.0337 16.921 23.3864 17.1631 23.6394C17.284 23.7658 17.3814 23.8673 17.4483 23.937L17.5511 24.0439C17.5511 24.0439 17.1129 23.7423 16.5912 23.636C17.5991 24.0964 17.9109 25.1596 17.9109 25.1596L17.894 25.2775L17.8473 25.6065C17.8077 25.8871 17.7527 26.2804 17.691 26.7314C17.593 27.4477 17.4791 28.3038 17.3837 29.0822C18.0362 28.7808 18.7781 28.4364 19.4568 28.1213C20.3948 27.6859 21.212 27.3065 21.5052 27.1744L22.073 26.9187L22.6335 27.19C23.1128 27.4219 25.1099 28.3705 26.6538 29.091C26.5555 28.3131 26.4425 27.4604 26.3466 26.7472C26.2855 26.2937 26.2316 25.898 26.1928 25.6157L26.1308 25.1657L27.4514 24.9818L26.484 24.0643L26.5862 23.9564C26.6525 23.8863 26.7488 23.7843 26.8686 23.6572C27.1082 23.403 27.4413 23.0485 27.8154 22.6478C28.3644 22.0595 28.9962 21.3771 29.5488 20.7668C28.724 20.6186 27.7957 20.45 27.0208 20.3086C26.5386 20.2207 26.1153 20.1433 25.8126 20.0879L25.3279 19.999L25.5682 18.6875L24.4135 19.3542L24.1494 18.8976C23.9846 18.6128 23.7542 18.2154 23.4926 17.7653C23.0477 16.9998 22.5139 16.0846 22.0575 15.3115ZM25.5682 18.6875L24.4135 19.3542L24.7215 19.8876L25.3279 19.999L25.5682 18.6875ZM26.4141 17.487C26.7037 17.54 27.0791 17.6086 27.4992 17.6852C28.4571 17.8599 29.646 18.0758 30.5825 18.2428C31.3774 18.3674 32.1086 18.8119 32.465 19.5685C32.8329 20.3497 32.6856 21.2415 32.1243 21.8879L31.7256 22.347H31.7148C31.1032 23.0267 30.3764 23.8121 29.7649 24.4673C29.4126 24.8446 29.0965 25.1812 28.8594 25.4329C28.8953 25.6955 28.94 26.0247 28.9894 26.3916C29.112 27.3025 29.2636 28.4505 29.3776 29.3857L29.3788 29.3959L29.3799 29.4062C29.4699 30.2531 29.1868 31.1515 28.3791 31.6608C27.6197 32.1395 26.7319 32.0582 26.0376 31.7455L26.0239 31.7393C24.7705 31.1578 22.9996 30.3199 22.0405 29.8627C21.6648 30.0362 21.1626 30.2694 20.6137 30.5243C19.7692 30.9164 18.8144 31.3597 18.0401 31.716L18.0243 31.7234L18.0082 31.7303C17.3193 32.0257 16.4418 32.1043 15.6864 31.6376C14.8761 31.137 14.5822 30.2468 14.661 29.3987L14.6624 29.3842L14.664 29.3696C14.7724 28.4284 14.9246 27.2788 15.0489 26.37C15.0983 26.0089 15.1435 25.6844 15.18 25.4241C14.9409 25.1741 14.6235 24.8411 14.2702 24.4679C13.5097 23.6646 12.572 22.6633 11.8923 21.9009L11.8824 21.8898C11.3195 21.2441 11.1578 20.3455 11.5434 19.5502C11.9112 18.7918 12.6538 18.3634 13.438 18.2423C14.3871 18.0752 15.5918 17.8594 16.5622 17.6847C16.9932 17.6071 17.3777 17.5377 17.6725 17.4844C17.8368 17.2051 18.0552 16.8339 18.3007 16.4178C18.8285 15.5232 19.4832 14.4172 19.9929 13.5691C20.3288 12.9617 20.7191 12.4889 21.2124 12.2227C21.7569 11.9289 22.2547 11.9747 22.5796 12.0833C23.2593 12.2978 23.7458 12.9016 24.1227 13.5651C24.6272 14.4152 25.276 15.5269 25.7982 16.4253C26.0386 16.839 26.2527 17.2082 26.4141 17.487ZM27.4514 24.9818L26.484 24.0643L26.0425 24.5298L26.1308 25.1657L27.4514 24.9818ZM13.7904 20.8897C13.7892 20.8902 13.7886 20.8904 13.7886 20.8904L13.7904 20.8897ZM18.5122 18.6875L18.75 19.9994L19.3526 19.8902L19.6626 19.3615L18.5122 18.6875Z" fill="black" fill-opacity="0.6"/>
</svg>
