<svg width="18" height="18" viewBox="0 0 18 18" fill="none" xmlns="http://www.w3.org/2000/svg">
<g clip-path="url(#clip0_1372_25726)">
<path d="M15.8087 17.2763C15.6904 16.4291 14.8969 10.7535 14.7689 9.84688C14.5654 8.40506 13.3215 8.02031 12.6109 8.02031L10.9545 8.02369V2.0051C10.9434 0.889672 10.0484 -0.00990201 8.90895 8.23143e-05C8.36276 0.0057073 7.87058 0.230425 7.52295 0.632892C7.19952 1.00695 7.02486 1.50884 7.03063 2.03984V8.03142L5.28225 8.03494C4.45776 8.07066 2.88671 8.6025 2.84213 10.3583C2.82624 10.9814 2.38848 15.2363 2.15926 17.3995C2.15126 17.4752 2.15926 17.5518 2.18275 17.6242C2.20624 17.6966 2.24469 17.7633 2.29561 17.8199C2.34653 17.8765 2.40878 17.9217 2.47831 17.9527C2.54785 17.9837 2.62313 17.9997 2.69926 17.9997H15.2858C15.2895 17.9992 15.2933 17.9992 15.297 17.9997C15.3837 17.9997 15.4693 17.9789 15.5463 17.939C15.6234 17.8991 15.6898 17.8413 15.7399 17.7704C15.79 17.6995 15.8224 17.6177 15.8344 17.5317C15.8464 17.4458 15.8376 17.3582 15.8087 17.2763ZM8.11653 2.03379C8.11358 1.76182 8.19444 1.51658 8.34448 1.3429C8.48764 1.17725 8.68648 1.08837 8.91949 1.08598C9.42546 1.09076 9.86337 1.49844 9.86857 2.01059V8.02566L8.11653 8.02917V2.03379ZM12.5101 16.9141L12.6768 13.9125C12.6808 13.8413 12.6707 13.77 12.6471 13.7027C12.6234 13.6354 12.5868 13.5734 12.5392 13.5203C12.4917 13.4672 12.4341 13.4239 12.3698 13.3931C12.3055 13.3622 12.2358 13.3443 12.1645 13.3404C11.8628 13.3271 11.6089 13.553 11.5925 13.8521L11.4225 16.9141H9.36837L9.53951 13.913C9.54765 13.7693 9.49836 13.6283 9.4025 13.5209C9.30664 13.4135 9.17205 13.3486 9.02834 13.3404C8.7267 13.3287 8.47245 13.5525 8.45515 13.8516L8.28064 16.9141H6.33693L6.50076 13.9119C6.50858 13.7682 6.45898 13.6272 6.36289 13.52C6.26679 13.4129 6.13206 13.3483 5.98832 13.3404C5.68907 13.3256 5.43285 13.553 5.41654 13.8527L5.24948 16.9142H3.30254C3.4703 15.3139 3.91045 11.0654 3.92761 10.3862C3.957 9.22813 5.19168 9.12745 5.307 9.12056L12.619 9.10621C12.7775 9.10621 13.574 9.1491 13.6938 9.99848C13.8058 10.7933 14.4303 15.2582 14.662 16.9142H12.5101V16.9141Z" fill="#111111"/>
</g>
<defs>
<clipPath id="clip0_1372_25726">
<rect width="18" height="18" fill="white"/>
</clipPath>
</defs>
</svg>
