<svg width="24" height="24" viewBox="0 0 24 24" fill="none" xmlns="http://www.w3.org/2000/svg">
<path d="M22 12C22 6.48 17.52 2 12 2C6.48 2 2 6.48 2 12C2 17.52 6.48 22 12 22C17.52 22 22 17.52 22 12ZM15 7.46568C15 7.10932 15.4309 6.93086 15.6828 7.18284L18.15 9.65C18.35 9.85 18.35 10.16 18.15 10.36L15.6824 12.8198C15.4302 13.0711 15 12.8925 15 12.5365V11.4C15 11.1791 14.8209 11 14.6 11H11.4C11.1791 11 11 10.8209 11 10.6V9.4C11 9.17909 11.1791 9 11.4 9H14.6C14.8209 9 15 8.82091 15 8.6V7.46568ZM9 16.5343C9 16.8907 8.56914 17.0691 8.31716 16.8172L5.85 14.35C5.65 14.15 5.65 13.84 5.85 13.64L8.31761 11.1802C8.56978 10.9289 9 11.1075 9 11.4635V12.6C9 12.8209 9.17909 13 9.4 13H12.6C12.8209 13 13 13.1791 13 13.4V14.6C13 14.8209 12.8209 15 12.6 15H9.4C9.17909 15 9 15.1791 9 15.4V16.5343Z" fill="#1063E0"/>
</svg>
