<svg width="20" height="20" viewBox="0 0 20 20" fill="none" xmlns="http://www.w3.org/2000/svg">
<path d="M6.63157 2.27591C6.63157 1.01682 7.71152 0 9.03385 0H10.9662C12.2909 0 13.3684 1.015 13.3684 2.27591V2.89727C13.8947 3.11035 14.3963 3.37527 14.865 3.68773L15.4326 3.37955C16.5783 2.75682 18.0444 3.12636 18.7082 4.20773L19.6748 5.78227C20.3443 6.87318 19.9463 8.26864 18.7906 8.89591L18.2877 9.16909C18.3505 9.72141 18.3505 10.2786 18.2877 10.8309L18.7906 11.1036C19.9458 11.7309 20.3443 13.1264 19.6744 14.2177L18.7077 15.7923C18.0444 16.8741 16.5783 17.2427 15.4326 16.6205L14.865 16.3123C14.3963 16.6247 13.8947 16.8896 13.3684 17.1027V17.7241C13.3684 18.9832 12.2885 20 10.9662 20H9.03385C7.70914 20 6.63157 18.985 6.63157 17.7241V16.9891C6.15818 16.778 5.70695 16.5242 5.28401 16.2314L4.56737 16.6205C3.4217 17.2432 1.95557 16.8736 1.29179 15.7923L0.325166 14.2177C-0.34433 13.1268 0.0537486 11.7314 1.20941 11.1041L1.96605 10.6932C1.92246 10.232 1.92246 9.768 1.96605 9.30682L1.20941 8.89636C0.0542249 8.26909 -0.34433 6.87364 0.325642 5.78227L1.29227 4.20773C1.95557 3.12591 3.4217 2.75727 4.56737 3.37955L5.28401 3.76864C5.70695 3.47575 6.15818 3.22203 6.63157 3.01091V2.27591ZM8.53625 3.61591C8.53622 3.80154 8.47665 3.98271 8.36556 4.13507C8.25448 4.28743 8.09719 4.40368 7.91485 4.46818C7.21138 4.71686 6.55996 5.08319 5.99112 5.55C5.84228 5.6723 5.65748 5.74768 5.46202 5.76583C5.26655 5.78397 5.06999 5.74399 4.89926 5.65136L3.6255 4.95955C3.38313 4.82773 3.07029 4.90682 2.93506 5.12682L1.96891 6.70136C1.83748 6.91545 1.9151 7.18773 2.15128 7.31591L3.46503 8.02954C3.63586 8.12236 3.77242 8.26337 3.85597 8.43321C3.93952 8.60306 3.96597 8.79342 3.93168 8.97818C3.80617 9.65413 3.80617 10.3459 3.93168 11.0218C3.96607 11.2066 3.93968 11.3971 3.85612 11.567C3.77257 11.737 3.63595 11.8781 3.46503 11.9709L2.15128 12.6841C1.9151 12.8123 1.83748 13.0845 1.96891 13.2986L2.93553 14.8732C3.07029 15.0932 3.38313 15.1718 3.62598 15.0405L4.89926 14.3486C5.06995 14.2559 5.26648 14.2159 5.46194 14.234C5.6574 14.252 5.84223 14.3273 5.99112 14.4495C6.55996 14.9164 7.21138 15.2827 7.91485 15.5314C8.09727 15.5959 8.25461 15.7122 8.3657 15.8647C8.47679 16.0171 8.53631 16.1984 8.53625 16.3841V17.7241C8.53625 17.9755 8.75529 18.1818 9.03385 18.1818H10.9662C11.2423 18.1818 11.4637 17.9732 11.4637 17.7241V16.4732C11.4639 16.2815 11.5275 16.0947 11.6455 15.9396C11.7636 15.7845 11.9299 15.669 12.1209 15.6095C12.8733 15.3746 13.5727 15.0067 14.1827 14.525C14.3316 14.4074 14.5145 14.3359 14.7071 14.3199C14.8996 14.3039 15.0927 14.3442 15.2607 14.4355L16.3745 15.04C16.6169 15.1718 16.9297 15.0932 17.0649 14.8732L18.0311 13.2986C18.1625 13.0845 18.0849 12.8123 17.8487 12.6841L16.7773 12.1023C16.6036 12.0079 16.4653 11.8638 16.3822 11.6903C16.299 11.5167 16.2752 11.3226 16.314 11.1355C16.3907 10.7645 16.4297 10.385 16.4297 10C16.4297 9.615 16.3907 9.23545 16.314 8.86454C16.2752 8.67737 16.299 8.48326 16.3822 8.30974C16.4653 8.13622 16.6036 7.99208 16.7773 7.89773L17.8487 7.31591C18.0849 7.18773 18.1625 6.91545 18.0311 6.70136L17.0645 5.12682C16.9297 4.90682 16.6169 4.82818 16.374 4.95955L15.2607 5.56409C15.0928 5.65532 14.8999 5.69566 14.7074 5.67975C14.515 5.66383 14.3321 5.59243 14.1832 5.475C13.5729 4.99336 12.8731 4.6256 12.1204 4.39091C11.9295 4.33138 11.7631 4.21575 11.6452 4.06055C11.5273 3.90536 11.4638 3.71855 11.4637 3.52682V2.27591C11.4637 2.02455 11.2447 1.81818 10.9662 1.81818H9.03385C8.75767 1.81818 8.53625 2.02682 8.53625 2.27591V3.61591ZM10 13.1818C9.11598 13.1818 8.26817 12.8466 7.64308 12.2499C7.01798 11.6532 6.66681 10.8439 6.66681 10C6.66681 9.15613 7.01798 8.34682 7.64308 7.75012C8.26817 7.15341 9.11598 6.81818 10 6.81818C10.884 6.81818 11.7318 7.15341 12.3569 7.75012C12.982 8.34682 13.3332 9.15613 13.3332 10C13.3332 10.8439 12.982 11.6532 12.3569 12.2499C11.7318 12.8466 10.884 13.1818 10 13.1818ZM10 11.3636C10.3789 11.3636 10.7422 11.22 11.0101 10.9642C11.278 10.7085 11.4285 10.3617 11.4285 10C11.4285 9.63834 11.278 9.2915 11.0101 9.03576C10.7422 8.78003 10.3789 8.63636 10 8.63636C9.62113 8.63636 9.25779 8.78003 8.98989 9.03576C8.72199 9.2915 8.57149 9.63834 8.57149 10C8.57149 10.3617 8.72199 10.7085 8.98989 10.9642C9.25779 11.22 9.62113 11.3636 10 11.3636Z" fill="black"/>
</svg>
