<svg width="24" height="24" viewBox="0 0 24 24" fill="none" xmlns="http://www.w3.org/2000/svg">
<path fill-rule="evenodd" clip-rule="evenodd" d="M20 12C20 16.4183 16.4183 20 12 20C7.58172 20 4 16.4183 4 12C4 7.58172 7.58172 4 12 4C16.4183 4 20 7.58172 20 12ZM22 12C22 17.5228 17.5228 22 12 22C6.47715 22 2 17.5228 2 12C2 6.47715 6.47715 2 12 2C17.5228 2 22 6.47715 22 12ZM14.3948 7.80395L13.4626 7.44213L12.7389 9.30663L13.6712 9.66845L15.1726 10.2512L12.2875 13.0089L10.6278 11.3774C10.2714 11.027 9.71093 10.9936 9.31539 11.2992L6.38858 13.5607L5.59727 14.1721L6.82012 15.7548L7.61142 15.1433L9.84791 13.4152L11.5768 15.1147C11.962 15.4934 12.5783 15.4977 12.9688 15.1245L17.691 10.6106C17.9382 10.3743 18.0475 10.0281 17.9808 9.69268C17.9141 9.35727 17.6806 9.07921 17.3618 8.95548L14.3948 7.80395Z" fill="#111111"/>
</svg>
