<svg width="24" height="24" viewBox="0 0 24 24" fill="none" xmlns="http://www.w3.org/2000/svg">
<path fill-rule="evenodd" clip-rule="evenodd" d="M15.9405 9.89074L16.6472 9.1832L17.1763 8.65344H12.8848L11.8848 8.65344V6.65344H12.8848H17.177L16.6472 6.12289L15.9405 5.41534L17.3538 4.00024L18.0605 4.70779L20.0037 6.65344H20.0328V6.68256L20.2954 6.94549L21.0021 7.65304L20.2954 8.36059L20.0328 8.62352V8.65344H20.0029L18.0605 10.5983L17.3538 11.3058L15.9405 9.89074ZM7.47047 6.65442H8.47047H8.91254L9.91254 6.65442L9.91254 8.65442H8.91254H8.47047H7.47047V6.65442ZM4.05806 6.65442L3.05806 6.65442L3.05806 8.65442H4.05806L4.50013 8.65442H5.50013L5.50013 6.65442H4.50013H4.05806ZM8.06109 14.1122L7.35443 14.8197L6.82533 15.3495H11.1167H12.1167V17.3495H11.1167H6.82454L7.35443 17.88L8.06109 18.5876L6.64776 20.0027L5.94109 19.2951L3.99787 17.3495H3.96878V17.3204L3.70618 17.0574L2.99951 16.3499L3.70618 15.6423L3.96878 15.3794V15.3495H3.99866L5.94109 13.4046L6.64776 12.6971L8.06109 14.1122ZM16.5311 17.3485H15.5311H15.089H14.089L14.089 15.3485H15.089L15.5311 15.3485H16.5311V17.3485ZM19.9435 17.3485H20.9435V15.3485H19.9435L19.5015 15.3485H18.5015L18.5015 17.3485H19.5015H19.9435Z" fill="#111111"/>
</svg>
