<svg width="16" height="24" viewBox="0 0 16 24" fill="none" xmlns="http://www.w3.org/2000/svg">
<path d="M6.56275 0.151346C6.79663 -0.143035 7.27417 0.0207987 7.27417 0.395418C7.27417 2.00593 7.27012 3.61608 7.27012 5.22561C7.27012 7.06051 5.7686 8.54797 3.91636 8.54797H1.07599C0.596045 8.54797 0.327378 7.99984 0.624211 7.62617L6.56275 0.151346Z" fill="#04142A"/>
<path d="M9.43719 0.151346C9.20331 -0.143035 8.72577 0.0207987 8.72577 0.395418C8.72577 2.00562 8.72982 3.61597 8.72982 5.22561C8.72982 7.06051 10.2313 8.54797 12.0836 8.54797H14.9239C15.4039 8.54797 15.6726 7.99984 15.3757 7.62617L9.43719 0.151346Z" fill="#04142A"/>
<path d="M15.4268 10.8734C15.6372 10.5048 15.369 10.048 14.9424 10.048L11.974 10.0479C10.1801 10.0479 8.72583 11.4917 8.72583 13.2728L8.72582 16.3873C8.72582 16.5311 8.68344 16.6449 8.61915 16.7348C8.34107 17.1236 7.65941 17.1237 7.38003 16.7358C7.31517 16.6457 7.27236 16.5316 7.27236 16.3873L7.27235 13.3005C7.27235 11.5195 5.82372 10.0756 4.03674 10.0756L1.05854 10.0759C0.633538 10.0759 0.366423 10.5328 0.575962 10.9013L7.32116 22.7652C7.5755 23.2126 8.37231 23.2122 8.6274 22.7652L15.4268 10.8734Z" fill="#04142A"/>
</svg>
