<svg width="24" height="24" viewBox="0 0 24 24" fill="none" xmlns="http://www.w3.org/2000/svg">
<path fill-rule="evenodd" clip-rule="evenodd" d="M6 5C5.44772 5 5 5.44772 5 6V18.0018C5 18.554 5.44772 19.0018 6 19.0018H18.0018C18.554 19.0018 19.0018 18.554 19.0018 18.0018V16.0013V15.3346C19.0018 14.7823 19.4495 14.3346 20.0018 14.3346C20.554 14.3346 21.0018 14.7823 21.0018 15.3346V16.0013V18.0018C21.0018 19.6586 19.6586 21.0018 18.0018 21.0018H6C4.34314 21.0018 3 19.6586 3 18.0018V6C3 4.34315 4.34314 3 6 3H8.00044H8.66718C9.21946 3 9.66718 3.44772 9.66718 4C9.66718 4.55228 9.21946 5 8.66718 5H8.00044H6ZM11.2929 12.7091C10.9024 12.3185 10.9024 11.6854 11.2929 11.2948L17.5857 5.00202L14.6661 5.00202C14.1138 5.00202 13.6661 4.5543 13.6661 4.00202C13.6661 3.44974 14.1138 3.00202 14.6661 3.00202L20 3.00202C20.5523 3.00202 21 3.44974 21 4.00202V9.33594C21 9.88822 20.5523 10.3359 20 10.3359C19.4477 10.3359 19 9.88822 19 9.33594V6.41617L12.7071 12.7091C12.3166 13.0996 11.6834 13.0996 11.2929 12.7091Z" fill="#1063E0"/>
</svg>
