<?xml version="1.0" encoding="UTF-8"?>
<svg width="40px" height="40px" viewBox="0 0 40 40" version="1.1" xmlns="http://www.w3.org/2000/svg" xmlns:xlink="http://www.w3.org/1999/xlink">
    <title>问卷任务</title>
    <g id="页面-1" stroke="none" stroke-width="1" fill="none" fill-rule="evenodd">
        <g id="投注结束-查看更多" transform="translate(-285.000000, -752.000000)" fill-rule="nonzero">
            <g id="问卷任务" transform="translate(285.000000, 752.000000)">
                <path d="M7.13165848,0 L32.8683415,0 C37.6227805,0 40,2.37721949 40,7.13165848 L40,32.8683415 C40,37.6227805 37.6227805,40 32.8683415,40 L7.13165848,40 C2.37721949,40 0,37.6227805 0,32.8683415 L0,7.13165848 C0,2.37721949 2.37721949,0 7.13165848,0 Z" id="路径" fill="#7D47FF" opacity="0.699999988"></path>
                <path d="M10.6493122,9.5995943 L27.0653116,9.5995943 C28.3832344,9.5995943 29.0421958,10.2585557 29.0421958,11.5764786 L29.0421958,27.1794113 C29.0421958,28.4973341 28.3832344,29.1562955 27.0653116,29.1562955 L10.6493122,29.1562955 C9.33138941,29.1562955 8.67242801,28.4973341 8.67242801,27.1794113 L8.67242801,11.5764786 C8.67242801,10.2585557 9.33138941,9.5995943 10.6493122,9.5995943 Z" id="路径" fill="#FFFFFF" opacity="0.56"></path>
                <path d="M12.854396,12.7994591 L24.8602278,12.7994591 C25.6727308,12.7994591 26.0789824,13.2057106 26.0789824,14.0182137 L26.0789824,14.0190589 C26.0789824,14.831562 25.6727308,15.2378135 24.8602278,15.2378135 L12.854396,15.2378135 C12.0418929,15.2378135 11.6356414,14.831562 11.6356414,14.0190589 L11.6356414,14.0182137 C11.6356414,13.2057106 12.0418929,12.7994591 12.854396,12.7994591 Z" id="路径" fill="#FFFFFF" opacity="0.56"></path>
                <path d="M13.0403364,21.4608997 L18.0700234,21.4608997 C18.8825265,21.4608997 19.2887781,21.8671512 19.2887781,22.6796543 L19.2887781,22.6804995 C19.2887781,23.4930026 18.8825265,23.8992541 18.0700234,23.8992541 L13.0403364,23.8992541 C12.2278333,23.8992541 11.8215818,23.4930026 11.8215818,22.6804995 L11.8215818,22.6796543 C11.8215818,21.8671513 12.2278333,21.4608997 13.0403364,21.4608997 L13.0403364,21.4608997 Z" id="路径" fill="#FFFFFF" opacity="0.56"></path>
                <path d="M12.854396,17.1682127 L24.8602278,17.1682127 C25.6727308,17.1682127 26.0789824,17.5744642 26.0789824,18.3869673 L26.0789824,18.3878125 C26.0789824,19.2003155 25.6727308,19.6065671 24.8602278,19.6065671 L12.854396,19.6065671 C12.0418929,19.6065671 11.6356414,19.2003155 11.6356414,18.3878125 L11.6356414,18.3869673 C11.6356414,17.5744642 12.0418929,17.1682127 12.854396,17.1682127 Z" id="路径" fill="#FFFFFF" opacity="0.56"></path>
                <path d="M26.4897416,20.7238996 C24.5326031,20.7235578 22.7679871,21.9022465 22.0187857,23.7103086 C21.2695843,25.5183706 21.6833522,27.5997099 23.0671373,28.9837367 C24.4509223,30.3677634 26.5321892,30.7818949 28.3403821,30.0330094 C30.148575,29.2841239 31.327572,27.5197138 31.327572,25.5625753 C31.327572,22.8905786 29.1617383,20.7243664 26.4897416,20.7238996 Z M29.0743128,26.7018827 L26.6401843,26.7018827 C26.586445,26.7124092 26.5318242,26.7177863 26.4770638,26.7179411 C26.2547005,26.7179411 26.0414446,26.6296076 25.8842099,26.472373 C25.7269753,26.3151384 25.6386418,26.1018824 25.6386418,25.8795191 L25.6386418,23.2890316 C25.6530125,22.8365742 26.0239557,22.4772258 26.4766413,22.4772258 C26.9293268,22.4772258 27.30027,22.8365742 27.3146407,23.2890316 L27.3146407,25.0258837 L29.0743128,25.0258837 C29.3800474,25.0161732 29.6668069,25.1737371 29.8225463,25.4370111 C29.9782858,25.7002851 29.9782858,26.0274813 29.8225463,26.2907553 C29.6668069,26.5540293 29.3800474,26.7115933 29.0743128,26.7018827 L29.0743128,26.7018827 Z" id="形状" fill="#FFFFFF" opacity="0.56"></path>
            </g>
        </g>
    </g>
</svg>