<?xml version="1.0" encoding="UTF-8"?>
<svg width="40px" height="40px" viewBox="0 0 40 40" version="1.1" xmlns="http://www.w3.org/2000/svg" xmlns:xlink="http://www.w3.org/1999/xlink">
    <title>问卷计划</title>
    <g id="页面-1" stroke="none" stroke-width="1" fill="none" fill-rule="evenodd">
        <g id="投注结束-查看更多" transform="translate(-687.000000, -752.000000)" fill-rule="nonzero">
            <g id="问卷计划" transform="translate(687.000000, 752.000000)">
                <path d="M7.13165848,0 L32.8683415,0 C37.6227805,0 40,2.37721949 40,7.13165848 L40,32.8683415 C40,37.6227805 37.6227805,40 32.8683415,40 L7.13165848,40 C2.37721949,40 0,37.6227805 0,32.8683415 L0,7.13165848 C0,2.37721949 2.37721949,0 7.13165848,0 Z" id="路径" fill="#7D47FF" opacity="0.699999988"></path>
                <path d="M16.6450441,8.79836035 L23.3558011,8.79836035 C25.1109656,8.79836035 25.9885478,9.67594257 25.9885478,11.431107 L25.9885478,11.431107 C25.9885478,13.1862714 25.1109656,14.0638536 23.3558011,14.0638536 L16.6450441,14.0638536 C14.8898796,14.0638536 14.0122974,13.1862714 14.0122974,11.431107 L14.0122974,11.431107 C14.0122974,9.67594257 14.8898796,8.79836035 16.6450441,8.79836035 Z" id="路径" fill="#FFFFFF" opacity="0.56"></path>
                <path d="M11.6271896,11.3279946 L28.3728104,11.3279946 C29.6907332,11.3279946 30.3496947,11.986956 30.3496947,13.3048788 L30.3496947,29.2247554 C30.3496947,30.5426782 29.6907333,31.2016396 28.3728104,31.2016396 L11.6271896,31.2016396 C10.3092668,31.2016396 9.65030531,30.5426782 9.65030531,29.2247554 L9.65030531,13.3048788 C9.65030531,11.986956 10.3092667,11.3279946 11.6271896,11.3279946 Z" id="路径" fill="#FFFFFF" opacity="0.56"></path>
                <path d="M13.9007332,16.5934879 L26.100112,16.5934879 C26.926138,16.5934879 27.339151,17.0065009 27.339151,17.8325269 L27.339151,17.8325269 C27.339151,18.6585529 26.926138,19.0715659 26.100112,19.0715659 L13.9007332,19.0715659 C13.0747072,19.0715659 12.6616942,18.6585529 12.6616942,17.8325269 L12.6616942,17.8325269 C12.6616942,17.0065009 13.0747072,16.5934879 13.9007332,16.5934879 Z" id="路径" fill="#FFFFFF" opacity="0.56"></path>
                <path d="M15.6384305,21.0070362 L24.3624147,21.0070362 C25.1884407,21.0070362 25.6014537,21.4200492 25.6014537,22.2460752 L25.6014537,22.2460752 C25.6014537,23.0721012 25.1884407,23.4851142 24.3624147,23.4851142 L15.6384305,23.4851142 C14.8124045,23.4851142 14.3993915,23.0721012 14.3993915,22.2460752 L14.3993915,22.2460752 C14.3993915,21.4200492 14.8124045,21.0070362 15.6384305,21.0070362 Z" id="路径" fill="#FFFFFF" opacity="0.56"></path>
                <path d="M13.9007332,25.4205845 L26.100112,25.4205845 C26.926138,25.4205845 27.339151,25.8335975 27.339151,26.6596235 L27.339151,26.6596235 C27.339151,27.4856495 26.926138,27.8986625 26.100112,27.8986625 L13.9007332,27.8986625 C13.0747072,27.8986625 12.6616942,27.4856495 12.6616942,26.6596235 L12.6616942,26.6596235 C12.6616942,25.8335975 13.0747072,25.4205845 13.9007332,25.4205845 Z" id="路径" fill="#FFFFFF" opacity="0.56"></path>
            </g>
        </g>
    </g>
</svg>