<?xml version="1.0" encoding="UTF-8"?>
<svg width="40px" height="40px" viewBox="0 0 40 40" version="1.1" xmlns="http://www.w3.org/2000/svg" xmlns:xlink="http://www.w3.org/1999/xlink">
    <title>问卷报告</title>
    <g id="页面-1" stroke="none" stroke-width="1" fill="none" fill-rule="evenodd">
        <g id="投注结束-查看更多" transform="translate(-1076.000000, -752.000000)" fill-rule="nonzero">
            <g id="问卷报告" transform="translate(1076.000000, 752.000000)">
                <path d="M7.13165848,0 L32.8683415,0 C37.6227805,0 40,2.37721949 40,7.13165848 L40,32.8683415 C40,37.6227805 37.6227805,40 32.8683415,40 L7.13165848,40 C2.37721949,40 0,37.6227805 0,32.8683415 L0,7.13165848 C0,2.37721949 2.37721949,0 7.13165848,0 Z" id="路径" fill="#7D47FF" opacity="0.699999988"></path>
                <path d="M30.83483,13.245716 C30.83483,11.72354 29.6008626,10.4895725 28.0786866,10.4895725 L11.9213134,10.4895725 C11.1904164,10.4895725 10.4894674,10.779978 9.97272444,11.2968795 C9.45598149,11.813781 9.16579095,12.514819 9.16601503,13.245716 L9.16601503,28.5384664 C9.16601503,30.0601756 10.3996042,31.2937646 11.9213134,31.2937646 L23.9609525,31.2937646 L30.83483,23.4707461 L30.83483,13.245716 Z" id="路径" fill="#FFFFFF" opacity="0.56"></path>
                <path d="M13.614216,13.8939717 L26.385784,13.8939717 C27.250125,13.8939717 27.6822955,14.3261422 27.6822955,15.1904832 L27.6822955,15.1913284 C27.6822955,16.0556694 27.250125,16.4878399 26.385784,16.4878399 L13.614216,16.4878399 C12.749875,16.4878399 12.3177045,16.0556694 12.3177045,15.1913284 L12.3177045,15.1904832 C12.3177045,14.3261422 12.749875,13.8939717 13.614216,13.8939717 Z" id="路径" fill="#FFFFFF" opacity="0.56"></path>
                <path d="M13.8128341,23.1073172 L19.1636909,23.1073172 C20.0280319,23.1073172 20.4602024,23.5394877 20.4602024,24.4038287 L20.4602024,24.4046739 C20.4602024,25.2690149 20.0280319,25.7011854 19.1636909,25.7011854 L13.8128341,25.7011854 C12.9484931,25.7011854 12.5163226,25.2690149 12.5163226,24.4046739 L12.5163226,24.4038287 C12.5163226,23.5394877 12.9484931,23.1073172 13.8128341,23.1073172 Z" id="路径" fill="#FFFFFF" opacity="0.56"></path>
                <path d="M15.7305555,8.70623535 L15.7314007,8.70623535 C16.5957417,8.70623535 17.0279122,9.13840585 17.0279122,10.0027468 L17.0279122,11.1386735 C17.0279122,12.0030145 16.5957417,12.435185 15.7314007,12.435185 L15.7305555,12.435185 C14.8662145,12.435185 14.434044,12.0030145 14.434044,11.1386735 L14.434044,10.0027468 C14.434044,9.13840582 14.8662145,8.70623535 15.7305555,8.70623535 L15.7305555,8.70623535 Z" id="路径" fill="#FFFFFF" opacity="0.56"></path>
                <path d="M24.2685993,8.70623535 L24.2694445,8.70623535 C25.1337855,8.70623535 25.565956,9.13840585 25.565956,10.0027468 L25.565956,11.1386735 C25.565956,12.0030145 25.1337855,12.435185 24.2694445,12.435185 L24.2685993,12.435185 C23.4042583,12.435185 22.9720878,12.0030145 22.9720878,11.1386735 L22.9720878,10.0027468 C22.9720878,9.13840582 23.4042583,8.70623535 24.2685993,8.70623535 L24.2685993,8.70623535 Z" id="路径" fill="#FFFFFF" opacity="0.56"></path>
                <path d="M13.614216,18.5407907 L26.385784,18.5407907 C27.250125,18.5407907 27.6822955,18.9729612 27.6822955,19.8373022 L27.6822955,19.8381473 C27.6822955,20.7024884 27.250125,21.1346589 26.385784,21.1346589 L13.614216,21.1346589 C12.749875,21.1346589 12.3177045,20.7024884 12.3177045,19.8381473 L12.3177045,19.8373022 C12.3177045,18.9729612 12.749875,18.5407907 13.614216,18.5407907 Z" id="路径" fill="#FFFFFF" opacity="0.56"></path>
                <path d="M24.0496968,31.2362922 L23.5231475,27.2715363 C23.3226377,25.7635431 24.3818382,24.3782601 25.8896613,24.1764743 L30.7798931,23.5273734 L24.0496968,31.2362922 Z" id="路径" fill="#FFFFFF" opacity="0.56"></path>
            </g>
        </g>
    </g>
</svg>